M48
;DRILL file {KiCad 4.0.7-e2-6376~60~ubuntu17.10.1} date Mon Apr  2 23:18:45 2018
;FORMAT={-:-/ absolute / inch / decimal}
FMAT,2
INCH,TZ
T1C0.012
T2C0.016
T3C0.026
T4C0.032
%
G90
G05
M72
T1
X6.022Y-5.554
X6.022Y-5.864
X6.034Y-5.582
X6.036Y-5.244
X6.036Y-5.268
X6.054Y-5.228
X6.056Y-5.282
X6.058Y-5.868
X6.06Y-5.586
X6.07Y-5.214
X6.084Y-5.282
X6.09Y-5.198
X6.106Y-5.282
X6.106Y-5.866
X6.108Y-5.182
X6.124Y-5.168
X6.128Y-5.294
X6.13Y-5.318
X6.13Y-5.344
X6.13Y-5.372
X6.13Y-5.398
X6.13Y-5.43
X6.13Y-5.462
X6.13Y-5.494
X6.13Y-5.526
X6.142Y-5.554
X6.146Y-5.152
X6.156Y-5.862
X6.164Y-5.136
X6.164Y-5.57
X6.176Y-5.524
X6.18Y-5.122
X6.182Y-5.46
X6.19Y-5.388
X6.198Y-5.106
X6.198Y-5.57
X6.2Y-5.332
X6.2Y-5.862
X6.216Y-5.09
X6.232Y-5.076
X6.238Y-5.432
X6.248Y-5.142
X6.25Y-5.108
X6.252Y-5.06
X6.252Y-5.862
X6.27Y-5.044
X6.272Y-5.326
X6.274Y-5.4
X6.276Y-5.142
X6.278Y-5.108
X6.286Y-5.03
X6.298Y-5.074
X6.304Y-5.014
X6.306Y-5.142
X6.308Y-5.778
X6.31Y-5.44
X6.312Y-5.11
X6.314Y-5.512
X6.314Y-5.862
X6.322Y-4.998
X6.324Y-5.23
X6.324Y-5.592
X6.326Y-5.074
X6.334Y-5.142
X6.338Y-4.984
X6.34Y-5.11
X6.354Y-4.968
X6.354Y-5.222
X6.354Y-5.784
X6.356Y-5.024
X6.366Y-5.142
X6.37Y-5.062
X6.372Y-4.952
X6.378Y-4.986
X6.378Y-5.222
X6.378Y-5.424
X6.38Y-5.102
X6.384Y-5.024
X6.388Y-4.938
X6.39Y-5.578
X6.39Y-5.612
X6.392Y-5.524
X6.394Y-5.142
X6.398Y-5.062
X6.398Y-5.234
X6.406Y-4.986
X6.406Y-5.552
X6.408Y-5.102
X6.412Y-4.936
X6.412Y-5.256
X6.416Y-5.46
X6.418Y-5.132
X6.42Y-5.368
X6.422Y-5.492
X6.424Y-5.008
X6.424Y-5.03
X6.426Y-5.396
X6.428Y-5.33
X6.43Y-4.948
X6.432Y-4.97
X6.434Y-5.146
X6.434Y-5.29
X6.436Y-5.054
X6.436Y-5.12
X6.436Y-5.562
X6.438Y-5.214
X6.438Y-5.26
X6.438Y-5.436
X6.44Y-4.99
X6.442Y-5.51
X6.45Y-5.176
X6.454Y-5.544
X6.456Y-5.12
X6.456Y-5.406
X6.458Y-5.322
X6.46Y-5.294
X6.462Y-5.054
X6.462Y-5.078
X6.462Y-5.1
X6.464Y-5.518
X6.504Y-5.808
X6.5306Y-5.8092
X6.546Y-5.016
X6.546Y-5.038
X6.546Y-5.062
X6.546Y-5.084
X6.546Y-5.106
X6.546Y-5.13
X6.546Y-5.154
X6.546Y-5.178
X6.55Y-5.306
X6.554Y-5.274
X6.554Y-5.352
X6.558Y-5.398
X6.562Y-5.214
X6.57Y-5.008
X6.574Y-4.986
X6.576Y-4.94
X6.576Y-4.962
X6.58Y-5.426
X6.586Y-5.322
X6.5951Y-5.818
X6.596Y-5.048
X6.598Y-5.096
X6.598Y-5.376
X6.6Y-4.984
X6.602Y-5.532
X6.604Y-4.94
X6.604Y-5.15
X6.608Y-5.194
X6.61Y-5.254
X6.6111Y-5.8543
X6.624Y-4.956
X6.624Y-5.496
X6.628Y-5.878
X6.6293Y-5.7109
X6.632Y-5.41
X6.638Y-5.016
X6.644Y-4.972
X6.6469Y-5.7541
X6.6469Y-5.78
X6.6469Y-5.802
X6.648Y-5.342
X6.658Y-5.074
X6.666Y-4.99
X6.668Y-5.45
X6.6741Y-5.315
X6.6801Y-5.6441
X6.682Y-5.136
X6.686Y-5.008
X6.6963Y-5.723
X6.698Y-5.876
X6.7011Y-5.5903
X6.7013Y-5.6395
X6.7023Y-5.6732
X6.706Y-5.024
X6.708Y-5.074
X6.722Y-5.182
X6.722Y-5.876
X6.724Y-5.792
X6.726Y-5.04
X6.728Y-5.714
X6.7346Y-5.4219
X6.746Y-5.318
X6.748Y-5.058
X6.754Y-5.654
X6.756Y-5.116
X6.768Y-5.078
X6.778Y-5.156
X6.788Y-5.094
X6.796Y-5.328
X6.8025Y-5.8214
X6.804Y-5.762
X6.8041Y-5.8431
X6.808Y-5.11
X6.8249Y-5.7946
X6.8262Y-5.7609
X6.828Y-5.306
X6.83Y-5.128
X6.832Y-5.7
X6.852Y-5.152
X6.86Y-5.204
X6.8604Y-5.8591
X6.872Y-5.168
X6.8734Y-5.6752
X6.8887Y-5.7615
X6.892Y-5.184
X6.892Y-5.736
X6.898Y-5.848
X6.914Y-5.202
T2
X6.012Y-5.776
X6.024Y-5.706
X6.078Y-5.54
X6.194Y-5.688
X6.22Y-5.77
X6.234Y-5.632
X6.38Y-5.376
X6.396Y-5.816
X6.41Y-5.686
X6.456Y-5.754
X6.468Y-5.59
X6.546Y-5.736
X6.5812Y-5.59
X6.6472Y-5.5922
X6.942Y-5.314
T3
X6.9375Y-5.76
X6.9375Y-5.81
X6.9375Y-5.86
T4
X6.504Y-4.956
T0
M30
