G04 #@! TF.FileFunction,Copper,L1,Top,Signal*
%FSLAX46Y46*%
G04 Gerber Fmt 4.6, Leading zero omitted, Abs format (unit mm)*
G04 Created by KiCad (PCBNEW 4.0.7-e2-6376~60~ubuntu17.10.1) date Mon Apr  2 23:18:42 2018*
%MOMM*%
%LPD*%
G01*
G04 APERTURE LIST*
%ADD10C,0.100000*%
%ADD11C,0.400000*%
%ADD12R,0.500000X0.600000*%
%ADD13R,0.600000X0.500000*%
%ADD14R,0.800000X0.800000*%
%ADD15R,0.400000X0.600000*%
%ADD16R,1.000000X1.000000*%
%ADD17O,1.000000X1.000000*%
%ADD18R,0.300000X1.400000*%
%ADD19R,1.600000X2.500000*%
%ADD20R,0.850000X0.450000*%
%ADD21R,0.600000X0.400000*%
%ADD22R,1.000000X2.580000*%
%ADD23R,0.900000X1.700000*%
%ADD24C,1.998980*%
%ADD25R,1.000000X1.250000*%
%ADD26R,0.300000X0.300000*%
%ADD27R,0.550000X0.250000*%
%ADD28R,0.250000X0.550000*%
%ADD29R,1.700000X1.700000*%
%ADD30R,0.800000X1.000000*%
%ADD31C,0.600000*%
%ADD32C,0.254000*%
%ADD33C,0.152400*%
G04 APERTURE END LIST*
D10*
D11*
X153924000Y-141884400D03*
X153263600Y-141782800D03*
X152958800Y-141071600D03*
X152958800Y-148945600D03*
X153873200Y-149047200D03*
X155092400Y-148996400D03*
X156362400Y-148894800D03*
X157480000Y-148894800D03*
X160375600Y-148894800D03*
X158800800Y-148894800D03*
X161391600Y-146913600D03*
X160223200Y-146761200D03*
X167589200Y-136550400D03*
X167132000Y-137820400D03*
X166573200Y-137109200D03*
X166471600Y-135940800D03*
X166370000Y-134772400D03*
X166471600Y-133959600D03*
X167284400Y-135178800D03*
X168452800Y-137414000D03*
X168249600Y-139598400D03*
X172618400Y-135331200D03*
X171348400Y-135077200D03*
X174244000Y-132181600D03*
X172161200Y-130962400D03*
X170738800Y-131622800D03*
X167843200Y-131927600D03*
X167741600Y-130810000D03*
X169722800Y-130454400D03*
X171602400Y-129946400D03*
X170383200Y-128879600D03*
X169113200Y-128879600D03*
X167589200Y-129438400D03*
X167538400Y-128219200D03*
X168605200Y-127406400D03*
X167640000Y-126593600D03*
X174040800Y-130860800D03*
X175056800Y-131673600D03*
X174548800Y-131267200D03*
X175615600Y-132130800D03*
X171907200Y-128981200D03*
X172923200Y-129794000D03*
X172415200Y-129387600D03*
X173482000Y-130251200D03*
X169824400Y-127203200D03*
X170840400Y-128016000D03*
X170332400Y-127609600D03*
X171399200Y-128473200D03*
X169316400Y-126746000D03*
X168757600Y-126288800D03*
X168249600Y-125882400D03*
X166878000Y-127203200D03*
X166979600Y-126644400D03*
X167030400Y-126034800D03*
X167741600Y-125476000D03*
X167030400Y-125476000D03*
X162712400Y-126644400D03*
X162001200Y-126644400D03*
X162153600Y-127609600D03*
X161442400Y-127609600D03*
X160680400Y-128879600D03*
X159969200Y-128879600D03*
X162509200Y-128574800D03*
X161798000Y-128574800D03*
X162763200Y-129590800D03*
X162052000Y-129590800D03*
X161036000Y-129794000D03*
X160324800Y-129794000D03*
X159461200Y-129743200D03*
X158750000Y-129743200D03*
X159410400Y-130606800D03*
X158699200Y-130606800D03*
X160883600Y-130606800D03*
X160172400Y-130606800D03*
X161696400Y-130606800D03*
X162407600Y-130606800D03*
X161391600Y-132638800D03*
X162001200Y-132638800D03*
X162509200Y-132943600D03*
X162864800Y-133502400D03*
X163423600Y-134366000D03*
X164084000Y-134467600D03*
X164033200Y-135178800D03*
X163271200Y-135382000D03*
X163068000Y-136347200D03*
X163220400Y-137058400D03*
X163982400Y-137312400D03*
X163525200Y-138074400D03*
X162966400Y-138684000D03*
X163118800Y-139496800D03*
X163626800Y-139954000D03*
X164185600Y-140157200D03*
X163931600Y-140817600D03*
X162712400Y-141020800D03*
X162306000Y-142544800D03*
X162306000Y-141681200D03*
X162356800Y-140309600D03*
X160375600Y-140004800D03*
X160629600Y-142036800D03*
X160274000Y-138176000D03*
X158445200Y-137972800D03*
X159359600Y-137160000D03*
X159308800Y-135280400D03*
X157480000Y-135432800D03*
X157226000Y-136855200D03*
X157022800Y-138684000D03*
X156870400Y-140309600D03*
X157429200Y-141478000D03*
X156565600Y-141478000D03*
X156006800Y-141071600D03*
X155702000Y-140360400D03*
X155702000Y-139547600D03*
X155702000Y-138734800D03*
X155702000Y-137922000D03*
X155702000Y-137109200D03*
X155702000Y-136448800D03*
X155702000Y-135737600D03*
X155702000Y-135077200D03*
X155651200Y-134467600D03*
X155092400Y-134162800D03*
X154533600Y-134162800D03*
X153822400Y-134162800D03*
X153314400Y-133807200D03*
X154178000Y-132435600D03*
X153771600Y-132791200D03*
X153314400Y-133197600D03*
X155549600Y-131267200D03*
X155143200Y-131622800D03*
X154686000Y-132029200D03*
X156972000Y-130098800D03*
X156565600Y-130454400D03*
X156108400Y-130860800D03*
X158292800Y-128930400D03*
X157886400Y-129286000D03*
X157429200Y-129692400D03*
X159664400Y-127762000D03*
X159258000Y-128117600D03*
X158800800Y-128524000D03*
X160985200Y-126593600D03*
X160578800Y-126949200D03*
X160121600Y-127355600D03*
X161391600Y-126187200D03*
X161848800Y-125780800D03*
X162255200Y-125425200D03*
X162864800Y-125374400D03*
X163322000Y-125679200D03*
X163372800Y-126238000D03*
X163576000Y-126746000D03*
X163169600Y-127203200D03*
X163169600Y-127762000D03*
X163474400Y-128371600D03*
X166268400Y-127406400D03*
X166268400Y-127965200D03*
X166268400Y-128574800D03*
X166268400Y-129133600D03*
X166268400Y-129692400D03*
X166268400Y-130302000D03*
X166268400Y-130911600D03*
X166268400Y-131521200D03*
X163830000Y-131470400D03*
X163017200Y-130352800D03*
X163474400Y-130048000D03*
X163982400Y-130048000D03*
X164134800Y-129540000D03*
X164134800Y-128981200D03*
X164134800Y-128371600D03*
D12*
X174053500Y-147024000D03*
X174053500Y-148124000D03*
X174040800Y-146032400D03*
X174040800Y-144932400D03*
X159004000Y-146558000D03*
X159004000Y-147658000D03*
X163677600Y-145634800D03*
X163677600Y-144534800D03*
D13*
X165205500Y-127635000D03*
X164105500Y-127635000D03*
X165142000Y-130708400D03*
X164042000Y-130708400D03*
D14*
X161823600Y-148996400D03*
X163423600Y-148996400D03*
D15*
X153866000Y-143052800D03*
X152966000Y-143052800D03*
X157472800Y-143052800D03*
X156572800Y-143052800D03*
D16*
X176212500Y-148844000D03*
D17*
X176212500Y-147574000D03*
X176212500Y-146304000D03*
D18*
X167166800Y-144510400D03*
X166666800Y-144510400D03*
X166166800Y-144510400D03*
X165666800Y-144510400D03*
X165166800Y-144510400D03*
X165166800Y-148910400D03*
X165666800Y-148910400D03*
X166166800Y-148910400D03*
X166666800Y-148910400D03*
X167166800Y-148910400D03*
D19*
X155346400Y-146710400D03*
D20*
X153846400Y-145710400D03*
X153846400Y-146710400D03*
X153846400Y-147710400D03*
X156846400Y-147710400D03*
X156846400Y-146710400D03*
X156846400Y-145710400D03*
D13*
X165201600Y-136347200D03*
X164101600Y-136347200D03*
X165091200Y-139039600D03*
X163991200Y-139039600D03*
X167682000Y-140868400D03*
X166582000Y-140868400D03*
D12*
X165303200Y-140022400D03*
X165303200Y-141122400D03*
D21*
X165201600Y-138118000D03*
X165201600Y-137218000D03*
X166573200Y-139946800D03*
X166573200Y-139046800D03*
D15*
X166580400Y-142900400D03*
X167480400Y-142900400D03*
D12*
X163474400Y-142891600D03*
X163474400Y-141791600D03*
D22*
X173059600Y-137716600D03*
X173059600Y-141886600D03*
X171059600Y-137716600D03*
X171059600Y-141886600D03*
D23*
X159815000Y-132715000D03*
X156415000Y-132715000D03*
D24*
X165201600Y-125882400D03*
D15*
X164345200Y-142900400D03*
X165245200Y-142900400D03*
D21*
X168452800Y-142044000D03*
X168452800Y-142944000D03*
D13*
X165201600Y-133604000D03*
X164101600Y-133604000D03*
D25*
X174260000Y-133807200D03*
X176260000Y-133807200D03*
D23*
X172515000Y-132715000D03*
X169115000Y-132715000D03*
D12*
X165201600Y-129725600D03*
X165201600Y-128625600D03*
X165201600Y-132680800D03*
X165201600Y-131580800D03*
D26*
X172054600Y-148381800D03*
D27*
X172139600Y-147866800D03*
X172139600Y-147366800D03*
X172139600Y-146866800D03*
X172139600Y-146366800D03*
D26*
X172054600Y-145851800D03*
D28*
X171039600Y-145766800D03*
X171539600Y-145766800D03*
X170539600Y-145766800D03*
X170039600Y-145766800D03*
D26*
X169524600Y-148381800D03*
D27*
X169439600Y-146366800D03*
X169439600Y-146866800D03*
X169439600Y-147366800D03*
X169439600Y-147866800D03*
D26*
X169524600Y-145851800D03*
D28*
X170039600Y-148466800D03*
X170539600Y-148466800D03*
X171039600Y-148466800D03*
X171539600Y-148466800D03*
D29*
X170789600Y-147116800D03*
D30*
X176276000Y-141751200D03*
X175326000Y-144151200D03*
X177226000Y-144151200D03*
D11*
X162001200Y-137769600D03*
D31*
X154381200Y-140716000D03*
X168838590Y-142041195D03*
X176326800Y-134975600D03*
X157988000Y-146558000D03*
X162814000Y-144424400D03*
X158343600Y-143052800D03*
D11*
X168830610Y-146153326D03*
X173431200Y-134772400D03*
X160629600Y-132842000D03*
X163423600Y-130708400D03*
X163525200Y-133604000D03*
X167894000Y-133451600D03*
X173532800Y-144780000D03*
X170789600Y-147116800D03*
X163474400Y-141274800D03*
X167690800Y-140512800D03*
D31*
X162458400Y-147726400D03*
X163981443Y-146152557D03*
X166268400Y-145694400D03*
X152704800Y-146710400D03*
X162052000Y-136550400D03*
D11*
X167516190Y-147777200D03*
X172784633Y-147863681D03*
D31*
X153009600Y-144932400D03*
X157327600Y-144475200D03*
D11*
X172823002Y-148414759D03*
X165877760Y-147553189D03*
X168830610Y-147370800D03*
X165201600Y-147523200D03*
X173386483Y-146325787D03*
X173352769Y-147182998D03*
X172821600Y-146354800D03*
D31*
X167162190Y-141986000D03*
X164287200Y-141986000D03*
D11*
X170213379Y-143242364D03*
X170238394Y-144099573D03*
X168859200Y-135686800D03*
X169521345Y-135001011D03*
X174974162Y-146342196D03*
X174253574Y-148821790D03*
X175056800Y-145694400D03*
X175209200Y-148539200D03*
X168383242Y-145056210D03*
X169673385Y-143359036D03*
X167922590Y-148698051D03*
X171059600Y-137716600D03*
X169367200Y-138430000D03*
X170738800Y-149250400D03*
X170891200Y-145135600D03*
X171551600Y-143611600D03*
X168351200Y-149301200D03*
X170129200Y-149250400D03*
X170084996Y-145364211D03*
X170207188Y-141993748D03*
X166674800Y-132435600D03*
X163525200Y-132435600D03*
X168830610Y-146812000D03*
X174583857Y-144149491D03*
D32*
X154899401Y-142473399D02*
X154899401Y-141234201D01*
X154899401Y-141234201D02*
X154381200Y-140716000D01*
X167903840Y-145055319D02*
X167903840Y-144826096D01*
X166685357Y-146273802D02*
X167903840Y-145055319D01*
X169016214Y-143713722D02*
X169316400Y-143713722D01*
X165166800Y-144510400D02*
X165166800Y-145464400D01*
X165166800Y-145464400D02*
X165976202Y-146273802D01*
X167903840Y-144826096D02*
X169016214Y-143713722D01*
X165976202Y-146273802D02*
X166685357Y-146273802D01*
D33*
X169891030Y-143812607D02*
X169415285Y-143812607D01*
X170032665Y-143670972D02*
X169891030Y-143812607D01*
X172098602Y-144040202D02*
X171339735Y-144040202D01*
X171339735Y-144040202D02*
X170970505Y-143670972D01*
X174040800Y-146032400D02*
X174040800Y-145982400D01*
X174040800Y-145982400D02*
X172098602Y-144040202D01*
X169415285Y-143812607D02*
X169316400Y-143713722D01*
X170970505Y-143670972D02*
X170032665Y-143670972D01*
D32*
X168838590Y-142414659D02*
X168838590Y-142041195D01*
X169032201Y-143429523D02*
X169032201Y-142608270D01*
X168452800Y-142044000D02*
X168455605Y-142041195D01*
X168455605Y-142041195D02*
X168838590Y-142041195D01*
X169032201Y-142608270D02*
X168838590Y-142414659D01*
X169316400Y-143713722D02*
X169032201Y-143429523D01*
D33*
X173034637Y-146866800D02*
X172567000Y-146866800D01*
X173783897Y-146754397D02*
X173147040Y-146754397D01*
X174053500Y-147024000D02*
X173783897Y-146754397D01*
X173147040Y-146754397D02*
X173034637Y-146866800D01*
X172567000Y-146866800D02*
X172139600Y-146866800D01*
D32*
X176260000Y-133807200D02*
X176260000Y-134908800D01*
X176260000Y-134908800D02*
X176326800Y-134975600D01*
X159004000Y-146558000D02*
X157988000Y-146558000D01*
D33*
X174040800Y-146032400D02*
X174040800Y-147011300D01*
X174040800Y-147011300D02*
X174053500Y-147024000D01*
D32*
X156846400Y-146710400D02*
X157835600Y-146710400D01*
X157835600Y-146710400D02*
X157988000Y-146558000D01*
X157046400Y-146710400D02*
X156846400Y-146710400D01*
X162814000Y-144424400D02*
X163567200Y-144424400D01*
X163567200Y-144424400D02*
X163677600Y-144534800D01*
X157472800Y-143052800D02*
X158343600Y-143052800D01*
X157472800Y-143052800D02*
X157472800Y-142498800D01*
X157472800Y-142498800D02*
X157447399Y-142473399D01*
X157447399Y-142473399D02*
X154899401Y-142473399D01*
X154899401Y-142473399D02*
X154320000Y-143052800D01*
X154320000Y-143052800D02*
X153866000Y-143052800D01*
X165166800Y-144510400D02*
X163702000Y-144510400D01*
X163702000Y-144510400D02*
X163677600Y-144534800D01*
D33*
X168830610Y-146185210D02*
X168830610Y-146153326D01*
X169439600Y-146366800D02*
X169012200Y-146366800D01*
X169012200Y-146366800D02*
X168830610Y-146185210D01*
X174455900Y-148124000D02*
X174053500Y-148124000D01*
X174469302Y-148110598D02*
X174455900Y-148124000D01*
X175479098Y-148110598D02*
X174469302Y-148110598D01*
X176212500Y-148844000D02*
X175479098Y-148110598D01*
X172567000Y-147366800D02*
X172139600Y-147366800D01*
X172893900Y-147366800D02*
X172567000Y-147366800D01*
X173651100Y-148124000D02*
X172893900Y-147366800D01*
X174053500Y-148124000D02*
X173651100Y-148124000D01*
X174260000Y-133807200D02*
X174260000Y-133943600D01*
X174260000Y-133943600D02*
X173431200Y-134772400D01*
X160629600Y-132842000D02*
X159942000Y-132842000D01*
X159942000Y-132842000D02*
X159815000Y-132715000D01*
X164042000Y-130708400D02*
X163423600Y-130708400D01*
X164101600Y-133604000D02*
X163525200Y-133604000D01*
X169115000Y-132715000D02*
X168512600Y-132715000D01*
X168512600Y-132715000D02*
X167894000Y-133333600D01*
X167894000Y-133333600D02*
X167894000Y-133451600D01*
X174040800Y-144932400D02*
X173685200Y-144932400D01*
X173685200Y-144932400D02*
X173532800Y-144780000D01*
X174040800Y-144086400D02*
X174040800Y-144480000D01*
X176276000Y-141751200D02*
X176276000Y-141851200D01*
X176276000Y-141851200D02*
X174040800Y-144086400D01*
X174040800Y-144480000D02*
X174040800Y-144932400D01*
X170789600Y-147116800D02*
X171039600Y-147366800D01*
X171039600Y-147366800D02*
X172139600Y-147366800D01*
X170789600Y-147116800D02*
X170039600Y-146366800D01*
X170039600Y-146366800D02*
X169439600Y-146366800D01*
X163474400Y-141791600D02*
X163474400Y-141274800D01*
X167682000Y-140868400D02*
X167682000Y-140521600D01*
X167682000Y-140521600D02*
X167690800Y-140512800D01*
D32*
X159004000Y-147658000D02*
X162390000Y-147658000D01*
X162390000Y-147658000D02*
X162458400Y-147726400D01*
X161823600Y-148996400D02*
X161823600Y-148361200D01*
X161823600Y-148361200D02*
X162458400Y-147726400D01*
X163677600Y-145634800D02*
X163677600Y-145848714D01*
X163681444Y-145852558D02*
X163981443Y-146152557D01*
X163677600Y-145848714D02*
X163681444Y-145852558D01*
X166666800Y-144510400D02*
X166666800Y-145296000D01*
X166666800Y-145296000D02*
X166268400Y-145694400D01*
X162234599Y-144695799D02*
X162234599Y-143081401D01*
X162619600Y-145080800D02*
X162234599Y-144695799D01*
X162234599Y-143081401D02*
X163474400Y-141841600D01*
X163677600Y-145584800D02*
X163173600Y-145080800D01*
X163677600Y-145634800D02*
X163677600Y-145584800D01*
X163474400Y-141841600D02*
X163474400Y-141791600D01*
X163173600Y-145080800D02*
X162619600Y-145080800D01*
X153846400Y-146710400D02*
X152704800Y-146710400D01*
X164101600Y-136347200D02*
X162255200Y-136347200D01*
X162255200Y-136347200D02*
X162052000Y-136550400D01*
X163991200Y-139039600D02*
X163991200Y-136457600D01*
X163991200Y-136457600D02*
X164101600Y-136347200D01*
X164101600Y-133604000D02*
X164101600Y-134108000D01*
X164101600Y-134108000D02*
X164101600Y-136347200D01*
X164101600Y-133604000D02*
X164101600Y-130768000D01*
X164101600Y-130768000D02*
X164042000Y-130708400D01*
X164105500Y-127635000D02*
X164105500Y-130644900D01*
X164105500Y-130644900D02*
X164042000Y-130708400D01*
X165245200Y-142900400D02*
X165245200Y-141180400D01*
X165245200Y-141180400D02*
X165303200Y-141122400D01*
D33*
X165666800Y-144510400D02*
X165666800Y-143322000D01*
X165666800Y-143322000D02*
X165245200Y-142900400D01*
D32*
X166580400Y-140819200D02*
X166582000Y-140817600D01*
X166582000Y-139955600D02*
X166573200Y-139946800D01*
X166582000Y-140817600D02*
X166582000Y-139955600D01*
X166580400Y-142900400D02*
X166580400Y-140819200D01*
D33*
X166166800Y-144510400D02*
X166166800Y-143314000D01*
X166166800Y-143314000D02*
X166580400Y-142900400D01*
D32*
X163423600Y-148996400D02*
X165080800Y-148996400D01*
X165080800Y-148996400D02*
X165166800Y-148910400D01*
D33*
X167233348Y-147777200D02*
X167516190Y-147777200D01*
X166987600Y-147777200D02*
X167233348Y-147777200D01*
X166936800Y-147828000D02*
X166987600Y-147777200D01*
X172781514Y-147866800D02*
X172784633Y-147863681D01*
X172139600Y-147866800D02*
X172781514Y-147866800D01*
X157751864Y-144475200D02*
X157327600Y-144475200D01*
X160832800Y-144475200D02*
X157751864Y-144475200D01*
X166936800Y-147828000D02*
X165898587Y-146789787D01*
X163147387Y-146789787D02*
X160832800Y-144475200D01*
X165898587Y-146789787D02*
X163147387Y-146789787D01*
X167166800Y-148058000D02*
X166936800Y-147828000D01*
D32*
X152966000Y-143967200D02*
X152966000Y-144475200D01*
X152966000Y-144475200D02*
X152966000Y-145030000D01*
X152966000Y-143052800D02*
X152966000Y-143967200D01*
D33*
X167166800Y-148910400D02*
X167166800Y-148058000D01*
D32*
X152966000Y-145030000D02*
X153646400Y-145710400D01*
X153646400Y-145710400D02*
X153846400Y-145710400D01*
D33*
X172790043Y-148381800D02*
X172823002Y-148414759D01*
X172054600Y-148381800D02*
X172790043Y-148381800D01*
X166436800Y-147828000D02*
X165703398Y-147094598D01*
X161636934Y-145710400D02*
X157423800Y-145710400D01*
X157423800Y-145710400D02*
X156846400Y-145710400D01*
X163021132Y-147094598D02*
X161636934Y-145710400D01*
X165703398Y-147094598D02*
X163021132Y-147094598D01*
X166160602Y-147553189D02*
X165877760Y-147553189D01*
X166161989Y-147553189D02*
X166160602Y-147553189D01*
X166436800Y-147828000D02*
X166161989Y-147553189D01*
X166666800Y-148058000D02*
X166436800Y-147828000D01*
X166666800Y-148910400D02*
X166666800Y-148058000D01*
D32*
X156572800Y-143052800D02*
X156572800Y-145436800D01*
X156572800Y-145436800D02*
X156846400Y-145710400D01*
D33*
X169145999Y-148048919D02*
X169328118Y-147866800D01*
X169145999Y-149140731D02*
X169145999Y-148048919D01*
X168447729Y-149839001D02*
X169145999Y-149140731D01*
X169328118Y-147866800D02*
X169439600Y-147866800D01*
X165743001Y-149839001D02*
X168447729Y-149839001D01*
X165666800Y-148910400D02*
X165666800Y-149762800D01*
X165666800Y-149762800D02*
X165743001Y-149839001D01*
X169439600Y-147366800D02*
X168834610Y-147366800D01*
X168834610Y-147366800D02*
X168830610Y-147370800D01*
X166090599Y-147981799D02*
X165660199Y-147981799D01*
X165660199Y-147981799D02*
X165201600Y-147523200D01*
X166166800Y-148910400D02*
X166166800Y-148058000D01*
X166166800Y-148058000D02*
X166090599Y-147981799D01*
X172054600Y-145851800D02*
X173195338Y-145851800D01*
X173195338Y-145851800D02*
X173386483Y-146042945D01*
X176212500Y-147574000D02*
X173703022Y-147574000D01*
X173703022Y-147574000D02*
X173552768Y-147423746D01*
X173552768Y-147382997D02*
X173352769Y-147182998D01*
X173386483Y-146042945D02*
X173386483Y-146325787D01*
X173552768Y-147423746D02*
X173552768Y-147382997D01*
X172809600Y-146366800D02*
X172821600Y-146354800D01*
X172139600Y-146366800D02*
X172809600Y-146366800D01*
D32*
X165201600Y-131580800D02*
X165201600Y-130768000D01*
X165201600Y-130768000D02*
X165142000Y-130708400D01*
X165201600Y-129725600D02*
X165201600Y-130648800D01*
X165201600Y-130648800D02*
X165142000Y-130708400D01*
X165205500Y-127635000D02*
X165205500Y-128621700D01*
X165205500Y-128621700D02*
X165201600Y-128625600D01*
X165205500Y-127635000D02*
X165205500Y-125886300D01*
X165205500Y-125886300D02*
X165201600Y-125882400D01*
X165201600Y-136347200D02*
X165201600Y-133604000D01*
X165201600Y-133604000D02*
X165201600Y-132680800D01*
X165201600Y-138118000D02*
X165201600Y-138929200D01*
X165201600Y-138929200D02*
X165091200Y-139039600D01*
X165303200Y-140022400D02*
X165303200Y-139251600D01*
X165303200Y-139251600D02*
X165091200Y-139039600D01*
X166573200Y-139046800D02*
X165098400Y-139046800D01*
X165098400Y-139046800D02*
X165091200Y-139039600D01*
X167462189Y-142285999D02*
X167162190Y-141986000D01*
X167480400Y-142304210D02*
X167462189Y-142285999D01*
X167480400Y-142900400D02*
X167480400Y-142304210D01*
X164287200Y-141986000D02*
X164287200Y-142842400D01*
X164287200Y-142842400D02*
X164345200Y-142900400D01*
X163483200Y-142900400D02*
X163474400Y-142891600D01*
X164329200Y-142884400D02*
X164345200Y-142900400D01*
X168452800Y-142944000D02*
X167524000Y-142944000D01*
X167524000Y-142944000D02*
X167480400Y-142900400D01*
X164345200Y-142900400D02*
X163483200Y-142900400D01*
X167480400Y-142900400D02*
X167589200Y-142900400D01*
D33*
X170213379Y-142959522D02*
X170213379Y-143242364D01*
X170213379Y-142655049D02*
X170213379Y-142959522D01*
X168859200Y-135686800D02*
X169846602Y-136674202D01*
X169776129Y-142217799D02*
X170213379Y-142655049D01*
X169776129Y-138706203D02*
X169776129Y-142217799D01*
X169846602Y-138635730D02*
X169776129Y-138706203D01*
X171539600Y-145117937D02*
X170521236Y-144099573D01*
X170521236Y-144099573D02*
X170238394Y-144099573D01*
X169846602Y-136674202D02*
X169846602Y-138635730D01*
X171539600Y-145766800D02*
X171539600Y-145117937D01*
X169721344Y-134801012D02*
X169521345Y-135001011D01*
X171807356Y-132715000D02*
X169721344Y-134801012D01*
X172515000Y-132715000D02*
X171807356Y-132715000D01*
X177209412Y-142560337D02*
X176580801Y-143188947D01*
X175339875Y-146142197D02*
X175174161Y-146142197D01*
X173983949Y-137716600D02*
X177209412Y-140942063D01*
X175174161Y-146142197D02*
X174974162Y-146342196D01*
X173059600Y-137716600D02*
X173983949Y-137716600D01*
X176580801Y-144901271D02*
X175339875Y-146142197D01*
X176580801Y-143188947D02*
X176580801Y-144901271D01*
X177209412Y-140942063D02*
X177209412Y-142560337D01*
X174181164Y-148894200D02*
X174253574Y-148821790D01*
X171539600Y-148466800D02*
X171539600Y-148616800D01*
X171539600Y-148616800D02*
X171817000Y-148894200D01*
X171817000Y-148894200D02*
X174181164Y-148894200D01*
X175056800Y-145694400D02*
X175954601Y-144796599D01*
X175954601Y-144796599D02*
X175954601Y-143384081D01*
X175954601Y-143384081D02*
X176904601Y-142434081D01*
X176904601Y-142434081D02*
X176904601Y-141068319D01*
X176904601Y-141068319D02*
X176858881Y-141022599D01*
X176858881Y-141022599D02*
X174576001Y-141022599D01*
X174576001Y-141022599D02*
X173712000Y-141886600D01*
X173712000Y-141886600D02*
X173059600Y-141886600D01*
X174611694Y-149098000D02*
X174650400Y-149098000D01*
X174650400Y-149098000D02*
X175209200Y-148539200D01*
X171039600Y-148466800D02*
X171039600Y-148894200D01*
X171039600Y-148894200D02*
X171395791Y-149250391D01*
X171395791Y-149250391D02*
X174459303Y-149250391D01*
X174459303Y-149250391D02*
X174611694Y-149098000D01*
X167922590Y-148415209D02*
X167973390Y-148364409D01*
X167973390Y-148364409D02*
X167973390Y-145618462D01*
X167973390Y-145618462D02*
X168383242Y-145208610D01*
X167922590Y-148698051D02*
X167922590Y-148415209D01*
X168383242Y-145208610D02*
X168383242Y-145056210D01*
X169367200Y-138430000D02*
X169367200Y-142352569D01*
X169673385Y-143076194D02*
X169673385Y-143359036D01*
X169673385Y-142658754D02*
X169673385Y-143076194D01*
X169367200Y-142352569D02*
X169673385Y-142658754D01*
X170539600Y-148466800D02*
X170539600Y-149051200D01*
X170539600Y-149051200D02*
X170738800Y-149250400D01*
X170691201Y-144935601D02*
X169109999Y-144935601D01*
X169109999Y-144935601D02*
X168351200Y-145694400D01*
X170891200Y-145135600D02*
X170691201Y-144935601D01*
X171059600Y-141886600D02*
X171059600Y-143329000D01*
X171059600Y-143329000D02*
X171342200Y-143611600D01*
X171342200Y-143611600D02*
X171551600Y-143611600D01*
X168351200Y-149301200D02*
X168351200Y-149018358D01*
X168351200Y-149018358D02*
X168351200Y-145694400D01*
X170039600Y-148466800D02*
X170039600Y-149160800D01*
X170039600Y-149160800D02*
X170129200Y-149250400D01*
X170039600Y-145766800D02*
X170084996Y-145721404D01*
X170084996Y-145721404D02*
X170084996Y-145647053D01*
X170084996Y-145647053D02*
X170084996Y-145364211D01*
X166674800Y-132892800D02*
X170207188Y-136425188D01*
X166674800Y-132435600D02*
X166674800Y-132892800D01*
X170207188Y-141710906D02*
X170207188Y-141993748D01*
X170207188Y-136425188D02*
X170207188Y-141710906D01*
X157429200Y-132435600D02*
X158228401Y-131636399D01*
X158228401Y-131636399D02*
X162725999Y-131636399D01*
X162725999Y-131636399D02*
X163525200Y-132435600D01*
X157429200Y-132435600D02*
X156694400Y-132435600D01*
X156694400Y-132435600D02*
X156415000Y-132715000D01*
X168885410Y-146866800D02*
X168830610Y-146812000D01*
X169439600Y-146866800D02*
X168885410Y-146866800D01*
X174585566Y-144151200D02*
X174583857Y-144149491D01*
X175326000Y-144151200D02*
X174585566Y-144151200D01*
X169524600Y-148684200D02*
X169524600Y-148381800D01*
X169524600Y-149280132D02*
X169524600Y-148684200D01*
X169923470Y-149679002D02*
X169524600Y-149280132D01*
X177226000Y-149241982D02*
X176788980Y-149679002D01*
X176788980Y-149679002D02*
X169923470Y-149679002D01*
X177226000Y-144151200D02*
X177226000Y-149241982D01*
D32*
G36*
X152773960Y-145915590D02*
X152773960Y-145935400D01*
X152818238Y-146170717D01*
X152957310Y-146386841D01*
X153169510Y-146531831D01*
X153421400Y-146582840D01*
X153898960Y-146582840D01*
X153898960Y-146837960D01*
X153421400Y-146837960D01*
X153186083Y-146882238D01*
X152969959Y-147021310D01*
X152824969Y-147233510D01*
X152773960Y-147485400D01*
X152773960Y-147935400D01*
X152818238Y-148170717D01*
X152957310Y-148386841D01*
X153169510Y-148531831D01*
X153421400Y-148582840D01*
X154271400Y-148582840D01*
X154349955Y-148568059D01*
X154546400Y-148607840D01*
X156146400Y-148607840D01*
X156352941Y-148568977D01*
X156421400Y-148582840D01*
X157271400Y-148582840D01*
X157506717Y-148538562D01*
X157722841Y-148399490D01*
X157867831Y-148187290D01*
X157918840Y-147935400D01*
X157918840Y-147492940D01*
X158173167Y-147493162D01*
X158413475Y-147393869D01*
X158502110Y-147454431D01*
X158754000Y-147505440D01*
X159254000Y-147505440D01*
X159489317Y-147461162D01*
X159705441Y-147322090D01*
X159850431Y-147109890D01*
X159901440Y-146858000D01*
X159901440Y-146421600D01*
X161342346Y-146421600D01*
X162518238Y-147597493D01*
X162740960Y-147746310D01*
X162748968Y-147751661D01*
X163021132Y-147805798D01*
X164414895Y-147805798D01*
X164456279Y-147905954D01*
X164420369Y-147958510D01*
X164369360Y-148210400D01*
X164369360Y-148234400D01*
X164345244Y-148234400D01*
X164287690Y-148144959D01*
X164075490Y-147999969D01*
X163823600Y-147948960D01*
X163023600Y-147948960D01*
X162788283Y-147993238D01*
X162572159Y-148132310D01*
X162427169Y-148344510D01*
X162376160Y-148596400D01*
X162376160Y-149290000D01*
X152710000Y-149290000D01*
X152710000Y-145851630D01*
X152773960Y-145915590D01*
X152773960Y-145915590D01*
G37*
X152773960Y-145915590D02*
X152773960Y-145935400D01*
X152818238Y-146170717D01*
X152957310Y-146386841D01*
X153169510Y-146531831D01*
X153421400Y-146582840D01*
X153898960Y-146582840D01*
X153898960Y-146837960D01*
X153421400Y-146837960D01*
X153186083Y-146882238D01*
X152969959Y-147021310D01*
X152824969Y-147233510D01*
X152773960Y-147485400D01*
X152773960Y-147935400D01*
X152818238Y-148170717D01*
X152957310Y-148386841D01*
X153169510Y-148531831D01*
X153421400Y-148582840D01*
X154271400Y-148582840D01*
X154349955Y-148568059D01*
X154546400Y-148607840D01*
X156146400Y-148607840D01*
X156352941Y-148568977D01*
X156421400Y-148582840D01*
X157271400Y-148582840D01*
X157506717Y-148538562D01*
X157722841Y-148399490D01*
X157867831Y-148187290D01*
X157918840Y-147935400D01*
X157918840Y-147492940D01*
X158173167Y-147493162D01*
X158413475Y-147393869D01*
X158502110Y-147454431D01*
X158754000Y-147505440D01*
X159254000Y-147505440D01*
X159489317Y-147461162D01*
X159705441Y-147322090D01*
X159850431Y-147109890D01*
X159901440Y-146858000D01*
X159901440Y-146421600D01*
X161342346Y-146421600D01*
X162518238Y-147597493D01*
X162740960Y-147746310D01*
X162748968Y-147751661D01*
X163021132Y-147805798D01*
X164414895Y-147805798D01*
X164456279Y-147905954D01*
X164420369Y-147958510D01*
X164369360Y-148210400D01*
X164369360Y-148234400D01*
X164345244Y-148234400D01*
X164287690Y-148144959D01*
X164075490Y-147999969D01*
X163823600Y-147948960D01*
X163023600Y-147948960D01*
X162788283Y-147993238D01*
X162572159Y-148132310D01*
X162427169Y-148344510D01*
X162376160Y-148596400D01*
X162376160Y-149290000D01*
X152710000Y-149290000D01*
X152710000Y-145851630D01*
X152773960Y-145915590D01*
G36*
X176514800Y-148947393D02*
X176494392Y-148967802D01*
X175935354Y-148967802D01*
X176044055Y-148706021D01*
X176044078Y-148679922D01*
X176190264Y-148709000D01*
X176234736Y-148709000D01*
X176514800Y-148653292D01*
X176514800Y-148947393D01*
X176514800Y-148947393D01*
G37*
X176514800Y-148947393D02*
X176494392Y-148967802D01*
X175935354Y-148967802D01*
X176044055Y-148706021D01*
X176044078Y-148679922D01*
X176190264Y-148709000D01*
X176234736Y-148709000D01*
X176514800Y-148653292D01*
X176514800Y-148947393D01*
G36*
X170914600Y-146689240D02*
X171164600Y-146689240D01*
X171230307Y-146676876D01*
X171217160Y-146741800D01*
X171217160Y-146991800D01*
X171261438Y-147227117D01*
X171351790Y-147367527D01*
X171268169Y-147489910D01*
X171253497Y-147562362D01*
X171164600Y-147544360D01*
X170914600Y-147544360D01*
X170785011Y-147568744D01*
X170664600Y-147544360D01*
X170414600Y-147544360D01*
X170348893Y-147556724D01*
X170362040Y-147491800D01*
X170362040Y-147241800D01*
X170337656Y-147112211D01*
X170362040Y-146991800D01*
X170362040Y-146741800D01*
X170349676Y-146676093D01*
X170414600Y-146689240D01*
X170664600Y-146689240D01*
X170794189Y-146664856D01*
X170914600Y-146689240D01*
X170914600Y-146689240D01*
G37*
X170914600Y-146689240D02*
X171164600Y-146689240D01*
X171230307Y-146676876D01*
X171217160Y-146741800D01*
X171217160Y-146991800D01*
X171261438Y-147227117D01*
X171351790Y-147367527D01*
X171268169Y-147489910D01*
X171253497Y-147562362D01*
X171164600Y-147544360D01*
X170914600Y-147544360D01*
X170785011Y-147568744D01*
X170664600Y-147544360D01*
X170414600Y-147544360D01*
X170348893Y-147556724D01*
X170362040Y-147491800D01*
X170362040Y-147241800D01*
X170337656Y-147112211D01*
X170362040Y-146991800D01*
X170362040Y-146741800D01*
X170349676Y-146676093D01*
X170414600Y-146689240D01*
X170664600Y-146689240D01*
X170794189Y-146664856D01*
X170914600Y-146689240D01*
G36*
X164404800Y-145398747D02*
X164404800Y-145464400D01*
X164462804Y-145756005D01*
X164582672Y-145935400D01*
X164627985Y-146003215D01*
X164703357Y-146078587D01*
X163441976Y-146078587D01*
X162722710Y-145359321D01*
X162999167Y-145359562D01*
X163043818Y-145341113D01*
X163175710Y-145431231D01*
X163427600Y-145482240D01*
X163927600Y-145482240D01*
X164162917Y-145437962D01*
X164379041Y-145298890D01*
X164384506Y-145290892D01*
X164404800Y-145398747D01*
X164404800Y-145398747D01*
G37*
X164404800Y-145398747D02*
X164404800Y-145464400D01*
X164462804Y-145756005D01*
X164582672Y-145935400D01*
X164627985Y-146003215D01*
X164703357Y-146078587D01*
X163441976Y-146078587D01*
X162722710Y-145359321D01*
X162999167Y-145359562D01*
X163043818Y-145341113D01*
X163175710Y-145431231D01*
X163427600Y-145482240D01*
X163927600Y-145482240D01*
X164162917Y-145437962D01*
X164379041Y-145298890D01*
X164384506Y-145290892D01*
X164404800Y-145398747D01*
G36*
X173749002Y-143982670D02*
X173748712Y-144314854D01*
X173875565Y-144621863D01*
X174110250Y-144856957D01*
X174374396Y-144966640D01*
X174461910Y-145102641D01*
X174465342Y-145104986D01*
X174452584Y-145117722D01*
X174290800Y-145084960D01*
X174149149Y-145084960D01*
X172888228Y-143824040D01*
X173559600Y-143824040D01*
X173794917Y-143779762D01*
X173847237Y-143746095D01*
X173749002Y-143982670D01*
X173749002Y-143982670D01*
G37*
X173749002Y-143982670D02*
X173748712Y-144314854D01*
X173875565Y-144621863D01*
X174110250Y-144856957D01*
X174374396Y-144966640D01*
X174461910Y-145102641D01*
X174465342Y-145104986D01*
X174452584Y-145117722D01*
X174290800Y-145084960D01*
X174149149Y-145084960D01*
X172888228Y-143824040D01*
X173559600Y-143824040D01*
X173794917Y-143779762D01*
X173847237Y-143746095D01*
X173749002Y-143982670D01*
G36*
X163567394Y-125555853D02*
X163566826Y-126206094D01*
X163815138Y-126807055D01*
X164274527Y-127267246D01*
X164281333Y-127270072D01*
X164258060Y-127385000D01*
X164258060Y-127885000D01*
X164302338Y-128120317D01*
X164335344Y-128171610D01*
X164304160Y-128325600D01*
X164304160Y-128925600D01*
X164348438Y-129160917D01*
X164355942Y-129172579D01*
X164355169Y-129173710D01*
X164304160Y-129425600D01*
X164304160Y-130025600D01*
X164318199Y-130100212D01*
X164245569Y-130206510D01*
X164194560Y-130458400D01*
X164194560Y-130958400D01*
X164238838Y-131193717D01*
X164304160Y-131295230D01*
X164304160Y-131880800D01*
X164348438Y-132116117D01*
X164355942Y-132127779D01*
X164355169Y-132128910D01*
X164337665Y-132215347D01*
X164233492Y-131963228D01*
X163998807Y-131728134D01*
X163699053Y-131603665D01*
X163228893Y-131133505D01*
X162998164Y-130979336D01*
X162725999Y-130925199D01*
X158228401Y-130925199D01*
X157956236Y-130979336D01*
X157725507Y-131133505D01*
X157374650Y-131484362D01*
X157329090Y-131413559D01*
X157116890Y-131268569D01*
X156865000Y-131217560D01*
X155965000Y-131217560D01*
X155729683Y-131261838D01*
X155513559Y-131400910D01*
X155368569Y-131613110D01*
X155317560Y-131865000D01*
X155317560Y-133565000D01*
X155361838Y-133800317D01*
X155500910Y-134016441D01*
X155713110Y-134161431D01*
X155965000Y-134212440D01*
X156865000Y-134212440D01*
X157100317Y-134168162D01*
X157316441Y-134029090D01*
X157461431Y-133816890D01*
X157512440Y-133565000D01*
X157512440Y-133130243D01*
X157701365Y-133092663D01*
X157932094Y-132938494D01*
X158522989Y-132347599D01*
X162431411Y-132347599D01*
X162693773Y-132609961D01*
X162816908Y-132907972D01*
X163051593Y-133143066D01*
X163358379Y-133270455D01*
X163690563Y-133270745D01*
X163997572Y-133143892D01*
X164232666Y-132909207D01*
X164304160Y-132737031D01*
X164304160Y-132980800D01*
X164322275Y-133077074D01*
X164305169Y-133102110D01*
X164254160Y-133354000D01*
X164254160Y-133854000D01*
X164298438Y-134089317D01*
X164437510Y-134305441D01*
X164439600Y-134306869D01*
X164439600Y-135648564D01*
X164305169Y-135845310D01*
X164254160Y-136097200D01*
X164254160Y-136597200D01*
X164295203Y-136815324D01*
X164254160Y-137018000D01*
X164254160Y-137418000D01*
X164298438Y-137653317D01*
X164305942Y-137664979D01*
X164305169Y-137666110D01*
X164254160Y-137918000D01*
X164254160Y-138318000D01*
X164273751Y-138422116D01*
X164194769Y-138537710D01*
X164143760Y-138789600D01*
X164143760Y-139289600D01*
X164188038Y-139524917D01*
X164327110Y-139741041D01*
X164405760Y-139794780D01*
X164405760Y-140322400D01*
X164450038Y-140557717D01*
X164457542Y-140569379D01*
X164456769Y-140570510D01*
X164405760Y-140822400D01*
X164405760Y-141051103D01*
X164102033Y-141050838D01*
X163758257Y-141192883D01*
X163495008Y-141455673D01*
X163352362Y-141799201D01*
X163352236Y-141944160D01*
X163224400Y-141944160D01*
X162989083Y-141988438D01*
X162772959Y-142127510D01*
X162627969Y-142339710D01*
X162576960Y-142591600D01*
X162576960Y-143191600D01*
X162621238Y-143426917D01*
X162661359Y-143489266D01*
X162628833Y-143489238D01*
X162285057Y-143631283D01*
X162021808Y-143894073D01*
X161879162Y-144237601D01*
X161878920Y-144515532D01*
X161335694Y-143972306D01*
X161104965Y-143818137D01*
X160832800Y-143764000D01*
X158954603Y-143764000D01*
X159135792Y-143583127D01*
X159278438Y-143239599D01*
X159278762Y-142867633D01*
X159136717Y-142523857D01*
X158873927Y-142260608D01*
X158530399Y-142117962D01*
X158158433Y-142117638D01*
X158125930Y-142131068D01*
X158011615Y-141959984D01*
X157986214Y-141934584D01*
X157914236Y-141886490D01*
X157739004Y-141769403D01*
X157447399Y-141711399D01*
X155661401Y-141711399D01*
X155661401Y-141234201D01*
X155603397Y-140942596D01*
X155438216Y-140695386D01*
X155316325Y-140573495D01*
X155316362Y-140530833D01*
X155174317Y-140187057D01*
X154911527Y-139923808D01*
X154567999Y-139781162D01*
X154196033Y-139780838D01*
X153852257Y-139922883D01*
X153589008Y-140185673D01*
X153446362Y-140529201D01*
X153446038Y-140901167D01*
X153588083Y-141244943D01*
X153850873Y-141508192D01*
X154137401Y-141627169D01*
X154137401Y-142119819D01*
X154066000Y-142105360D01*
X153666000Y-142105360D01*
X153430683Y-142149638D01*
X153419021Y-142157142D01*
X153417890Y-142156369D01*
X153166000Y-142105360D01*
X152766000Y-142105360D01*
X152710000Y-142115897D01*
X152710000Y-133328333D01*
X162260980Y-125210000D01*
X163711005Y-125210000D01*
X163567394Y-125555853D01*
X163567394Y-125555853D01*
G37*
X163567394Y-125555853D02*
X163566826Y-126206094D01*
X163815138Y-126807055D01*
X164274527Y-127267246D01*
X164281333Y-127270072D01*
X164258060Y-127385000D01*
X164258060Y-127885000D01*
X164302338Y-128120317D01*
X164335344Y-128171610D01*
X164304160Y-128325600D01*
X164304160Y-128925600D01*
X164348438Y-129160917D01*
X164355942Y-129172579D01*
X164355169Y-129173710D01*
X164304160Y-129425600D01*
X164304160Y-130025600D01*
X164318199Y-130100212D01*
X164245569Y-130206510D01*
X164194560Y-130458400D01*
X164194560Y-130958400D01*
X164238838Y-131193717D01*
X164304160Y-131295230D01*
X164304160Y-131880800D01*
X164348438Y-132116117D01*
X164355942Y-132127779D01*
X164355169Y-132128910D01*
X164337665Y-132215347D01*
X164233492Y-131963228D01*
X163998807Y-131728134D01*
X163699053Y-131603665D01*
X163228893Y-131133505D01*
X162998164Y-130979336D01*
X162725999Y-130925199D01*
X158228401Y-130925199D01*
X157956236Y-130979336D01*
X157725507Y-131133505D01*
X157374650Y-131484362D01*
X157329090Y-131413559D01*
X157116890Y-131268569D01*
X156865000Y-131217560D01*
X155965000Y-131217560D01*
X155729683Y-131261838D01*
X155513559Y-131400910D01*
X155368569Y-131613110D01*
X155317560Y-131865000D01*
X155317560Y-133565000D01*
X155361838Y-133800317D01*
X155500910Y-134016441D01*
X155713110Y-134161431D01*
X155965000Y-134212440D01*
X156865000Y-134212440D01*
X157100317Y-134168162D01*
X157316441Y-134029090D01*
X157461431Y-133816890D01*
X157512440Y-133565000D01*
X157512440Y-133130243D01*
X157701365Y-133092663D01*
X157932094Y-132938494D01*
X158522989Y-132347599D01*
X162431411Y-132347599D01*
X162693773Y-132609961D01*
X162816908Y-132907972D01*
X163051593Y-133143066D01*
X163358379Y-133270455D01*
X163690563Y-133270745D01*
X163997572Y-133143892D01*
X164232666Y-132909207D01*
X164304160Y-132737031D01*
X164304160Y-132980800D01*
X164322275Y-133077074D01*
X164305169Y-133102110D01*
X164254160Y-133354000D01*
X164254160Y-133854000D01*
X164298438Y-134089317D01*
X164437510Y-134305441D01*
X164439600Y-134306869D01*
X164439600Y-135648564D01*
X164305169Y-135845310D01*
X164254160Y-136097200D01*
X164254160Y-136597200D01*
X164295203Y-136815324D01*
X164254160Y-137018000D01*
X164254160Y-137418000D01*
X164298438Y-137653317D01*
X164305942Y-137664979D01*
X164305169Y-137666110D01*
X164254160Y-137918000D01*
X164254160Y-138318000D01*
X164273751Y-138422116D01*
X164194769Y-138537710D01*
X164143760Y-138789600D01*
X164143760Y-139289600D01*
X164188038Y-139524917D01*
X164327110Y-139741041D01*
X164405760Y-139794780D01*
X164405760Y-140322400D01*
X164450038Y-140557717D01*
X164457542Y-140569379D01*
X164456769Y-140570510D01*
X164405760Y-140822400D01*
X164405760Y-141051103D01*
X164102033Y-141050838D01*
X163758257Y-141192883D01*
X163495008Y-141455673D01*
X163352362Y-141799201D01*
X163352236Y-141944160D01*
X163224400Y-141944160D01*
X162989083Y-141988438D01*
X162772959Y-142127510D01*
X162627969Y-142339710D01*
X162576960Y-142591600D01*
X162576960Y-143191600D01*
X162621238Y-143426917D01*
X162661359Y-143489266D01*
X162628833Y-143489238D01*
X162285057Y-143631283D01*
X162021808Y-143894073D01*
X161879162Y-144237601D01*
X161878920Y-144515532D01*
X161335694Y-143972306D01*
X161104965Y-143818137D01*
X160832800Y-143764000D01*
X158954603Y-143764000D01*
X159135792Y-143583127D01*
X159278438Y-143239599D01*
X159278762Y-142867633D01*
X159136717Y-142523857D01*
X158873927Y-142260608D01*
X158530399Y-142117962D01*
X158158433Y-142117638D01*
X158125930Y-142131068D01*
X158011615Y-141959984D01*
X157986214Y-141934584D01*
X157914236Y-141886490D01*
X157739004Y-141769403D01*
X157447399Y-141711399D01*
X155661401Y-141711399D01*
X155661401Y-141234201D01*
X155603397Y-140942596D01*
X155438216Y-140695386D01*
X155316325Y-140573495D01*
X155316362Y-140530833D01*
X155174317Y-140187057D01*
X154911527Y-139923808D01*
X154567999Y-139781162D01*
X154196033Y-139780838D01*
X153852257Y-139922883D01*
X153589008Y-140185673D01*
X153446362Y-140529201D01*
X153446038Y-140901167D01*
X153588083Y-141244943D01*
X153850873Y-141508192D01*
X154137401Y-141627169D01*
X154137401Y-142119819D01*
X154066000Y-142105360D01*
X153666000Y-142105360D01*
X153430683Y-142149638D01*
X153419021Y-142157142D01*
X153417890Y-142156369D01*
X153166000Y-142105360D01*
X152766000Y-142105360D01*
X152710000Y-142115897D01*
X152710000Y-133328333D01*
X162260980Y-125210000D01*
X163711005Y-125210000D01*
X163567394Y-125555853D01*
G36*
X166171906Y-133395694D02*
X168104106Y-135327894D01*
X168024345Y-135519979D01*
X168024055Y-135852163D01*
X168150908Y-136159172D01*
X168385593Y-136394266D01*
X168685347Y-136518735D01*
X169135402Y-136968791D01*
X169135402Y-137622305D01*
X168894828Y-137721708D01*
X168659734Y-137956393D01*
X168532345Y-138263179D01*
X168532055Y-138595363D01*
X168656000Y-138895334D01*
X168656000Y-141106035D01*
X168653423Y-141106033D01*
X168434330Y-141196560D01*
X168152800Y-141196560D01*
X167917483Y-141240838D01*
X167809091Y-141310586D01*
X167692517Y-141193808D01*
X167528003Y-141125496D01*
X167529440Y-141118400D01*
X167529440Y-140618400D01*
X167485162Y-140383083D01*
X167475753Y-140368460D01*
X167520640Y-140146800D01*
X167520640Y-139746800D01*
X167476362Y-139511483D01*
X167468858Y-139499821D01*
X167469631Y-139498690D01*
X167520640Y-139246800D01*
X167520640Y-138846800D01*
X167476362Y-138611483D01*
X167337290Y-138395359D01*
X167125090Y-138250369D01*
X166873200Y-138199360D01*
X166273200Y-138199360D01*
X166149040Y-138222722D01*
X166149040Y-137918000D01*
X166104762Y-137682683D01*
X166097258Y-137671021D01*
X166098031Y-137669890D01*
X166149040Y-137418000D01*
X166149040Y-137018000D01*
X166107997Y-136799876D01*
X166149040Y-136597200D01*
X166149040Y-136097200D01*
X166104762Y-135861883D01*
X165965690Y-135645759D01*
X165963600Y-135644331D01*
X165963600Y-134302636D01*
X166098031Y-134105890D01*
X166149040Y-133854000D01*
X166149040Y-133361473D01*
X166171906Y-133395694D01*
X166171906Y-133395694D01*
G37*
X166171906Y-133395694D02*
X168104106Y-135327894D01*
X168024345Y-135519979D01*
X168024055Y-135852163D01*
X168150908Y-136159172D01*
X168385593Y-136394266D01*
X168685347Y-136518735D01*
X169135402Y-136968791D01*
X169135402Y-137622305D01*
X168894828Y-137721708D01*
X168659734Y-137956393D01*
X168532345Y-138263179D01*
X168532055Y-138595363D01*
X168656000Y-138895334D01*
X168656000Y-141106035D01*
X168653423Y-141106033D01*
X168434330Y-141196560D01*
X168152800Y-141196560D01*
X167917483Y-141240838D01*
X167809091Y-141310586D01*
X167692517Y-141193808D01*
X167528003Y-141125496D01*
X167529440Y-141118400D01*
X167529440Y-140618400D01*
X167485162Y-140383083D01*
X167475753Y-140368460D01*
X167520640Y-140146800D01*
X167520640Y-139746800D01*
X167476362Y-139511483D01*
X167468858Y-139499821D01*
X167469631Y-139498690D01*
X167520640Y-139246800D01*
X167520640Y-138846800D01*
X167476362Y-138611483D01*
X167337290Y-138395359D01*
X167125090Y-138250369D01*
X166873200Y-138199360D01*
X166273200Y-138199360D01*
X166149040Y-138222722D01*
X166149040Y-137918000D01*
X166104762Y-137682683D01*
X166097258Y-137671021D01*
X166098031Y-137669890D01*
X166149040Y-137418000D01*
X166149040Y-137018000D01*
X166107997Y-136799876D01*
X166149040Y-136597200D01*
X166149040Y-136097200D01*
X166104762Y-135861883D01*
X165965690Y-135645759D01*
X165963600Y-135644331D01*
X165963600Y-134302636D01*
X166098031Y-134105890D01*
X166149040Y-133854000D01*
X166149040Y-133361473D01*
X166171906Y-133395694D01*
G36*
X176356385Y-132534760D02*
X175760000Y-132534760D01*
X175524683Y-132579038D01*
X175308559Y-132718110D01*
X175163569Y-132930310D01*
X175112560Y-133182200D01*
X175112560Y-134432200D01*
X175156838Y-134667517D01*
X175295910Y-134883641D01*
X175391822Y-134949175D01*
X175391638Y-135160767D01*
X175533683Y-135504543D01*
X175796473Y-135767792D01*
X176140001Y-135910438D01*
X176511967Y-135910762D01*
X176855743Y-135768717D01*
X177118992Y-135505927D01*
X177261638Y-135162399D01*
X177261934Y-134822391D01*
X177290000Y-134781315D01*
X177290000Y-140016862D01*
X174486843Y-137213706D01*
X174256114Y-137059537D01*
X174207040Y-137049776D01*
X174207040Y-136426600D01*
X174162762Y-136191283D01*
X174023690Y-135975159D01*
X173811490Y-135830169D01*
X173559600Y-135779160D01*
X172559600Y-135779160D01*
X172324283Y-135823438D01*
X172108159Y-135962510D01*
X172060466Y-136032311D01*
X172023690Y-135975159D01*
X171811490Y-135830169D01*
X171559600Y-135779160D01*
X170566948Y-135779160D01*
X170238668Y-135450880D01*
X170353280Y-135174864D01*
X171565983Y-133962162D01*
X171600910Y-134016441D01*
X171813110Y-134161431D01*
X172065000Y-134212440D01*
X172965000Y-134212440D01*
X173200317Y-134168162D01*
X173416441Y-134029090D01*
X173561431Y-133816890D01*
X173612440Y-133565000D01*
X173612440Y-131865000D01*
X173568162Y-131629683D01*
X173429090Y-131413559D01*
X173216890Y-131268569D01*
X172965000Y-131217560D01*
X172065000Y-131217560D01*
X171829683Y-131261838D01*
X171613559Y-131400910D01*
X171468569Y-131613110D01*
X171417560Y-131865000D01*
X171417560Y-132136536D01*
X171304461Y-132212106D01*
X169346984Y-134169584D01*
X169071287Y-134283499D01*
X167474609Y-132686821D01*
X167509655Y-132602421D01*
X167509945Y-132270237D01*
X167383092Y-131963228D01*
X167148407Y-131728134D01*
X166841621Y-131600745D01*
X166509437Y-131600455D01*
X166202428Y-131727308D01*
X166099040Y-131830516D01*
X166099040Y-131280800D01*
X166062971Y-131089109D01*
X166089440Y-130958400D01*
X166089440Y-130458400D01*
X166051850Y-130258629D01*
X166099040Y-130025600D01*
X166099040Y-129425600D01*
X166054762Y-129190283D01*
X166047258Y-129178621D01*
X166048031Y-129177490D01*
X166099040Y-128925600D01*
X166099040Y-128325600D01*
X166071823Y-128180954D01*
X166101931Y-128136890D01*
X166152940Y-127885000D01*
X166152940Y-127385000D01*
X166130323Y-127264801D01*
X166586446Y-126809473D01*
X166835806Y-126208947D01*
X166836374Y-125558706D01*
X166692292Y-125210000D01*
X167739021Y-125210000D01*
X176356385Y-132534760D01*
X176356385Y-132534760D01*
G37*
X176356385Y-132534760D02*
X175760000Y-132534760D01*
X175524683Y-132579038D01*
X175308559Y-132718110D01*
X175163569Y-132930310D01*
X175112560Y-133182200D01*
X175112560Y-134432200D01*
X175156838Y-134667517D01*
X175295910Y-134883641D01*
X175391822Y-134949175D01*
X175391638Y-135160767D01*
X175533683Y-135504543D01*
X175796473Y-135767792D01*
X176140001Y-135910438D01*
X176511967Y-135910762D01*
X176855743Y-135768717D01*
X177118992Y-135505927D01*
X177261638Y-135162399D01*
X177261934Y-134822391D01*
X177290000Y-134781315D01*
X177290000Y-140016862D01*
X174486843Y-137213706D01*
X174256114Y-137059537D01*
X174207040Y-137049776D01*
X174207040Y-136426600D01*
X174162762Y-136191283D01*
X174023690Y-135975159D01*
X173811490Y-135830169D01*
X173559600Y-135779160D01*
X172559600Y-135779160D01*
X172324283Y-135823438D01*
X172108159Y-135962510D01*
X172060466Y-136032311D01*
X172023690Y-135975159D01*
X171811490Y-135830169D01*
X171559600Y-135779160D01*
X170566948Y-135779160D01*
X170238668Y-135450880D01*
X170353280Y-135174864D01*
X171565983Y-133962162D01*
X171600910Y-134016441D01*
X171813110Y-134161431D01*
X172065000Y-134212440D01*
X172965000Y-134212440D01*
X173200317Y-134168162D01*
X173416441Y-134029090D01*
X173561431Y-133816890D01*
X173612440Y-133565000D01*
X173612440Y-131865000D01*
X173568162Y-131629683D01*
X173429090Y-131413559D01*
X173216890Y-131268569D01*
X172965000Y-131217560D01*
X172065000Y-131217560D01*
X171829683Y-131261838D01*
X171613559Y-131400910D01*
X171468569Y-131613110D01*
X171417560Y-131865000D01*
X171417560Y-132136536D01*
X171304461Y-132212106D01*
X169346984Y-134169584D01*
X169071287Y-134283499D01*
X167474609Y-132686821D01*
X167509655Y-132602421D01*
X167509945Y-132270237D01*
X167383092Y-131963228D01*
X167148407Y-131728134D01*
X166841621Y-131600745D01*
X166509437Y-131600455D01*
X166202428Y-131727308D01*
X166099040Y-131830516D01*
X166099040Y-131280800D01*
X166062971Y-131089109D01*
X166089440Y-130958400D01*
X166089440Y-130458400D01*
X166051850Y-130258629D01*
X166099040Y-130025600D01*
X166099040Y-129425600D01*
X166054762Y-129190283D01*
X166047258Y-129178621D01*
X166048031Y-129177490D01*
X166099040Y-128925600D01*
X166099040Y-128325600D01*
X166071823Y-128180954D01*
X166101931Y-128136890D01*
X166152940Y-127885000D01*
X166152940Y-127385000D01*
X166130323Y-127264801D01*
X166586446Y-126809473D01*
X166835806Y-126208947D01*
X166836374Y-125558706D01*
X166692292Y-125210000D01*
X167739021Y-125210000D01*
X176356385Y-132534760D01*
M02*
