G04 #@! TF.FileFunction,Copper,L2,Bot,Signal*
%FSLAX46Y46*%
G04 Gerber Fmt 4.6, Leading zero omitted, Abs format (unit mm)*
G04 Created by KiCad (PCBNEW 4.0.7-e2-6376~60~ubuntu17.10.1) date Mon Apr  2 23:18:42 2018*
%MOMM*%
%LPD*%
G01*
G04 APERTURE LIST*
%ADD10C,0.100000*%
%ADD11C,0.400000*%
%ADD12C,5.000000*%
%ADD13R,2.500000X5.100000*%
%ADD14R,1.000000X1.000000*%
%ADD15O,1.000000X1.000000*%
%ADD16C,1.998980*%
%ADD17C,0.600000*%
%ADD18C,0.254000*%
%ADD19C,0.152400*%
G04 APERTURE END LIST*
D10*
D11*
X153924000Y-141884400D03*
X153263600Y-141782800D03*
X152958800Y-141071600D03*
X152958800Y-148945600D03*
X153873200Y-149047200D03*
X155092400Y-148996400D03*
X156362400Y-148894800D03*
X157480000Y-148894800D03*
X160375600Y-148894800D03*
X158800800Y-148894800D03*
X161391600Y-146913600D03*
X160223200Y-146761200D03*
X167589200Y-136550400D03*
X167132000Y-137820400D03*
X166573200Y-137109200D03*
X166471600Y-135940800D03*
X166370000Y-134772400D03*
X166471600Y-133959600D03*
X167284400Y-135178800D03*
X168452800Y-137414000D03*
X168249600Y-139598400D03*
X172618400Y-135331200D03*
X171348400Y-135077200D03*
X174244000Y-132181600D03*
X172161200Y-130962400D03*
X170738800Y-131622800D03*
X167843200Y-131927600D03*
X167741600Y-130810000D03*
X169722800Y-130454400D03*
X171602400Y-129946400D03*
X170383200Y-128879600D03*
X169113200Y-128879600D03*
X167589200Y-129438400D03*
X167538400Y-128219200D03*
X168605200Y-127406400D03*
X167640000Y-126593600D03*
X174040800Y-130860800D03*
X175056800Y-131673600D03*
X174548800Y-131267200D03*
X175615600Y-132130800D03*
X171907200Y-128981200D03*
X172923200Y-129794000D03*
X172415200Y-129387600D03*
X173482000Y-130251200D03*
X169824400Y-127203200D03*
X170840400Y-128016000D03*
X170332400Y-127609600D03*
X171399200Y-128473200D03*
X169316400Y-126746000D03*
X168757600Y-126288800D03*
X168249600Y-125882400D03*
X166878000Y-127203200D03*
X166979600Y-126644400D03*
X167030400Y-126034800D03*
X167741600Y-125476000D03*
X167030400Y-125476000D03*
X162712400Y-126644400D03*
X162001200Y-126644400D03*
X162153600Y-127609600D03*
X161442400Y-127609600D03*
X160680400Y-128879600D03*
X159969200Y-128879600D03*
X162509200Y-128574800D03*
X161798000Y-128574800D03*
X162763200Y-129590800D03*
X162052000Y-129590800D03*
X161036000Y-129794000D03*
X160324800Y-129794000D03*
X159461200Y-129743200D03*
X158750000Y-129743200D03*
X159410400Y-130606800D03*
X158699200Y-130606800D03*
X160883600Y-130606800D03*
X160172400Y-130606800D03*
X161696400Y-130606800D03*
X162407600Y-130606800D03*
X161391600Y-132638800D03*
X162001200Y-132638800D03*
X162509200Y-132943600D03*
X162864800Y-133502400D03*
X163423600Y-134366000D03*
X164084000Y-134467600D03*
X164033200Y-135178800D03*
X163271200Y-135382000D03*
X163068000Y-136347200D03*
X163220400Y-137058400D03*
X163982400Y-137312400D03*
X163525200Y-138074400D03*
X162966400Y-138684000D03*
X163118800Y-139496800D03*
X163626800Y-139954000D03*
X164185600Y-140157200D03*
X163931600Y-140817600D03*
X162712400Y-141020800D03*
X162306000Y-142544800D03*
X162306000Y-141681200D03*
X162356800Y-140309600D03*
X160375600Y-140004800D03*
X160629600Y-142036800D03*
X160274000Y-138176000D03*
X158445200Y-137972800D03*
X159359600Y-137160000D03*
X159308800Y-135280400D03*
X157480000Y-135432800D03*
X157226000Y-136855200D03*
X157022800Y-138684000D03*
X156870400Y-140309600D03*
X157429200Y-141478000D03*
X156565600Y-141478000D03*
X156006800Y-141071600D03*
X155702000Y-140360400D03*
X155702000Y-139547600D03*
X155702000Y-138734800D03*
X155702000Y-137922000D03*
X155702000Y-137109200D03*
X155702000Y-136448800D03*
X155702000Y-135737600D03*
X155702000Y-135077200D03*
X155651200Y-134467600D03*
X155092400Y-134162800D03*
X154533600Y-134162800D03*
X153822400Y-134162800D03*
X153314400Y-133807200D03*
X154178000Y-132435600D03*
X153771600Y-132791200D03*
X153314400Y-133197600D03*
X155549600Y-131267200D03*
X155143200Y-131622800D03*
X154686000Y-132029200D03*
X156972000Y-130098800D03*
X156565600Y-130454400D03*
X156108400Y-130860800D03*
X158292800Y-128930400D03*
X157886400Y-129286000D03*
X157429200Y-129692400D03*
X159664400Y-127762000D03*
X159258000Y-128117600D03*
X158800800Y-128524000D03*
X160985200Y-126593600D03*
X160578800Y-126949200D03*
X160121600Y-127355600D03*
X161391600Y-126187200D03*
X161848800Y-125780800D03*
X162255200Y-125425200D03*
X162864800Y-125374400D03*
X163322000Y-125679200D03*
X163372800Y-126238000D03*
X163576000Y-126746000D03*
X163169600Y-127203200D03*
X163169600Y-127762000D03*
X163474400Y-128371600D03*
X166268400Y-127406400D03*
X166268400Y-127965200D03*
X166268400Y-128574800D03*
X166268400Y-129133600D03*
X166268400Y-129692400D03*
X166268400Y-130302000D03*
X166268400Y-130911600D03*
X166268400Y-131521200D03*
X163830000Y-131470400D03*
X163017200Y-130352800D03*
X163474400Y-130048000D03*
X163982400Y-130048000D03*
X164134800Y-129540000D03*
X164134800Y-128981200D03*
X164134800Y-128371600D03*
D12*
X165018400Y-137591800D03*
D13*
X153568400Y-137591800D03*
X176468400Y-137591800D03*
D14*
X176212500Y-148844000D03*
D15*
X176212500Y-147574000D03*
X176212500Y-146304000D03*
D16*
X165201600Y-125882400D03*
D11*
X162001200Y-137769600D03*
D17*
X154381200Y-140716000D03*
X168838590Y-142041195D03*
X176326800Y-134975600D03*
X157988000Y-146558000D03*
X162814000Y-144424400D03*
X158343600Y-143052800D03*
D11*
X168830610Y-146153326D03*
X173431200Y-134772400D03*
X160629600Y-132842000D03*
X163423600Y-130708400D03*
X163525200Y-133604000D03*
X167894000Y-133451600D03*
X173532800Y-144780000D03*
X170789600Y-147116800D03*
X163474400Y-141274800D03*
X167690800Y-140512800D03*
D17*
X162458400Y-147726400D03*
X163981443Y-146152557D03*
X166268400Y-145694400D03*
X152704800Y-146710400D03*
X162052000Y-136550400D03*
D11*
X167516190Y-147777200D03*
X172784633Y-147863681D03*
D17*
X153009600Y-144932400D03*
X157327600Y-144475200D03*
D11*
X172823002Y-148414759D03*
X165877760Y-147553189D03*
X168830610Y-147370800D03*
X165201600Y-147523200D03*
X173386483Y-146325787D03*
X173352769Y-147182998D03*
X172821600Y-146354800D03*
D17*
X167162190Y-141986000D03*
X164287200Y-141986000D03*
D11*
X170213379Y-143242364D03*
X170238394Y-144099573D03*
X168859200Y-135686800D03*
X169521345Y-135001011D03*
X174974162Y-146342196D03*
X174253574Y-148821790D03*
X175056800Y-145694400D03*
X175209200Y-148539200D03*
X168383242Y-145056210D03*
X169673385Y-143359036D03*
X167922590Y-148698051D03*
X171059600Y-137716600D03*
X169367200Y-138430000D03*
X170738800Y-149250400D03*
X170891200Y-145135600D03*
X171551600Y-143611600D03*
X168351200Y-149301200D03*
X170129200Y-149250400D03*
X170084996Y-145364211D03*
X170207188Y-141993748D03*
X166674800Y-132435600D03*
X163525200Y-132435600D03*
X168830610Y-146812000D03*
X174583857Y-144149491D03*
D18*
X154381200Y-140716000D02*
X153568400Y-139903200D01*
X153568400Y-139903200D02*
X153568400Y-137591800D01*
X169138589Y-141741196D02*
X168838590Y-142041195D01*
X173287985Y-137591800D02*
X169138589Y-141741196D01*
X176468400Y-137591800D02*
X173287985Y-137591800D01*
X176326800Y-134975600D02*
X176326800Y-137450200D01*
X176326800Y-137450200D02*
X176468400Y-137591800D01*
X157988000Y-146558000D02*
X157988000Y-143408400D01*
X157988000Y-143408400D02*
X158343600Y-143052800D01*
X161442400Y-143052800D02*
X162814000Y-144424400D01*
X158343600Y-143052800D02*
X161442400Y-143052800D01*
X176468400Y-139710800D02*
X176468400Y-137591800D01*
D19*
X168556126Y-146153326D02*
X168830610Y-146153326D01*
X166268400Y-145694400D02*
X166727326Y-146153326D01*
X166727326Y-146153326D02*
X168273284Y-146153326D01*
X168273284Y-146153326D02*
X168556126Y-146153326D01*
X173231201Y-134572401D02*
X168037799Y-134572401D01*
X173431200Y-134772400D02*
X173231201Y-134572401D01*
X168037799Y-134572401D02*
X167518399Y-135091801D01*
X167518399Y-135091801D02*
X165018400Y-137591800D01*
X163525200Y-133604000D02*
X161391600Y-133604000D01*
X161391600Y-133604000D02*
X160629600Y-132842000D01*
X163525200Y-133604000D02*
X163525200Y-136098600D01*
X163525200Y-136098600D02*
X165018400Y-137591800D01*
X167894000Y-133451600D02*
X167894000Y-134716200D01*
X167894000Y-134716200D02*
X165018400Y-137591800D01*
X173532800Y-144780000D02*
X171196000Y-147116800D01*
X171196000Y-147116800D02*
X170789600Y-147116800D01*
X166268400Y-145694400D02*
X166268400Y-144068800D01*
X166268400Y-144068800D02*
X167690800Y-142646400D01*
X167690800Y-142646400D02*
X167690800Y-140795642D01*
X167690800Y-140795642D02*
X167690800Y-140512800D01*
X163474400Y-141274800D02*
X163674399Y-141074801D01*
X163674399Y-141074801D02*
X163674399Y-138935801D01*
X163674399Y-138935801D02*
X165018400Y-137591800D01*
X167690800Y-140512800D02*
X165018400Y-137840400D01*
X165018400Y-137840400D02*
X165018400Y-137591800D01*
D18*
X162539388Y-147594612D02*
X162814000Y-147320000D01*
X162814000Y-147320000D02*
X163681444Y-146452556D01*
X162458400Y-147726400D02*
X162814000Y-147370800D01*
X162814000Y-147370800D02*
X162814000Y-147320000D01*
X164281442Y-145852558D02*
X163981443Y-146152557D01*
X152704800Y-146710400D02*
X153589012Y-147594612D01*
X153589012Y-147594612D02*
X162539388Y-147594612D01*
X166268400Y-145694400D02*
X164439600Y-145694400D01*
X164439600Y-145694400D02*
X164281442Y-145852558D01*
X163681444Y-146452556D02*
X163981443Y-146152557D01*
X162052000Y-136550400D02*
X162351999Y-136850399D01*
X162351999Y-136850399D02*
X164276999Y-136850399D01*
X164276999Y-136850399D02*
X165018400Y-137591800D01*
D19*
X167602671Y-147863681D02*
X167516190Y-147777200D01*
X172784633Y-147863681D02*
X167602671Y-147863681D01*
X153009600Y-144932400D02*
X156870400Y-144932400D01*
X156870400Y-144932400D02*
X157327600Y-144475200D01*
X166594020Y-148269449D02*
X172394850Y-148269449D01*
X172394850Y-148269449D02*
X172540160Y-148414759D01*
X165877760Y-147553189D02*
X166594020Y-148269449D01*
X172540160Y-148414759D02*
X172823002Y-148414759D01*
X168423958Y-147370800D02*
X168547768Y-147370800D01*
X168118761Y-147065603D02*
X168423958Y-147370800D01*
X168547768Y-147370800D02*
X168830610Y-147370800D01*
X165659197Y-147065603D02*
X168118761Y-147065603D01*
X165201600Y-147523200D02*
X165659197Y-147065603D01*
X173352769Y-146359501D02*
X173386483Y-146325787D01*
X173352769Y-147182998D02*
X173352769Y-146359501D01*
X175881404Y-145265798D02*
X176212500Y-145596894D01*
X173627760Y-145265798D02*
X175881404Y-145265798D01*
X172821600Y-146071958D02*
X173627760Y-145265798D01*
X172821600Y-146354800D02*
X172821600Y-146071958D01*
X176212500Y-145596894D02*
X176212500Y-146304000D01*
D18*
X164287200Y-141986000D02*
X167162190Y-141986000D01*
D19*
X170238394Y-144099573D02*
X170238394Y-143267379D01*
X170238394Y-143267379D02*
X170213379Y-143242364D01*
X169521345Y-135001011D02*
X169521345Y-135024655D01*
X169521345Y-135024655D02*
X168859200Y-135686800D01*
X174253574Y-147062784D02*
X174774163Y-146542195D01*
X174774163Y-146542195D02*
X174974162Y-146342196D01*
X174253574Y-148821790D02*
X174253574Y-147062784D01*
X175409199Y-148339201D02*
X175409199Y-146046799D01*
X175409199Y-146046799D02*
X175056800Y-145694400D01*
X175209200Y-148539200D02*
X175409199Y-148339201D01*
X169673385Y-143359036D02*
X169673385Y-143766067D01*
X168583241Y-144856211D02*
X168383242Y-145056210D01*
X169673385Y-143766067D02*
X168583241Y-144856211D01*
X170738800Y-149250400D02*
X170186451Y-148698051D01*
X170186451Y-148698051D02*
X168205432Y-148698051D01*
X168205432Y-148698051D02*
X167922590Y-148698051D01*
X169367200Y-138430000D02*
X170346200Y-138430000D01*
X170346200Y-138430000D02*
X171059600Y-137716600D01*
X171551600Y-143611600D02*
X171551600Y-144475200D01*
X171551600Y-144475200D02*
X171091199Y-144935601D01*
X171091199Y-144935601D02*
X170891200Y-145135600D01*
X170129200Y-149250400D02*
X168402000Y-149250400D01*
X168402000Y-149250400D02*
X168351200Y-149301200D01*
X170776101Y-144368068D02*
X170084996Y-145059173D01*
X170084996Y-145081369D02*
X170084996Y-145364211D01*
X170084996Y-145059173D02*
X170084996Y-145081369D01*
X170776101Y-142562661D02*
X170776101Y-144368068D01*
X170207188Y-141993748D02*
X170776101Y-142562661D01*
X163525200Y-132435600D02*
X166674800Y-132435600D01*
X169113452Y-146812000D02*
X168830610Y-146812000D01*
X169849132Y-146812000D02*
X169113452Y-146812000D01*
X172511641Y-144149491D02*
X169849132Y-146812000D01*
X174583857Y-144149491D02*
X172511641Y-144149491D01*
D18*
G36*
X163567394Y-125555853D02*
X163566826Y-126206094D01*
X163815138Y-126807055D01*
X164274527Y-127267246D01*
X164875053Y-127516606D01*
X165525294Y-127517174D01*
X166126255Y-127268862D01*
X166586446Y-126809473D01*
X166835806Y-126208947D01*
X166836374Y-125558706D01*
X166692292Y-125210000D01*
X167739021Y-125210000D01*
X177290000Y-133328333D01*
X177290000Y-134394360D01*
X177067711Y-134394360D01*
X176857127Y-134183408D01*
X176513599Y-134040762D01*
X176141633Y-134040438D01*
X175797857Y-134182483D01*
X175585610Y-134394360D01*
X175218400Y-134394360D01*
X174983083Y-134438638D01*
X174766959Y-134577710D01*
X174621969Y-134789910D01*
X174570960Y-135041800D01*
X174570960Y-136829800D01*
X173287985Y-136829800D01*
X173026841Y-136881745D01*
X172996380Y-136887804D01*
X172749170Y-137052985D01*
X171877215Y-137924940D01*
X171894455Y-137883421D01*
X171894745Y-137551237D01*
X171767892Y-137244228D01*
X171533207Y-137009134D01*
X171226421Y-136881745D01*
X170894237Y-136881455D01*
X170587228Y-137008308D01*
X170352134Y-137242993D01*
X170227665Y-137542747D01*
X170051612Y-137718800D01*
X169831815Y-137718800D01*
X169534021Y-137595145D01*
X169201837Y-137594855D01*
X168894828Y-137721708D01*
X168659734Y-137956393D01*
X168532345Y-138263179D01*
X168532055Y-138595363D01*
X168658908Y-138902372D01*
X168893593Y-139137466D01*
X169200379Y-139264855D01*
X169532563Y-139265145D01*
X169832534Y-139141200D01*
X170346200Y-139141200D01*
X170618365Y-139087063D01*
X170849094Y-138932894D01*
X171233961Y-138548027D01*
X171268328Y-138533827D01*
X168696085Y-141106070D01*
X168653423Y-141106033D01*
X168309647Y-141248078D01*
X168046398Y-141510868D01*
X168011884Y-141593985D01*
X167955307Y-141457057D01*
X167692517Y-141193808D01*
X167348989Y-141051162D01*
X166977023Y-141050838D01*
X166633247Y-141192883D01*
X166602076Y-141224000D01*
X164847666Y-141224000D01*
X164817527Y-141193808D01*
X164473999Y-141051162D01*
X164102033Y-141050838D01*
X163758257Y-141192883D01*
X163495008Y-141455673D01*
X163352362Y-141799201D01*
X163352038Y-142171167D01*
X163494083Y-142514943D01*
X163756873Y-142778192D01*
X164100401Y-142920838D01*
X164472367Y-142921162D01*
X164816143Y-142779117D01*
X164847314Y-142748000D01*
X166601724Y-142748000D01*
X166631863Y-142778192D01*
X166975391Y-142920838D01*
X167347357Y-142921162D01*
X167691133Y-142779117D01*
X167954382Y-142516327D01*
X167988896Y-142433210D01*
X168045473Y-142570138D01*
X168308263Y-142833387D01*
X168651791Y-142976033D01*
X168928197Y-142976274D01*
X168838530Y-143192215D01*
X168838240Y-143524399D01*
X168859006Y-143574657D01*
X168208881Y-144224783D01*
X167910870Y-144347918D01*
X167675776Y-144582603D01*
X167548387Y-144889389D01*
X167548097Y-145221573D01*
X167674950Y-145528582D01*
X167909635Y-145763676D01*
X168216421Y-145891065D01*
X168548605Y-145891355D01*
X168855614Y-145764502D01*
X169090708Y-145529817D01*
X169215177Y-145230063D01*
X169251768Y-145193472D01*
X169250141Y-145197390D01*
X169249851Y-145529574D01*
X169376704Y-145836583D01*
X169597540Y-146057804D01*
X169554544Y-146100800D01*
X169295225Y-146100800D01*
X168997431Y-145977145D01*
X168665247Y-145976855D01*
X168358238Y-146103708D01*
X168123144Y-146338393D01*
X168116496Y-146354403D01*
X165659197Y-146354403D01*
X165387032Y-146408540D01*
X165156303Y-146562709D01*
X165027239Y-146691773D01*
X164729228Y-146814908D01*
X164494134Y-147049593D01*
X164366745Y-147356379D01*
X164366455Y-147688563D01*
X164493308Y-147995572D01*
X164727993Y-148230666D01*
X165034779Y-148358055D01*
X165366963Y-148358345D01*
X165503526Y-148301918D01*
X165703906Y-148385124D01*
X166091126Y-148772344D01*
X166321856Y-148926512D01*
X166594020Y-148980649D01*
X167135885Y-148980649D01*
X167214298Y-149170423D01*
X167333667Y-149290000D01*
X152710000Y-149290000D01*
X152710000Y-145820399D01*
X152822801Y-145867238D01*
X153194767Y-145867562D01*
X153538543Y-145725517D01*
X153620603Y-145643600D01*
X156870400Y-145643600D01*
X157142565Y-145589463D01*
X157226000Y-145533713D01*
X157226000Y-145997534D01*
X157195808Y-146027673D01*
X157053162Y-146371201D01*
X157052838Y-146743167D01*
X157194883Y-147086943D01*
X157457673Y-147350192D01*
X157801201Y-147492838D01*
X158173167Y-147493162D01*
X158516943Y-147351117D01*
X158780192Y-147088327D01*
X158922838Y-146744799D01*
X158923162Y-146372833D01*
X158781117Y-146029057D01*
X158750000Y-145997886D01*
X158750000Y-143896551D01*
X158872543Y-143845917D01*
X158903714Y-143814800D01*
X161126770Y-143814800D01*
X161878875Y-144566906D01*
X161878838Y-144609567D01*
X162020883Y-144953343D01*
X162283673Y-145216592D01*
X162627201Y-145359238D01*
X162999167Y-145359562D01*
X163342943Y-145217517D01*
X163606192Y-144954727D01*
X163748838Y-144611199D01*
X163749162Y-144239233D01*
X163607117Y-143895457D01*
X163344327Y-143632208D01*
X163000799Y-143489562D01*
X162956754Y-143489524D01*
X161981215Y-142513985D01*
X161955259Y-142496642D01*
X161734005Y-142348804D01*
X161442400Y-142290800D01*
X158904066Y-142290800D01*
X158873927Y-142260608D01*
X158530399Y-142117962D01*
X158158433Y-142117638D01*
X157814657Y-142259683D01*
X157551408Y-142522473D01*
X157408762Y-142866001D01*
X157408706Y-142930166D01*
X157284004Y-143116795D01*
X157226000Y-143408400D01*
X157226000Y-143540111D01*
X157142433Y-143540038D01*
X156798657Y-143682083D01*
X156535408Y-143944873D01*
X156420666Y-144221200D01*
X153620778Y-144221200D01*
X153539927Y-144140208D01*
X153196399Y-143997562D01*
X152824433Y-143997238D01*
X152710000Y-144044521D01*
X152710000Y-140789240D01*
X153376810Y-140789240D01*
X153446075Y-140858506D01*
X153446038Y-140901167D01*
X153588083Y-141244943D01*
X153850873Y-141508192D01*
X154194401Y-141650838D01*
X154566367Y-141651162D01*
X154910143Y-141509117D01*
X155173392Y-141246327D01*
X155316038Y-140902799D01*
X155316356Y-140537813D01*
X155414831Y-140393690D01*
X155465840Y-140141800D01*
X155465840Y-135852163D01*
X168024055Y-135852163D01*
X168150908Y-136159172D01*
X168385593Y-136394266D01*
X168692379Y-136521655D01*
X169024563Y-136521945D01*
X169331572Y-136395092D01*
X169566666Y-136160407D01*
X169691135Y-135860654D01*
X169735999Y-135815789D01*
X169993717Y-135709303D01*
X170228811Y-135474618D01*
X170356200Y-135167832D01*
X170356490Y-134835648D01*
X170229637Y-134528639D01*
X169994952Y-134293545D01*
X169688166Y-134166156D01*
X169355982Y-134165866D01*
X169048973Y-134292719D01*
X168813879Y-134527404D01*
X168686490Y-134834190D01*
X168686473Y-134853739D01*
X168684838Y-134855373D01*
X168386828Y-134978508D01*
X168151734Y-135213193D01*
X168024345Y-135519979D01*
X168024055Y-135852163D01*
X155465840Y-135852163D01*
X155465840Y-135041800D01*
X155421562Y-134806483D01*
X155282490Y-134590359D01*
X155070290Y-134445369D01*
X154818400Y-134394360D01*
X152710000Y-134394360D01*
X152710000Y-133328333D01*
X153565729Y-132600963D01*
X162690055Y-132600963D01*
X162816908Y-132907972D01*
X163051593Y-133143066D01*
X163358379Y-133270455D01*
X163690563Y-133270745D01*
X163990534Y-133146800D01*
X166210185Y-133146800D01*
X166507979Y-133270455D01*
X166840163Y-133270745D01*
X167147172Y-133143892D01*
X167382266Y-132909207D01*
X167509655Y-132602421D01*
X167509945Y-132270237D01*
X167383092Y-131963228D01*
X167148407Y-131728134D01*
X166841621Y-131600745D01*
X166509437Y-131600455D01*
X166209466Y-131724400D01*
X163989815Y-131724400D01*
X163692021Y-131600745D01*
X163359837Y-131600455D01*
X163052828Y-131727308D01*
X162817734Y-131961993D01*
X162690345Y-132268779D01*
X162690055Y-132600963D01*
X153565729Y-132600963D01*
X162260980Y-125210000D01*
X163711005Y-125210000D01*
X163567394Y-125555853D01*
X163567394Y-125555853D01*
G37*
X163567394Y-125555853D02*
X163566826Y-126206094D01*
X163815138Y-126807055D01*
X164274527Y-127267246D01*
X164875053Y-127516606D01*
X165525294Y-127517174D01*
X166126255Y-127268862D01*
X166586446Y-126809473D01*
X166835806Y-126208947D01*
X166836374Y-125558706D01*
X166692292Y-125210000D01*
X167739021Y-125210000D01*
X177290000Y-133328333D01*
X177290000Y-134394360D01*
X177067711Y-134394360D01*
X176857127Y-134183408D01*
X176513599Y-134040762D01*
X176141633Y-134040438D01*
X175797857Y-134182483D01*
X175585610Y-134394360D01*
X175218400Y-134394360D01*
X174983083Y-134438638D01*
X174766959Y-134577710D01*
X174621969Y-134789910D01*
X174570960Y-135041800D01*
X174570960Y-136829800D01*
X173287985Y-136829800D01*
X173026841Y-136881745D01*
X172996380Y-136887804D01*
X172749170Y-137052985D01*
X171877215Y-137924940D01*
X171894455Y-137883421D01*
X171894745Y-137551237D01*
X171767892Y-137244228D01*
X171533207Y-137009134D01*
X171226421Y-136881745D01*
X170894237Y-136881455D01*
X170587228Y-137008308D01*
X170352134Y-137242993D01*
X170227665Y-137542747D01*
X170051612Y-137718800D01*
X169831815Y-137718800D01*
X169534021Y-137595145D01*
X169201837Y-137594855D01*
X168894828Y-137721708D01*
X168659734Y-137956393D01*
X168532345Y-138263179D01*
X168532055Y-138595363D01*
X168658908Y-138902372D01*
X168893593Y-139137466D01*
X169200379Y-139264855D01*
X169532563Y-139265145D01*
X169832534Y-139141200D01*
X170346200Y-139141200D01*
X170618365Y-139087063D01*
X170849094Y-138932894D01*
X171233961Y-138548027D01*
X171268328Y-138533827D01*
X168696085Y-141106070D01*
X168653423Y-141106033D01*
X168309647Y-141248078D01*
X168046398Y-141510868D01*
X168011884Y-141593985D01*
X167955307Y-141457057D01*
X167692517Y-141193808D01*
X167348989Y-141051162D01*
X166977023Y-141050838D01*
X166633247Y-141192883D01*
X166602076Y-141224000D01*
X164847666Y-141224000D01*
X164817527Y-141193808D01*
X164473999Y-141051162D01*
X164102033Y-141050838D01*
X163758257Y-141192883D01*
X163495008Y-141455673D01*
X163352362Y-141799201D01*
X163352038Y-142171167D01*
X163494083Y-142514943D01*
X163756873Y-142778192D01*
X164100401Y-142920838D01*
X164472367Y-142921162D01*
X164816143Y-142779117D01*
X164847314Y-142748000D01*
X166601724Y-142748000D01*
X166631863Y-142778192D01*
X166975391Y-142920838D01*
X167347357Y-142921162D01*
X167691133Y-142779117D01*
X167954382Y-142516327D01*
X167988896Y-142433210D01*
X168045473Y-142570138D01*
X168308263Y-142833387D01*
X168651791Y-142976033D01*
X168928197Y-142976274D01*
X168838530Y-143192215D01*
X168838240Y-143524399D01*
X168859006Y-143574657D01*
X168208881Y-144224783D01*
X167910870Y-144347918D01*
X167675776Y-144582603D01*
X167548387Y-144889389D01*
X167548097Y-145221573D01*
X167674950Y-145528582D01*
X167909635Y-145763676D01*
X168216421Y-145891065D01*
X168548605Y-145891355D01*
X168855614Y-145764502D01*
X169090708Y-145529817D01*
X169215177Y-145230063D01*
X169251768Y-145193472D01*
X169250141Y-145197390D01*
X169249851Y-145529574D01*
X169376704Y-145836583D01*
X169597540Y-146057804D01*
X169554544Y-146100800D01*
X169295225Y-146100800D01*
X168997431Y-145977145D01*
X168665247Y-145976855D01*
X168358238Y-146103708D01*
X168123144Y-146338393D01*
X168116496Y-146354403D01*
X165659197Y-146354403D01*
X165387032Y-146408540D01*
X165156303Y-146562709D01*
X165027239Y-146691773D01*
X164729228Y-146814908D01*
X164494134Y-147049593D01*
X164366745Y-147356379D01*
X164366455Y-147688563D01*
X164493308Y-147995572D01*
X164727993Y-148230666D01*
X165034779Y-148358055D01*
X165366963Y-148358345D01*
X165503526Y-148301918D01*
X165703906Y-148385124D01*
X166091126Y-148772344D01*
X166321856Y-148926512D01*
X166594020Y-148980649D01*
X167135885Y-148980649D01*
X167214298Y-149170423D01*
X167333667Y-149290000D01*
X152710000Y-149290000D01*
X152710000Y-145820399D01*
X152822801Y-145867238D01*
X153194767Y-145867562D01*
X153538543Y-145725517D01*
X153620603Y-145643600D01*
X156870400Y-145643600D01*
X157142565Y-145589463D01*
X157226000Y-145533713D01*
X157226000Y-145997534D01*
X157195808Y-146027673D01*
X157053162Y-146371201D01*
X157052838Y-146743167D01*
X157194883Y-147086943D01*
X157457673Y-147350192D01*
X157801201Y-147492838D01*
X158173167Y-147493162D01*
X158516943Y-147351117D01*
X158780192Y-147088327D01*
X158922838Y-146744799D01*
X158923162Y-146372833D01*
X158781117Y-146029057D01*
X158750000Y-145997886D01*
X158750000Y-143896551D01*
X158872543Y-143845917D01*
X158903714Y-143814800D01*
X161126770Y-143814800D01*
X161878875Y-144566906D01*
X161878838Y-144609567D01*
X162020883Y-144953343D01*
X162283673Y-145216592D01*
X162627201Y-145359238D01*
X162999167Y-145359562D01*
X163342943Y-145217517D01*
X163606192Y-144954727D01*
X163748838Y-144611199D01*
X163749162Y-144239233D01*
X163607117Y-143895457D01*
X163344327Y-143632208D01*
X163000799Y-143489562D01*
X162956754Y-143489524D01*
X161981215Y-142513985D01*
X161955259Y-142496642D01*
X161734005Y-142348804D01*
X161442400Y-142290800D01*
X158904066Y-142290800D01*
X158873927Y-142260608D01*
X158530399Y-142117962D01*
X158158433Y-142117638D01*
X157814657Y-142259683D01*
X157551408Y-142522473D01*
X157408762Y-142866001D01*
X157408706Y-142930166D01*
X157284004Y-143116795D01*
X157226000Y-143408400D01*
X157226000Y-143540111D01*
X157142433Y-143540038D01*
X156798657Y-143682083D01*
X156535408Y-143944873D01*
X156420666Y-144221200D01*
X153620778Y-144221200D01*
X153539927Y-144140208D01*
X153196399Y-143997562D01*
X152824433Y-143997238D01*
X152710000Y-144044521D01*
X152710000Y-140789240D01*
X153376810Y-140789240D01*
X153446075Y-140858506D01*
X153446038Y-140901167D01*
X153588083Y-141244943D01*
X153850873Y-141508192D01*
X154194401Y-141650838D01*
X154566367Y-141651162D01*
X154910143Y-141509117D01*
X155173392Y-141246327D01*
X155316038Y-140902799D01*
X155316356Y-140537813D01*
X155414831Y-140393690D01*
X155465840Y-140141800D01*
X155465840Y-135852163D01*
X168024055Y-135852163D01*
X168150908Y-136159172D01*
X168385593Y-136394266D01*
X168692379Y-136521655D01*
X169024563Y-136521945D01*
X169331572Y-136395092D01*
X169566666Y-136160407D01*
X169691135Y-135860654D01*
X169735999Y-135815789D01*
X169993717Y-135709303D01*
X170228811Y-135474618D01*
X170356200Y-135167832D01*
X170356490Y-134835648D01*
X170229637Y-134528639D01*
X169994952Y-134293545D01*
X169688166Y-134166156D01*
X169355982Y-134165866D01*
X169048973Y-134292719D01*
X168813879Y-134527404D01*
X168686490Y-134834190D01*
X168686473Y-134853739D01*
X168684838Y-134855373D01*
X168386828Y-134978508D01*
X168151734Y-135213193D01*
X168024345Y-135519979D01*
X168024055Y-135852163D01*
X155465840Y-135852163D01*
X155465840Y-135041800D01*
X155421562Y-134806483D01*
X155282490Y-134590359D01*
X155070290Y-134445369D01*
X154818400Y-134394360D01*
X152710000Y-134394360D01*
X152710000Y-133328333D01*
X153565729Y-132600963D01*
X162690055Y-132600963D01*
X162816908Y-132907972D01*
X163051593Y-133143066D01*
X163358379Y-133270455D01*
X163690563Y-133270745D01*
X163990534Y-133146800D01*
X166210185Y-133146800D01*
X166507979Y-133270455D01*
X166840163Y-133270745D01*
X167147172Y-133143892D01*
X167382266Y-132909207D01*
X167509655Y-132602421D01*
X167509945Y-132270237D01*
X167383092Y-131963228D01*
X167148407Y-131728134D01*
X166841621Y-131600745D01*
X166509437Y-131600455D01*
X166209466Y-131724400D01*
X163989815Y-131724400D01*
X163692021Y-131600745D01*
X163359837Y-131600455D01*
X163052828Y-131727308D01*
X162817734Y-131961993D01*
X162690345Y-132268779D01*
X162690055Y-132600963D01*
X153565729Y-132600963D01*
X162260980Y-125210000D01*
X163711005Y-125210000D01*
X163567394Y-125555853D01*
G36*
X177290000Y-149290000D02*
X175578694Y-149290000D01*
X175681572Y-149247492D01*
X175916666Y-149012807D01*
X176044055Y-148706021D01*
X176044078Y-148679922D01*
X176190264Y-148709000D01*
X176234736Y-148709000D01*
X176669082Y-148622603D01*
X177037302Y-148376566D01*
X177283339Y-148008346D01*
X177290000Y-147974859D01*
X177290000Y-149290000D01*
X177290000Y-149290000D01*
G37*
X177290000Y-149290000D02*
X175578694Y-149290000D01*
X175681572Y-149247492D01*
X175916666Y-149012807D01*
X176044055Y-148706021D01*
X176044078Y-148679922D01*
X176190264Y-148709000D01*
X176234736Y-148709000D01*
X176669082Y-148622603D01*
X177037302Y-148376566D01*
X177283339Y-148008346D01*
X177290000Y-147974859D01*
X177290000Y-149290000D01*
G36*
X172318706Y-145569064D02*
X172164537Y-145799793D01*
X172156822Y-145838579D01*
X172114134Y-145881193D01*
X171986745Y-146187979D01*
X171986455Y-146520163D01*
X172113308Y-146827172D01*
X172347993Y-147062266D01*
X172442581Y-147101542D01*
X172319299Y-147152481D01*
X170514439Y-147152481D01*
X172806230Y-144860691D01*
X173027078Y-144860691D01*
X172318706Y-145569064D01*
X172318706Y-145569064D01*
G37*
X172318706Y-145569064D02*
X172164537Y-145799793D01*
X172156822Y-145838579D01*
X172114134Y-145881193D01*
X171986745Y-146187979D01*
X171986455Y-146520163D01*
X172113308Y-146827172D01*
X172347993Y-147062266D01*
X172442581Y-147101542D01*
X172319299Y-147152481D01*
X170514439Y-147152481D01*
X172806230Y-144860691D01*
X173027078Y-144860691D01*
X172318706Y-145569064D01*
M02*
