G04 #@! TF.FileFunction,Paste,Top*
%FSLAX46Y46*%
G04 Gerber Fmt 4.6, Leading zero omitted, Abs format (unit mm)*
G04 Created by KiCad (PCBNEW 4.0.7-e2-6376~60~ubuntu17.10.1) date Mon Apr  2 23:18:42 2018*
%MOMM*%
%LPD*%
G01*
G04 APERTURE LIST*
%ADD10C,0.100000*%
%ADD11R,0.500000X0.600000*%
%ADD12R,0.600000X0.500000*%
%ADD13R,0.800000X0.800000*%
%ADD14R,0.400000X0.600000*%
%ADD15R,0.300000X1.400000*%
%ADD16R,1.600000X2.500000*%
%ADD17R,0.850000X0.450000*%
%ADD18R,0.600000X0.400000*%
%ADD19R,1.000000X2.580000*%
%ADD20R,0.900000X1.700000*%
%ADD21R,1.000000X1.250000*%
%ADD22R,0.300000X0.300000*%
%ADD23R,0.550000X0.250000*%
%ADD24R,0.250000X0.550000*%
%ADD25R,1.700000X1.700000*%
%ADD26R,0.800000X1.000000*%
G04 APERTURE END LIST*
D10*
D11*
X174053500Y-147024000D03*
X174053500Y-148124000D03*
X174040800Y-146032400D03*
X174040800Y-144932400D03*
X159004000Y-146558000D03*
X159004000Y-147658000D03*
X163677600Y-145634800D03*
X163677600Y-144534800D03*
D12*
X165205500Y-127635000D03*
X164105500Y-127635000D03*
X165142000Y-130708400D03*
X164042000Y-130708400D03*
D13*
X161823600Y-148996400D03*
X163423600Y-148996400D03*
D14*
X153866000Y-143052800D03*
X152966000Y-143052800D03*
X157472800Y-143052800D03*
X156572800Y-143052800D03*
D15*
X167166800Y-144510400D03*
X166666800Y-144510400D03*
X166166800Y-144510400D03*
X165666800Y-144510400D03*
X165166800Y-144510400D03*
X165166800Y-148910400D03*
X165666800Y-148910400D03*
X166166800Y-148910400D03*
X166666800Y-148910400D03*
X167166800Y-148910400D03*
D16*
X155346400Y-146710400D03*
D17*
X153846400Y-145710400D03*
X153846400Y-146710400D03*
X153846400Y-147710400D03*
X156846400Y-147710400D03*
X156846400Y-146710400D03*
X156846400Y-145710400D03*
D12*
X165201600Y-136347200D03*
X164101600Y-136347200D03*
X165091200Y-139039600D03*
X163991200Y-139039600D03*
X167682000Y-140868400D03*
X166582000Y-140868400D03*
D11*
X165303200Y-140022400D03*
X165303200Y-141122400D03*
D18*
X165201600Y-138118000D03*
X165201600Y-137218000D03*
X166573200Y-139946800D03*
X166573200Y-139046800D03*
D14*
X166580400Y-142900400D03*
X167480400Y-142900400D03*
D11*
X163474400Y-142891600D03*
X163474400Y-141791600D03*
D19*
X173059600Y-137716600D03*
X173059600Y-141886600D03*
X171059600Y-137716600D03*
X171059600Y-141886600D03*
D20*
X159815000Y-132715000D03*
X156415000Y-132715000D03*
D14*
X164345200Y-142900400D03*
X165245200Y-142900400D03*
D18*
X168452800Y-142044000D03*
X168452800Y-142944000D03*
D12*
X165201600Y-133604000D03*
X164101600Y-133604000D03*
D21*
X174260000Y-133807200D03*
X176260000Y-133807200D03*
D20*
X172515000Y-132715000D03*
X169115000Y-132715000D03*
D11*
X165201600Y-129725600D03*
X165201600Y-128625600D03*
X165201600Y-132680800D03*
X165201600Y-131580800D03*
D22*
X172054600Y-148381800D03*
D23*
X172139600Y-147866800D03*
X172139600Y-147366800D03*
X172139600Y-146866800D03*
X172139600Y-146366800D03*
D22*
X172054600Y-145851800D03*
D24*
X171039600Y-145766800D03*
X171539600Y-145766800D03*
X170539600Y-145766800D03*
X170039600Y-145766800D03*
D22*
X169524600Y-148381800D03*
D23*
X169439600Y-146366800D03*
X169439600Y-146866800D03*
X169439600Y-147366800D03*
X169439600Y-147866800D03*
D22*
X169524600Y-145851800D03*
D24*
X170039600Y-148466800D03*
X170539600Y-148466800D03*
X171039600Y-148466800D03*
X171539600Y-148466800D03*
D25*
X170789600Y-147116800D03*
D26*
X176276000Y-141751200D03*
X175326000Y-144151200D03*
X177226000Y-144151200D03*
M02*
