G04 #@! TF.FileFunction,Paste,Top*
%FSLAX46Y46*%
G04 Gerber Fmt 4.6, Leading zero omitted, Abs format (unit mm)*
G04 Created by KiCad (PCBNEW 4.0.6-e0-6349~52~ubuntu16.10.1) date Thu Nov 30 13:26:54 2017*
%MOMM*%
%LPD*%
G01*
G04 APERTURE LIST*
%ADD10C,0.100000*%
%ADD11R,1.700000X0.900000*%
%ADD12R,0.600000X0.500000*%
%ADD13R,0.500000X0.600000*%
%ADD14R,0.800000X0.800000*%
%ADD15R,0.400000X0.600000*%
%ADD16R,1.000000X1.250000*%
%ADD17R,0.600000X0.400000*%
%ADD18R,0.275000X0.250000*%
%ADD19R,0.250000X0.275000*%
%ADD20R,0.300000X0.300000*%
%ADD21R,0.250000X0.550000*%
%ADD22R,0.550000X0.250000*%
%ADD23R,1.700000X1.700000*%
%ADD24R,0.300000X1.400000*%
%ADD25R,1.600000X2.500000*%
%ADD26R,0.850000X0.450000*%
%ADD27R,0.800000X1.000000*%
G04 APERTURE END LIST*
D10*
D11*
X170500000Y-132700000D03*
X170500000Y-129300000D03*
D12*
X169100500Y-148018500D03*
X168000500Y-148018500D03*
X168000500Y-149098000D03*
X169100500Y-149098000D03*
X174137500Y-149034500D03*
X173037500Y-149034500D03*
X174159000Y-148082000D03*
X173059000Y-148082000D03*
D13*
X162306000Y-143573500D03*
X162306000Y-142473500D03*
X165064440Y-128889760D03*
X165064440Y-127789760D03*
D14*
X162306000Y-144907200D03*
X162306000Y-146507200D03*
D15*
X155384500Y-143192500D03*
X154484500Y-143192500D03*
X159448500Y-143256000D03*
X158548500Y-143256000D03*
D16*
X163623500Y-148780500D03*
X161623500Y-148780500D03*
D17*
X166497000Y-148913000D03*
X166497000Y-148013000D03*
X172466000Y-144007000D03*
X172466000Y-144907000D03*
X172466000Y-143192500D03*
X172466000Y-142292500D03*
D18*
X171768000Y-148776500D03*
X171768000Y-148276500D03*
D19*
X171505500Y-147751500D03*
X171005500Y-147751500D03*
X170505500Y-147751500D03*
D18*
X170243000Y-148276500D03*
X170243000Y-148776500D03*
D19*
X170505500Y-149301500D03*
X171005500Y-149301500D03*
X171505500Y-149301500D03*
D20*
X168585500Y-145363000D03*
D21*
X169100500Y-145448000D03*
X169600500Y-145448000D03*
X170100500Y-145448000D03*
X170600500Y-145448000D03*
D20*
X171115500Y-145363000D03*
D22*
X171200500Y-144348000D03*
X171200500Y-144848000D03*
X171200500Y-143848000D03*
X171200500Y-143348000D03*
D20*
X168585500Y-142833000D03*
D21*
X170600500Y-142748000D03*
X170100500Y-142748000D03*
X169600500Y-142748000D03*
X169100500Y-142748000D03*
D20*
X171115500Y-142833000D03*
D22*
X168500500Y-143348000D03*
X168500500Y-143848000D03*
X168500500Y-144348000D03*
X168500500Y-144848000D03*
D23*
X169850500Y-144098000D03*
D24*
X165973000Y-142094500D03*
X165473000Y-142094500D03*
X164973000Y-142094500D03*
X164473000Y-142094500D03*
X163973000Y-142094500D03*
X163973000Y-146494500D03*
X164473000Y-146494500D03*
X164973000Y-146494500D03*
X165473000Y-146494500D03*
X165973000Y-146494500D03*
D25*
X156948000Y-146859500D03*
D26*
X155448000Y-145859500D03*
X155448000Y-146859500D03*
X155448000Y-147859500D03*
X158448000Y-147859500D03*
X158448000Y-146859500D03*
X158448000Y-145859500D03*
D27*
X176276000Y-148964500D03*
X177226000Y-146564500D03*
X175326000Y-146564500D03*
D12*
X165098640Y-133271260D03*
X166198640Y-133271260D03*
X164065040Y-135620760D03*
X162965040Y-135620760D03*
X166278560Y-137728960D03*
X165178560Y-137728960D03*
D13*
X164073840Y-136594760D03*
X164073840Y-137694760D03*
D12*
X163836440Y-138993880D03*
X162736440Y-138993880D03*
D17*
X165115240Y-135072960D03*
X165115240Y-134172960D03*
X165115240Y-136807360D03*
X165115240Y-135907360D03*
D15*
X165997040Y-139989560D03*
X165097040Y-139989560D03*
X164145800Y-139984480D03*
X163245800Y-139984480D03*
X166433920Y-138943080D03*
X165533920Y-138943080D03*
D11*
X159486600Y-132700000D03*
X159486600Y-129300000D03*
M02*
