M48
;DRILL file {KiCad 4.0.6-e0-6349~52~ubuntu16.10.1} date Thu Nov 30 13:26:56 2017
;FORMAT={-:-/ absolute / inch / decimal}
FMAT,2
INCH,TZ
T1C0.012
T2C0.026
T3C0.032
%
G90
G05
M72
T1
X6.021Y-5.8238
X6.0216Y-5.8588
X6.0218Y-5.2548
X6.0226Y-5.7076
X6.0226Y-5.7422
X6.0236Y-5.681
X6.0252Y-5.7832
X6.0268Y-5.6408
X6.0292Y-5.6064
X6.038Y-5.2784
X6.0432Y-5.2366
X6.051Y-5.542
X6.0534Y-5.8614
X6.0684Y-5.2114
X6.0796Y-5.864
X6.0904Y-5.2768
X6.0914Y-5.5874
X6.0942Y-5.2388
X6.1016Y-5.184
X6.1248Y-5.5864
X6.1248Y-5.8666
X6.1334Y-5.153
X6.1378Y-5.4798
X6.1386Y-5.205
X6.1488Y-5.2462
X6.1502Y-5.5774
X6.1538Y-5.2846
X6.159Y-5.4952
X6.1652Y-5.4128
X6.166Y-5.31
X6.1666Y-5.1246
X6.168Y-5.366
X6.1906Y-5.8616
X6.2356Y-5.1686
X6.2375Y-5.6675
X6.2375Y-5.715
X6.2558Y-5.4006
X6.2558Y-5.4428
X6.2562Y-5.3626
X6.2592Y-5.5018
X6.2626Y-5.3026
X6.2658Y-5.863
X6.2786Y-5.0334
X6.2786Y-5.16
X6.2798Y-5.4898
X6.2866Y-5.2832
X6.2934Y-5.3292
X6.2954Y-5.3608
X6.2968Y-5.5388
X6.301Y-5.5116
X6.3018Y-5.412
X6.3058Y-5.4438
X6.31Y-5.888
X6.316Y-5.722
X6.3228Y-5.5402
X6.323Y-5.0018
X6.324Y-5.87
X6.324Y-5.87
X6.3246Y-5.0366
X6.3284Y-5.4738
X6.3288Y-5.3676
X6.336Y-5.3224
X6.3382Y-5.2792
X6.3416Y-5.408
X6.3416Y-5.51
X6.3429Y-5.79
X6.3472Y-5.1536
X6.348Y-5.6
X6.348Y-5.6738
X6.3498Y-5.1788
X6.3536Y-4.9772
X6.3546Y-5.244
X6.3558Y-5.2108
X6.3562Y-5.0366
X6.36Y-5.1026
X6.3622Y-5.4624
X6.363Y-5.4828
X6.3648Y-5.0002
X6.3654Y-5.2768
X6.368Y-5.802
X6.3694Y-5.4426
X6.3706Y-5.5016
X6.3722Y-5.5204
X6.3728Y-5.5422
X6.3768Y-5.4244
X6.3804Y-5.471
X6.3848Y-5.3678
X6.3858Y-4.9518
X6.3858Y-4.9836
X6.3858Y-5.1358
X6.3862Y-5.2424
X6.3862Y-5.3318
X6.3864Y-5.3488
X6.3866Y-5.3148
X6.3882Y-5.5818
X6.392Y-5.5198
X6.3928Y-5.542
X6.3932Y-5.2704
X6.3942Y-5.1718
X6.3954Y-5.2104
X6.3954Y-5.4318
X6.398Y-5.0222
X6.398Y-5.064
X6.3996Y-5.3804
X6.4Y-5.2988
X6.4018Y-5.4136
X6.4064Y-4.94
X6.4096Y-4.963
X6.412Y-5.0988
X6.4121Y-5.8551
X6.4164Y-5.31
X6.4164Y-5.4022
X6.4166Y-4.9836
X6.418Y-5.3664
X6.4194Y-5.3844
X6.42Y-5.2372
X6.4264Y-5.1364
X6.427Y-4.9382
X6.427Y-5.1718
X6.4276Y-5.001
X6.428Y-5.2698
X6.429Y-4.959
X6.4304Y-5.2988
X6.4324Y-5.2022
X6.4336Y-4.978
X6.4378Y-5.065
X6.4404Y-5.6896
X6.4428Y-5.0152
X6.4446Y-5.6584
X6.4462Y-4.9966
X6.4486Y-5.2974
X6.4566Y-5.226
X6.4566Y-5.262
X6.4568Y-5.2444
X6.4568Y-5.2804
X6.4574Y-5.1536
X6.4574Y-5.1896
X6.4576Y-5.172
X6.4576Y-5.208
X6.4598Y-5.0798
X6.4598Y-5.1158
X6.46Y-5.0982
X6.46Y-5.1342
X6.4612Y-5.0074
X6.4612Y-5.0434
X6.4614Y-5.0258
X6.4614Y-5.0618
X6.482Y-5.86
X6.4975Y-5.7169
X6.4985Y-5.6753
X6.5239Y-5.8117
X6.5352Y-5.0094
X6.5352Y-5.0454
X6.5354Y-5.0278
X6.5354Y-5.0638
X6.5374Y-5.0828
X6.5374Y-5.1188
X6.5376Y-5.1012
X6.5376Y-5.1372
X6.5422Y-5.3298
X6.5428Y-5.3502
X6.544Y-5.1562
X6.544Y-5.1922
X6.544Y-5.3086
X6.5442Y-5.1746
X6.5442Y-5.2106
X6.5446Y-5.3656
X6.5476Y-5.3842
X6.5484Y-5.2888
X6.5492Y-4.9956
X6.5528Y-5.013
X6.5596Y-4.981
X6.5638Y-5.207
X6.5658Y-4.9648
X6.5664Y-5.5814
X6.5666Y-5.3812
X6.567Y-4.945
X6.5674Y-5.0002
X6.5675Y-5.6675
X6.5676Y-5.2862
X6.57Y-5.7875
X6.5712Y-5.169
X6.5732Y-5.0988
X6.577Y-4.984
X6.5808Y-5.2168
X6.5812Y-5.3066
X6.5825Y-5.8675
X6.5828Y-5.2732
X6.5836Y-4.9634
X6.5846Y-5.0684
X6.5846Y-5.3934
X6.585Y-5.0232
X6.5862Y-5.2348
X6.5882Y-4.9428
X6.5882Y-5.5248
X6.5884Y-5.417
X6.589Y-5.4344
X6.5892Y-5.5426
X6.5898Y-5.507
X6.59Y-5.2542
X6.5904Y-5.4532
X6.591Y-5.4906
X6.5916Y-5.472
X6.5925Y-5.6425
X6.5968Y-5.1332
X6.5991Y-5.782
X6.6028Y-4.9874
X6.6054Y-5.1766
X6.6078Y-5.5532
X6.6124Y-5.0458
X6.6125Y-5.6175
X6.6134Y-4.9536
X6.6137Y-5.7409
X6.6176Y-5.2814
X6.6204Y-5.0136
X6.6206Y-5.469
X6.628Y-5.0972
X6.628Y-5.2414
X6.629Y-5.5552
X6.6294Y-5.5134
X6.6302Y-5.1418
X6.6308Y-5.4274
X6.635Y-5.322
X6.6354Y-5.2066
X6.6354Y-5.3708
X6.6446Y-4.982
X6.6492Y-5.5556
X6.654Y-5.798
X6.6616Y-5.4596
X6.6682Y-5.0388
X6.6688Y-5.5554
X6.6744Y-5.2776
X6.678Y-5.3792
X6.6786Y-5.3198
X6.6788Y-5.0094
X6.6836Y-5.4334
X6.6838Y-5.5472
X6.6875Y-5.88
X6.6902Y-5.5274
X6.6912Y-5.4854
X6.695Y-5.5939
X6.7062Y-5.0292
X6.7066Y-5.4058
X6.709Y-5.5252
X6.709Y-5.577
X6.7178Y-5.2824
X6.718Y-5.1616
X6.7332Y-5.3488
X6.74Y-5.8375
X6.7412Y-5.5284
X6.746Y-5.748
X6.7468Y-5.4236
X6.7474Y-5.4774
X6.7608Y-5.3108
X6.775Y-5.536
X6.778Y-5.8377
X6.778Y-5.886
X6.7806Y-5.337
X6.7824Y-5.168
X6.7824Y-5.2222
X6.7828Y-5.397
X6.7958Y-5.1064
X6.7988Y-5.4976
X6.8Y-5.736
X6.8012Y-5.4522
X6.816Y-5.5382
X6.8172Y-5.19
X6.8188Y-5.2574
X6.8236Y-5.1284
X6.826Y-5.706
X6.8322Y-5.227
X6.8358Y-5.396
X6.8398Y-5.624
X6.8472Y-5.197
X6.8488Y-5.2854
X6.8488Y-5.4896
X6.8502Y-5.4456
X6.8504Y-5.1514
X6.8582Y-5.5288
X6.8638Y-5.2574
X6.87Y-5.7625
X6.8708Y-5.2232
X6.8782Y-5.1782
X6.8842Y-5.28
X6.8884Y-5.7365
X6.8904Y-5.8402
X6.896Y-5.862
X6.8974Y-5.5654
X6.9094Y-5.206
X6.9146Y-5.2784
X6.9152Y-5.2494
X6.9232Y-5.5706
X6.9316Y-5.5954
X6.9452Y-5.2328
X6.946Y-5.72
X6.9506Y-5.279
X6.9714Y-5.2618
T2
X6.864Y-5.668
X6.914Y-5.668
X6.964Y-5.668
T3
X6.498Y-4.95
T0
M30
