G04 #@! TF.FileFunction,Copper,L1,Top,Signal*
%FSLAX46Y46*%
G04 Gerber Fmt 4.6, Leading zero omitted, Abs format (unit mm)*
G04 Created by KiCad (PCBNEW 4.0.6-e0-6349~52~ubuntu16.10.1) date Thu Nov 30 13:26:54 2017*
%MOMM*%
%LPD*%
G01*
G04 APERTURE LIST*
%ADD10C,0.100000*%
%ADD11C,0.400000*%
%ADD12R,1.700000X0.900000*%
%ADD13R,0.600000X0.500000*%
%ADD14R,0.500000X0.600000*%
%ADD15R,0.800000X0.800000*%
%ADD16R,0.400000X0.600000*%
%ADD17R,1.000000X1.250000*%
%ADD18R,1.000000X1.000000*%
%ADD19O,1.000000X1.000000*%
%ADD20R,0.600000X0.400000*%
%ADD21R,0.275000X0.250000*%
%ADD22R,0.250000X0.275000*%
%ADD23R,0.300000X0.300000*%
%ADD24R,0.250000X0.550000*%
%ADD25R,0.550000X0.250000*%
%ADD26R,1.700000X1.700000*%
%ADD27R,0.300000X1.400000*%
%ADD28R,1.600000X2.500000*%
%ADD29R,0.850000X0.450000*%
%ADD30R,0.800000X1.000000*%
%ADD31C,1.998980*%
%ADD32C,0.152400*%
%ADD33C,0.254000*%
G04 APERTURE END LIST*
D10*
D11*
X173730920Y-142849600D03*
X161239200Y-144114520D03*
X163586160Y-144515840D03*
X163692840Y-143723360D03*
X159151320Y-148920200D03*
X157241240Y-148884640D03*
X155569920Y-149011640D03*
X154421840Y-148945600D03*
X153756360Y-148879560D03*
X152948640Y-148813520D03*
X152933400Y-147924520D03*
X153040080Y-146893280D03*
X152974040Y-145851880D03*
X152974040Y-144973040D03*
X152999440Y-144297400D03*
X153080720Y-143276320D03*
X153141680Y-142402560D03*
X156215080Y-141665960D03*
X155569920Y-141894560D03*
X154721560Y-141919960D03*
X170637200Y-131104640D03*
X159476440Y-131064000D03*
X158384240Y-131282440D03*
X155920440Y-132207000D03*
X156179520Y-133253480D03*
X154792680Y-133065520D03*
X154696160Y-134030720D03*
X153365200Y-134071360D03*
X152953720Y-133471920D03*
X153497280Y-133009640D03*
X154137360Y-132369560D03*
X154980640Y-131673600D03*
X155788360Y-130886200D03*
X156631640Y-130164840D03*
X174340520Y-133537960D03*
X173918880Y-132003800D03*
X173537880Y-132765800D03*
X175646080Y-133334760D03*
X174518320Y-132669280D03*
X173156880Y-131826000D03*
X172272960Y-131267200D03*
X172272960Y-132643880D03*
X173197520Y-133537960D03*
X173959520Y-134249160D03*
X174858680Y-134112000D03*
X175630840Y-134071360D03*
X176545240Y-134086600D03*
X177073560Y-133649720D03*
X176408080Y-132913120D03*
X175498760Y-132232400D03*
X174706280Y-131526280D03*
X174000160Y-130845560D03*
X173319440Y-130261360D03*
X172613320Y-129702560D03*
X168351200Y-133131560D03*
X168539160Y-132247640D03*
X167777160Y-131485640D03*
X166908480Y-131292600D03*
X167558720Y-130383280D03*
X168407080Y-130601720D03*
X166959280Y-129509520D03*
X167248840Y-128737360D03*
X168351200Y-129468880D03*
X167954960Y-128163320D03*
X167259000Y-127589280D03*
X167711120Y-126679960D03*
X168158160Y-127345440D03*
X169372280Y-127985520D03*
X170337480Y-127741680D03*
X169641520Y-127238760D03*
X168772840Y-126542800D03*
X167980360Y-125821440D03*
X161681160Y-134030720D03*
X161406840Y-133197600D03*
X161437320Y-132354320D03*
X162209480Y-133156960D03*
X162387280Y-133868160D03*
X163271200Y-133852920D03*
X163068000Y-133024880D03*
X162443160Y-132344160D03*
X163382960Y-132135880D03*
X163245800Y-131363720D03*
X162412680Y-131363720D03*
X161284920Y-131541520D03*
X161218880Y-130901440D03*
X162199320Y-130449320D03*
X163230560Y-130464560D03*
X162864800Y-129509520D03*
X161544000Y-129606040D03*
X162509200Y-128625600D03*
X163520120Y-128651000D03*
X162199320Y-126583440D03*
X161665920Y-127005080D03*
X160604200Y-127045720D03*
X161381440Y-126420880D03*
X162199320Y-125775720D03*
X162509200Y-127563880D03*
X161447480Y-127929640D03*
X160644840Y-127929640D03*
X159476440Y-127848360D03*
X169621200Y-136631680D03*
X169636440Y-135122920D03*
X168529000Y-135178800D03*
X168539160Y-136418320D03*
X168422320Y-137855960D03*
X168163240Y-138912600D03*
X169204640Y-138673840D03*
X169763440Y-138008360D03*
X170347640Y-137307320D03*
X171023280Y-135859520D03*
X171368720Y-137759440D03*
X172283120Y-137083800D03*
X171383960Y-139125960D03*
X172750480Y-138485880D03*
X172689520Y-139639040D03*
X169956480Y-139329160D03*
X168386760Y-140040360D03*
X169931080Y-140395960D03*
X170408600Y-140340080D03*
X171226480Y-140421360D03*
X172085000Y-140614400D03*
X173126400Y-140670280D03*
X175193960Y-141361160D03*
X176062640Y-142123160D03*
X175849280Y-141493240D03*
X174198280Y-140431520D03*
X173959520Y-139435840D03*
X173995080Y-138318240D03*
X173629320Y-137058400D03*
X172227240Y-135559800D03*
X171724320Y-134894320D03*
X170632120Y-134172960D03*
X169529760Y-134051040D03*
X168087040Y-134147560D03*
X167162480Y-134787640D03*
X161076640Y-139954000D03*
X160741360Y-139034520D03*
X160167320Y-138272520D03*
X160065720Y-137464800D03*
X161076640Y-137363200D03*
X160751520Y-136337040D03*
X159903160Y-136164320D03*
X159852360Y-135361680D03*
X160934400Y-135188960D03*
X160990280Y-134091680D03*
X159679640Y-134193280D03*
X159070040Y-134686040D03*
X158907480Y-136210040D03*
X158897320Y-137175240D03*
X158897320Y-138247120D03*
X159938720Y-140685520D03*
X158983680Y-139745720D03*
X159506920Y-139440920D03*
X160045400Y-139994640D03*
X160599120Y-140721080D03*
X156306520Y-134228840D03*
X156616400Y-134874000D03*
X156667200Y-136296400D03*
X156596080Y-137485120D03*
X155900120Y-139186920D03*
X156438600Y-139578080D03*
X162560000Y-134589520D03*
X162219640Y-134995920D03*
X162209480Y-135427720D03*
X162214560Y-135859520D03*
X162173920Y-136342120D03*
X162549840Y-136662160D03*
X167340280Y-125547120D03*
X167223440Y-126070360D03*
X167055800Y-126593600D03*
X166811960Y-127005080D03*
X162722560Y-125476000D03*
X162803840Y-126060200D03*
X162981640Y-126583440D03*
X163261040Y-127025400D03*
X163647120Y-127386080D03*
X166441120Y-127330200D03*
X163245800Y-125430280D03*
X163296600Y-125958600D03*
X163413440Y-126441200D03*
X163733480Y-126913640D03*
X166801800Y-125603000D03*
X166771320Y-126105920D03*
X166613840Y-126517400D03*
X166349680Y-126888240D03*
X169768520Y-140898880D03*
X169387520Y-141107160D03*
X168889680Y-141112240D03*
X168376600Y-141102080D03*
X167838120Y-141051280D03*
X167365680Y-140782040D03*
X167340280Y-140329920D03*
X167380920Y-139877800D03*
X167411400Y-139461240D03*
X167426640Y-138988800D03*
X167396160Y-138511280D03*
X167360600Y-138033760D03*
X167345360Y-137591800D03*
X167248840Y-136992360D03*
X166791640Y-136682480D03*
X166309040Y-136758680D03*
X166232840Y-136286240D03*
X166187120Y-135895080D03*
X166171880Y-135376920D03*
X166217600Y-134838440D03*
X166329360Y-134335520D03*
X166817040Y-134269480D03*
X167203120Y-133939280D03*
X167386000Y-133456680D03*
X167289480Y-132963920D03*
X167152320Y-132506720D03*
X166720520Y-132257800D03*
X166222680Y-132349240D03*
X166217600Y-131881880D03*
X166222680Y-131434840D03*
X166217600Y-130967480D03*
X166055040Y-130484880D03*
X166049960Y-130017520D03*
X166055040Y-129570480D03*
X166049960Y-129103120D03*
X165999160Y-128620520D03*
X165994080Y-128153160D03*
X165999160Y-127706120D03*
X165994080Y-127238760D03*
X164119560Y-128569720D03*
X164114480Y-128102360D03*
X164119560Y-127655320D03*
X164114480Y-127187960D03*
X164084000Y-130408680D03*
X164078920Y-129941320D03*
X164084000Y-129494280D03*
X164078920Y-129026920D03*
X164023040Y-132283200D03*
X164017960Y-131815840D03*
X164023040Y-131368800D03*
X164017960Y-130901440D03*
X164002720Y-133207760D03*
X163997640Y-132740400D03*
X163997640Y-133654800D03*
X164002720Y-134122160D03*
X163794440Y-134553960D03*
X163332160Y-134589520D03*
X162976560Y-134874000D03*
X161970720Y-137779760D03*
X162443160Y-137967720D03*
X163017200Y-136306560D03*
X163052760Y-136763760D03*
X162976560Y-137215880D03*
X162605720Y-137505440D03*
X161782760Y-138242040D03*
X161599880Y-138744960D03*
X161620200Y-139263120D03*
X161813240Y-139740640D03*
X162356800Y-140202920D03*
X161853880Y-140218160D03*
X161869120Y-140771880D03*
D12*
X170500000Y-132700000D03*
X170500000Y-129300000D03*
D13*
X169100500Y-148018500D03*
X168000500Y-148018500D03*
X168000500Y-149098000D03*
X169100500Y-149098000D03*
X174137500Y-149034500D03*
X173037500Y-149034500D03*
X174159000Y-148082000D03*
X173059000Y-148082000D03*
D14*
X162306000Y-143573500D03*
X162306000Y-142473500D03*
X165064440Y-128889760D03*
X165064440Y-127789760D03*
D15*
X162306000Y-144907200D03*
X162306000Y-146507200D03*
D16*
X155384500Y-143192500D03*
X154484500Y-143192500D03*
X159448500Y-143256000D03*
X158548500Y-143256000D03*
D17*
X163623500Y-148780500D03*
X161623500Y-148780500D03*
D18*
X174345600Y-143967200D03*
D19*
X175615600Y-143967200D03*
X176885600Y-143967200D03*
D20*
X166497000Y-148913000D03*
X166497000Y-148013000D03*
X172466000Y-144007000D03*
X172466000Y-144907000D03*
X172466000Y-143192500D03*
X172466000Y-142292500D03*
D21*
X171768000Y-148776500D03*
X171768000Y-148276500D03*
D22*
X171505500Y-147751500D03*
X171005500Y-147751500D03*
X170505500Y-147751500D03*
D21*
X170243000Y-148276500D03*
X170243000Y-148776500D03*
D22*
X170505500Y-149301500D03*
X171005500Y-149301500D03*
X171505500Y-149301500D03*
D23*
X168585500Y-145363000D03*
D24*
X169100500Y-145448000D03*
X169600500Y-145448000D03*
X170100500Y-145448000D03*
X170600500Y-145448000D03*
D23*
X171115500Y-145363000D03*
D25*
X171200500Y-144348000D03*
X171200500Y-144848000D03*
X171200500Y-143848000D03*
X171200500Y-143348000D03*
D23*
X168585500Y-142833000D03*
D24*
X170600500Y-142748000D03*
X170100500Y-142748000D03*
X169600500Y-142748000D03*
X169100500Y-142748000D03*
D23*
X171115500Y-142833000D03*
D25*
X168500500Y-143348000D03*
X168500500Y-143848000D03*
X168500500Y-144348000D03*
X168500500Y-144848000D03*
D26*
X169850500Y-144098000D03*
D27*
X165973000Y-142094500D03*
X165473000Y-142094500D03*
X164973000Y-142094500D03*
X164473000Y-142094500D03*
X163973000Y-142094500D03*
X163973000Y-146494500D03*
X164473000Y-146494500D03*
X164973000Y-146494500D03*
X165473000Y-146494500D03*
X165973000Y-146494500D03*
D28*
X156948000Y-146859500D03*
D29*
X155448000Y-145859500D03*
X155448000Y-146859500D03*
X155448000Y-147859500D03*
X158448000Y-147859500D03*
X158448000Y-146859500D03*
X158448000Y-145859500D03*
D30*
X176276000Y-148964500D03*
X177226000Y-146564500D03*
X175326000Y-146564500D03*
D13*
X165098640Y-133271260D03*
X166198640Y-133271260D03*
X164065040Y-135620760D03*
X162965040Y-135620760D03*
X166278560Y-137728960D03*
X165178560Y-137728960D03*
D14*
X164073840Y-136594760D03*
X164073840Y-137694760D03*
D13*
X163836440Y-138993880D03*
X162736440Y-138993880D03*
D31*
X165049200Y-125730000D03*
D20*
X165115240Y-135072960D03*
X165115240Y-134172960D03*
X165115240Y-136807360D03*
X165115240Y-135907360D03*
D16*
X165997040Y-139989560D03*
X165097040Y-139989560D03*
X164145800Y-139984480D03*
X163245800Y-139984480D03*
X166433920Y-138943080D03*
X165533920Y-138943080D03*
D12*
X159486600Y-132700000D03*
X159486600Y-129300000D03*
D11*
X162377120Y-140766800D03*
X175016160Y-148341080D03*
X162260280Y-141777720D03*
X166786560Y-141767560D03*
X153695400Y-140766800D03*
X172161200Y-149504400D03*
X175158400Y-148894800D03*
X160629600Y-149098000D03*
X169011600Y-147269200D03*
X160629600Y-149098000D03*
X160426400Y-145338800D03*
X162062160Y-138963400D03*
X162867058Y-148720179D03*
X160274000Y-149555200D03*
X161747200Y-147370800D03*
X164642800Y-148844000D03*
X171196000Y-148272500D03*
X167195500Y-149034500D03*
X169862500Y-149352000D03*
X165707278Y-147616703D03*
X161109010Y-147066000D03*
X172160225Y-148276500D03*
X167989088Y-145819427D03*
X158432500Y-143954500D03*
X158432500Y-145161000D03*
X165035723Y-145209616D03*
X165060709Y-144152405D03*
X161239200Y-142240000D03*
X170408600Y-141655800D03*
X171348400Y-145999200D03*
X172720000Y-145694400D03*
X173380400Y-144932400D03*
X176428400Y-145288000D03*
X166878000Y-147002500D03*
X166814500Y-143954500D03*
X167617426Y-146863316D03*
X167449500Y-143319390D03*
X174966386Y-145708030D03*
X170053000Y-142084410D03*
X167957500Y-142684500D03*
X174498000Y-146367500D03*
D32*
X169552900Y-148018500D02*
X169100500Y-148018500D01*
X169695100Y-148018500D02*
X169552900Y-148018500D01*
X169953100Y-148276500D02*
X169695100Y-148018500D01*
X170243000Y-148276500D02*
X169953100Y-148276500D01*
D33*
X162306000Y-142473500D02*
X161802000Y-142473500D01*
X161802000Y-142473500D02*
X161019500Y-143256000D01*
X161019500Y-143256000D02*
X160375600Y-143256000D01*
X159448500Y-143256000D02*
X159448500Y-142702000D01*
X159448500Y-142702000D02*
X158717260Y-141970760D01*
X158717260Y-141970760D02*
X158263260Y-141970760D01*
X157059300Y-140766800D02*
X158263260Y-141970760D01*
X156547160Y-142483840D02*
X157750180Y-142483840D01*
X157750180Y-142483840D02*
X158263260Y-141970760D01*
X155384500Y-143192500D02*
X155838500Y-143192500D01*
X155838500Y-143192500D02*
X156547160Y-142483840D01*
X174159000Y-148082000D02*
X174757080Y-148082000D01*
X174757080Y-148082000D02*
X175016160Y-148341080D01*
D32*
X162260280Y-141777720D02*
X162260280Y-142427780D01*
X162260280Y-142427780D02*
X162306000Y-142473500D01*
X166433920Y-138943080D02*
X166433920Y-141414920D01*
X166433920Y-141414920D02*
X166786560Y-141767560D01*
D33*
X153695400Y-140766800D02*
X157059300Y-140766800D01*
X159448500Y-143156000D02*
X159448500Y-143256000D01*
D32*
X172161200Y-149504400D02*
X172161200Y-149169700D01*
X172161200Y-149169700D02*
X171768000Y-148776500D01*
X174137500Y-149034500D02*
X175018700Y-149034500D01*
X175018700Y-149034500D02*
X175158400Y-148894800D01*
X169100500Y-148018500D02*
X169100500Y-147358100D01*
X169100500Y-147358100D02*
X169011600Y-147269200D01*
D33*
X160629600Y-149098000D02*
X161306000Y-149098000D01*
X161306000Y-149098000D02*
X161623500Y-148780500D01*
X159448500Y-143256000D02*
X160375600Y-143256000D01*
X160375600Y-143256000D02*
X160375600Y-145288000D01*
X160375600Y-145288000D02*
X160426400Y-145338800D01*
X162306000Y-142473500D02*
X163594000Y-142473500D01*
X163594000Y-142473500D02*
X163973000Y-142094500D01*
X162306000Y-142523500D02*
X162306000Y-142473500D01*
D32*
X155384500Y-143192500D02*
X155736900Y-143192500D01*
X158448000Y-146859500D02*
X159025400Y-146859500D01*
X159025400Y-146859500D02*
X160946400Y-148780500D01*
X160946400Y-148780500D02*
X160971100Y-148780500D01*
X160971100Y-148780500D02*
X161623500Y-148780500D01*
X170243000Y-148276500D02*
X170532900Y-148276500D01*
X170532900Y-148276500D02*
X171032900Y-148776500D01*
X171032900Y-148776500D02*
X171478100Y-148776500D01*
X171478100Y-148776500D02*
X171768000Y-148776500D01*
X170243000Y-148276500D02*
X170243000Y-148014000D01*
X170243000Y-148014000D02*
X170505500Y-147751500D01*
D33*
X169150500Y-148018500D02*
X169100500Y-148018500D01*
D32*
X172454813Y-146427813D02*
X174109000Y-148082000D01*
X170100500Y-145875400D02*
X170652913Y-146427813D01*
X170652913Y-146427813D02*
X172454813Y-146427813D01*
X170100500Y-145448000D02*
X170100500Y-145875400D01*
X174109000Y-148082000D02*
X174159000Y-148082000D01*
X174159000Y-148082000D02*
X174159000Y-149013000D01*
X174159000Y-149013000D02*
X174137500Y-149034500D01*
X162736440Y-138993880D02*
X162092640Y-138993880D01*
X162092640Y-138993880D02*
X162062160Y-138963400D01*
X170742600Y-129057400D02*
X170500000Y-129300000D01*
X174345600Y-143967200D02*
X174345600Y-143314800D01*
X174345600Y-143314800D02*
X173323300Y-142292500D01*
X173323300Y-142292500D02*
X172918400Y-142292500D01*
X172918400Y-142292500D02*
X172466000Y-142292500D01*
D33*
X162867058Y-148778058D02*
X162867058Y-148720179D01*
X162869500Y-148780500D02*
X162867058Y-148778058D01*
X163623500Y-148780500D02*
X162869500Y-148780500D01*
D32*
X154533600Y-148336000D02*
X155752800Y-149555200D01*
X155752800Y-149555200D02*
X160274000Y-149555200D01*
X154533600Y-148006582D02*
X154533600Y-148336000D01*
X154533600Y-147320000D02*
X154533600Y-148006582D01*
X154540499Y-147313101D02*
X154533600Y-147320000D01*
X154838300Y-147269200D02*
X154794399Y-147313101D01*
X154794399Y-147313101D02*
X154540499Y-147313101D01*
X155448000Y-146859500D02*
X155248000Y-146859500D01*
X155248000Y-146859500D02*
X154838300Y-147269200D01*
D33*
X161626599Y-147250199D02*
X161747200Y-147370800D01*
X161626599Y-144932601D02*
X161626599Y-147250199D01*
X162306000Y-144907200D02*
X161652000Y-144907200D01*
X161652000Y-144907200D02*
X161626599Y-144932601D01*
X163623500Y-148780500D02*
X164579300Y-148780500D01*
X164579300Y-148780500D02*
X164642800Y-148844000D01*
D32*
X170600500Y-142748000D02*
X170600500Y-142598000D01*
X170600500Y-142598000D02*
X170906000Y-142292500D01*
X170906000Y-142292500D02*
X172013600Y-142292500D01*
X172013600Y-142292500D02*
X172466000Y-142292500D01*
X169850500Y-144098000D02*
X169600500Y-144348000D01*
X169600500Y-144348000D02*
X169600500Y-145448000D01*
X169850500Y-144098000D02*
X170600500Y-143348000D01*
X170600500Y-143348000D02*
X170600500Y-142748000D01*
D33*
X165036500Y-143573500D02*
X165473000Y-143137000D01*
X165473000Y-143137000D02*
X165473000Y-142094500D01*
X162306000Y-143573500D02*
X165036500Y-143573500D01*
X162306000Y-144907200D02*
X162306000Y-143573500D01*
D32*
X171124488Y-147080588D02*
X171505500Y-147461600D01*
X171505500Y-147461600D02*
X171505500Y-147751500D01*
X169600500Y-145875400D02*
X170805688Y-147080588D01*
X170805688Y-147080588D02*
X171124488Y-147080588D01*
X169600500Y-145448000D02*
X169600500Y-145875400D01*
X171505500Y-147751500D02*
X171401899Y-147855101D01*
X171401899Y-147855101D02*
X171401899Y-148066601D01*
X171401899Y-148066601D02*
X171196000Y-148272500D01*
X168000500Y-149098000D02*
X168000500Y-148018500D01*
X167195500Y-149034500D02*
X167937000Y-149034500D01*
X167937000Y-149034500D02*
X168000500Y-149098000D01*
X170505500Y-149301500D02*
X169913000Y-149301500D01*
X169913000Y-149301500D02*
X169862500Y-149352000D01*
X171005500Y-149301500D02*
X170505500Y-149301500D01*
X173037500Y-149034500D02*
X173087500Y-149034500D01*
X173087500Y-149034500D02*
X173566101Y-149513101D01*
X173566101Y-149513101D02*
X175174999Y-149513101D01*
X175174999Y-149513101D02*
X175723600Y-148964500D01*
X175723600Y-148964500D02*
X176276000Y-148964500D01*
X173059000Y-148082000D02*
X173009000Y-148082000D01*
X172678500Y-147751500D02*
X171782900Y-147751500D01*
X173009000Y-148082000D02*
X172678500Y-147751500D01*
X171782900Y-147751500D02*
X171505500Y-147751500D01*
X173059000Y-148082000D02*
X173059000Y-149013000D01*
X173059000Y-149013000D02*
X173037500Y-149034500D01*
X163286440Y-139989560D02*
X163286440Y-140089560D01*
X164473000Y-141276120D02*
X164473000Y-142094500D01*
X163286440Y-140089560D02*
X164473000Y-141276120D01*
X163286440Y-139989560D02*
X163286440Y-138079760D01*
X163286440Y-138079760D02*
X163671440Y-137694760D01*
X163671440Y-137694760D02*
X164073840Y-137694760D01*
D33*
X165178560Y-137728960D02*
X165178560Y-136870680D01*
X165178560Y-136870680D02*
X165115240Y-136807360D01*
D32*
X165997040Y-139989560D02*
X165997040Y-140089560D01*
X165997040Y-140089560D02*
X164973000Y-141113600D01*
X164973000Y-141113600D02*
X164973000Y-141242100D01*
X164973000Y-141242100D02*
X164973000Y-142094500D01*
X165997040Y-139989560D02*
X165997040Y-138497440D01*
X165997040Y-138497440D02*
X165228560Y-137728960D01*
X165228560Y-137728960D02*
X165178560Y-137728960D01*
D33*
X165139840Y-137728960D02*
X165089840Y-137728960D01*
D32*
X162306000Y-146507200D02*
X163960300Y-146507200D01*
X163960300Y-146507200D02*
X163973000Y-146494500D01*
X165907277Y-147416704D02*
X165707278Y-147616703D01*
X165973000Y-146494500D02*
X165973000Y-147350981D01*
X165973000Y-147350981D02*
X165907277Y-147416704D01*
X158775408Y-144732398D02*
X160909011Y-146866001D01*
X160909011Y-146866001D02*
X161109010Y-147066000D01*
X156197702Y-144732398D02*
X158775408Y-144732398D01*
X154484500Y-143192500D02*
X154484500Y-143292500D01*
X154484500Y-143292500D02*
X155924398Y-144732398D01*
X155924398Y-144732398D02*
X156197702Y-144732398D01*
X155448000Y-145482100D02*
X156197702Y-144732398D01*
X155448000Y-145859500D02*
X155448000Y-145482100D01*
X170813381Y-147385399D02*
X170610499Y-147385399D01*
X169100500Y-145875400D02*
X169100500Y-145448000D01*
X170610499Y-147385399D02*
X169100500Y-145875400D01*
X170859101Y-147605101D02*
X170859101Y-147431119D01*
X170859101Y-147431119D02*
X170813381Y-147385399D01*
X171005500Y-147751500D02*
X170859101Y-147605101D01*
X166435186Y-146334714D02*
X167871156Y-146334714D01*
X169100500Y-145598000D02*
X169100500Y-145448000D01*
X165973000Y-146494500D02*
X166275400Y-146494500D01*
X168284580Y-146413920D02*
X169100500Y-145598000D01*
X167950362Y-146413920D02*
X168284580Y-146413920D01*
X167871156Y-146334714D02*
X167950362Y-146413920D01*
X166275400Y-146494500D02*
X166435186Y-146334714D01*
X165473000Y-147225136D02*
X165473000Y-146494500D01*
X164898734Y-147799402D02*
X165473000Y-147225136D01*
X161008070Y-147799402D02*
X164898734Y-147799402D01*
X159068168Y-145859500D02*
X161008070Y-147799402D01*
X158448000Y-145859500D02*
X159068168Y-145859500D01*
X158432500Y-143954500D02*
X158432500Y-143372000D01*
X158432500Y-143372000D02*
X158548500Y-143256000D01*
X158448000Y-145859500D02*
X158448000Y-145176500D01*
X158448000Y-145176500D02*
X158432500Y-145161000D01*
X172160225Y-148276500D02*
X172163835Y-148280110D01*
X171768000Y-148276500D02*
X172160225Y-148276500D01*
X165752100Y-145363000D02*
X167957500Y-145363000D01*
X165473000Y-146494500D02*
X165473000Y-145642100D01*
X165473000Y-145642100D02*
X165752100Y-145363000D01*
X167989088Y-145395163D02*
X167989088Y-145819427D01*
X167989088Y-145394588D02*
X167989088Y-145395163D01*
X167957500Y-145363000D02*
X167989088Y-145394588D01*
X167957500Y-145363000D02*
X168283100Y-145363000D01*
X168283100Y-145363000D02*
X168585500Y-145363000D01*
X169100500Y-142598000D02*
X168758399Y-142255899D01*
X168758399Y-142255899D02*
X167739545Y-142255899D01*
X167739545Y-142255899D02*
X165314438Y-144681006D01*
X169100500Y-142748000D02*
X169100500Y-142598000D01*
X164806980Y-144681006D02*
X164473000Y-145014986D01*
X165314438Y-144681006D02*
X164806980Y-144681006D01*
X164473000Y-145642100D02*
X164473000Y-146494500D01*
X164473000Y-145014986D02*
X164473000Y-145642100D01*
X164973000Y-146494500D02*
X164973000Y-145272339D01*
X164973000Y-145272339D02*
X165035723Y-145209616D01*
X169230988Y-141951088D02*
X167377894Y-141951088D01*
X165360708Y-143852406D02*
X165060709Y-144152405D01*
X167377894Y-141951088D02*
X165476576Y-143852406D01*
X165476576Y-143852406D02*
X165360708Y-143852406D01*
X169600500Y-142748000D02*
X169600500Y-142320600D01*
X169600500Y-142320600D02*
X169230988Y-141951088D01*
X169100500Y-149500400D02*
X169100500Y-149098000D01*
X169050500Y-149098000D02*
X169100500Y-149098000D01*
X168571899Y-149576601D02*
X169050500Y-149098000D01*
X166808201Y-149576601D02*
X168571899Y-149576601D01*
X166497000Y-149265400D02*
X166808201Y-149576601D01*
X166497000Y-148913000D02*
X166497000Y-149265400D01*
X169380702Y-149780602D02*
X169100500Y-149500400D01*
X171316298Y-149780602D02*
X169380702Y-149780602D01*
X171505500Y-149591400D02*
X171316298Y-149780602D01*
X171505500Y-149301500D02*
X171505500Y-149591400D01*
X175270160Y-145019746D02*
X174704536Y-145019746D01*
X174704536Y-145019746D02*
X173601280Y-146123002D01*
X175615600Y-143967200D02*
X175615600Y-144674306D01*
X175615600Y-144674306D02*
X175270160Y-145019746D01*
X157846000Y-132700000D02*
X157846000Y-140294600D01*
X157846000Y-140294600D02*
X159791400Y-142240000D01*
X159791400Y-142240000D02*
X161239200Y-142240000D01*
X170408600Y-141655800D02*
X174011306Y-141655800D01*
X174011306Y-141655800D02*
X175615600Y-143260094D01*
X175615600Y-143260094D02*
X175615600Y-143967200D01*
X159500000Y-132700000D02*
X157846000Y-132700000D01*
X171417900Y-145363000D02*
X171115500Y-145363000D01*
X173601280Y-146123002D02*
X172177902Y-146123002D01*
X172177902Y-146123002D02*
X171417900Y-145363000D01*
X170900000Y-132700000D02*
X170500000Y-132700000D01*
X176885600Y-138685600D02*
X170900000Y-132700000D01*
X176885600Y-143967200D02*
X176885600Y-138685600D01*
X171348400Y-145999200D02*
X171001700Y-145999200D01*
X171001700Y-145999200D02*
X170600500Y-145598000D01*
X170600500Y-145598000D02*
X170600500Y-145448000D01*
X173380400Y-144932400D02*
X173380400Y-145034000D01*
X173380400Y-145034000D02*
X172720000Y-145694400D01*
X176885600Y-143967200D02*
X176885600Y-144830800D01*
X176885600Y-144830800D02*
X176428400Y-145288000D01*
X166814500Y-143954500D02*
X168394000Y-143954500D01*
X168394000Y-143954500D02*
X168500500Y-143848000D01*
X166497000Y-147383500D02*
X166878000Y-147002500D01*
X166497000Y-148013000D02*
X166497000Y-147383500D01*
X172466000Y-143192500D02*
X172310500Y-143348000D01*
X172310500Y-143348000D02*
X171200500Y-143348000D01*
X172466000Y-144007000D02*
X172466000Y-143192500D01*
X172466000Y-144907000D02*
X172366000Y-144907000D01*
X171704101Y-143924201D02*
X171627900Y-143848000D01*
X172366000Y-144907000D02*
X171704101Y-144245101D01*
X171704101Y-144245101D02*
X171704101Y-143924201D01*
X171627900Y-143848000D02*
X171200500Y-143848000D01*
X168554400Y-148559520D02*
X168529101Y-148534221D01*
X168529101Y-148534221D02*
X168529101Y-147350727D01*
X169736120Y-148559520D02*
X168554400Y-148559520D01*
X170243000Y-148776500D02*
X169953100Y-148776500D01*
X169953100Y-148776500D02*
X169736120Y-148559520D01*
X168041690Y-146863316D02*
X167617426Y-146863316D01*
X168529101Y-147350727D02*
X168041690Y-146863316D01*
X167478110Y-143348000D02*
X167449500Y-143319390D01*
X168500500Y-143348000D02*
X167478110Y-143348000D01*
X175249228Y-145708030D02*
X174966386Y-145708030D01*
X175817130Y-145708030D02*
X175249228Y-145708030D01*
X176673600Y-146564500D02*
X175817130Y-145708030D01*
X177226000Y-146564500D02*
X176673600Y-146564500D01*
X170100500Y-142131910D02*
X170053000Y-142084410D01*
X170100500Y-142748000D02*
X170100500Y-142131910D01*
X167957500Y-142684500D02*
X168437000Y-142684500D01*
X168437000Y-142684500D02*
X168585500Y-142833000D01*
X175326000Y-146564500D02*
X174695000Y-146564500D01*
X174695000Y-146564500D02*
X174498000Y-146367500D01*
D33*
X165064440Y-128889760D02*
X165064440Y-133237060D01*
X165064440Y-133237060D02*
X165098640Y-133271260D01*
X165115240Y-134172960D02*
X165115240Y-133287860D01*
X165115240Y-133287860D02*
X165098640Y-133271260D01*
X165049200Y-125730000D02*
X165049200Y-127774520D01*
X165049200Y-127774520D02*
X165064440Y-127789760D01*
X165064440Y-125745240D02*
X165049200Y-125730000D01*
X164571120Y-136047480D02*
X164975120Y-136047480D01*
X164975120Y-136047480D02*
X165115240Y-135907360D01*
X164073840Y-136594760D02*
X164073840Y-136544760D01*
X164073840Y-136544760D02*
X164571120Y-136047480D01*
X165115240Y-135907360D02*
X165115240Y-135072960D01*
X164073840Y-136594760D02*
X164073840Y-135629560D01*
X164073840Y-135629560D02*
X164065040Y-135620760D01*
D32*
X164186440Y-139989560D02*
X165097040Y-139989560D01*
X163836440Y-138993880D02*
X163836440Y-139639560D01*
X163836440Y-139639560D02*
X164186440Y-139989560D01*
X165533920Y-138943080D02*
X165533920Y-139552680D01*
X165533920Y-139552680D02*
X165097040Y-139989560D01*
D33*
X164205920Y-139970080D02*
X164186440Y-139989560D01*
X165097040Y-139989560D02*
X165097040Y-140022160D01*
G36*
X165540457Y-148451558D02*
X165595955Y-148451606D01*
X165601342Y-148459979D01*
X165600569Y-148461110D01*
X165549560Y-148713000D01*
X165549560Y-149113000D01*
X165582865Y-149290000D01*
X162770940Y-149290000D01*
X162770940Y-148510602D01*
X164898734Y-148510602D01*
X165170899Y-148456465D01*
X165317067Y-148358798D01*
X165540457Y-148451558D01*
X165540457Y-148451558D01*
G37*
X165540457Y-148451558D02*
X165595955Y-148451606D01*
X165601342Y-148459979D01*
X165600569Y-148461110D01*
X165549560Y-148713000D01*
X165549560Y-149113000D01*
X165582865Y-149290000D01*
X162770940Y-149290000D01*
X162770940Y-148510602D01*
X164898734Y-148510602D01*
X165170899Y-148456465D01*
X165317067Y-148358798D01*
X165540457Y-148451558D01*
G36*
X173211560Y-148190349D02*
X173211560Y-148332000D01*
X173247529Y-148523156D01*
X173241069Y-148532610D01*
X173190060Y-148784500D01*
X173190060Y-149284500D01*
X173191095Y-149290000D01*
X172976083Y-149290000D01*
X172869492Y-149032028D01*
X172838924Y-149001407D01*
X172818263Y-148897535D01*
X172778948Y-148838696D01*
X172867691Y-148750107D01*
X172995080Y-148443321D01*
X172995370Y-148111137D01*
X172898920Y-147877708D01*
X173211560Y-148190349D01*
X173211560Y-148190349D01*
G37*
X173211560Y-148190349D02*
X173211560Y-148332000D01*
X173247529Y-148523156D01*
X173241069Y-148532610D01*
X173190060Y-148784500D01*
X173190060Y-149284500D01*
X173191095Y-149290000D01*
X172976083Y-149290000D01*
X172869492Y-149032028D01*
X172838924Y-149001407D01*
X172818263Y-148897535D01*
X172778948Y-148838696D01*
X172867691Y-148750107D01*
X172995080Y-148443321D01*
X172995370Y-148111137D01*
X172898920Y-147877708D01*
X173211560Y-148190349D01*
G36*
X176361910Y-147515941D02*
X176574110Y-147660931D01*
X176826000Y-147711940D01*
X177290000Y-147711940D01*
X177290000Y-149290000D01*
X175898424Y-149290000D01*
X175993255Y-149061621D01*
X175993545Y-148729437D01*
X175866692Y-148422428D01*
X175851103Y-148406812D01*
X175851305Y-148175717D01*
X175724452Y-147868708D01*
X175567957Y-147711940D01*
X175726000Y-147711940D01*
X175961317Y-147667662D01*
X176177441Y-147528590D01*
X176276633Y-147383417D01*
X176361910Y-147515941D01*
X176361910Y-147515941D01*
G37*
X176361910Y-147515941D02*
X176574110Y-147660931D01*
X176826000Y-147711940D01*
X177290000Y-147711940D01*
X177290000Y-149290000D01*
X175898424Y-149290000D01*
X175993255Y-149061621D01*
X175993545Y-148729437D01*
X175866692Y-148422428D01*
X175851103Y-148406812D01*
X175851305Y-148175717D01*
X175724452Y-147868708D01*
X175567957Y-147711940D01*
X175726000Y-147711940D01*
X175961317Y-147667662D01*
X176177441Y-147528590D01*
X176276633Y-147383417D01*
X176361910Y-147515941D01*
G36*
X163414994Y-125403453D02*
X163414426Y-126053694D01*
X163662738Y-126654655D01*
X164122127Y-127114846D01*
X164262298Y-127173050D01*
X164218009Y-127237870D01*
X164167000Y-127489760D01*
X164167000Y-128089760D01*
X164211278Y-128325077D01*
X164218782Y-128336739D01*
X164218009Y-128337870D01*
X164167000Y-128589760D01*
X164167000Y-129189760D01*
X164211278Y-129425077D01*
X164302440Y-129566747D01*
X164302440Y-132622677D01*
X164202209Y-132769370D01*
X164151200Y-133021260D01*
X164151200Y-133521260D01*
X164195478Y-133756577D01*
X164207755Y-133775656D01*
X164167800Y-133972960D01*
X164167800Y-134372960D01*
X164212078Y-134608277D01*
X164219582Y-134619939D01*
X164218809Y-134621070D01*
X164198103Y-134723320D01*
X163765040Y-134723320D01*
X163529723Y-134767598D01*
X163313599Y-134906670D01*
X163168609Y-135118870D01*
X163117600Y-135370760D01*
X163117600Y-135870760D01*
X163161878Y-136106077D01*
X163201987Y-136168408D01*
X163176400Y-136294760D01*
X163176400Y-136894760D01*
X163220678Y-137130077D01*
X163228182Y-137141739D01*
X163227409Y-137142870D01*
X163225146Y-137154047D01*
X163168546Y-137191866D01*
X162783546Y-137576866D01*
X162629377Y-137807595D01*
X162587015Y-138020565D01*
X162575240Y-138079760D01*
X162575240Y-139248372D01*
X162449369Y-139432590D01*
X162398360Y-139684480D01*
X162398360Y-140284480D01*
X162442638Y-140519797D01*
X162581710Y-140735921D01*
X162793910Y-140880911D01*
X163045800Y-140931920D01*
X163123012Y-140931920D01*
X163270056Y-141078965D01*
X163226569Y-141142610D01*
X163175560Y-141394500D01*
X163175560Y-141711500D01*
X163095338Y-141711500D01*
X163095425Y-141612357D01*
X162968572Y-141305348D01*
X162733887Y-141070254D01*
X162427101Y-140942865D01*
X162094917Y-140942575D01*
X161787908Y-141069428D01*
X161552814Y-141304113D01*
X161495443Y-141442277D01*
X161406021Y-141405145D01*
X161073837Y-141404855D01*
X160773866Y-141528800D01*
X160085988Y-141528800D01*
X158557200Y-140000012D01*
X158557200Y-133781361D01*
X158636600Y-133797440D01*
X160336600Y-133797440D01*
X160571917Y-133753162D01*
X160788041Y-133614090D01*
X160933031Y-133401890D01*
X160984040Y-133150000D01*
X160984040Y-132250000D01*
X160939762Y-132014683D01*
X160800690Y-131798559D01*
X160588490Y-131653569D01*
X160336600Y-131602560D01*
X158636600Y-131602560D01*
X158401283Y-131646838D01*
X158185159Y-131785910D01*
X158046530Y-131988800D01*
X157846000Y-131988800D01*
X157573836Y-132042937D01*
X157343106Y-132197106D01*
X157188937Y-132427836D01*
X157134800Y-132700000D01*
X157134800Y-140019818D01*
X157059300Y-140004800D01*
X154037675Y-140004800D01*
X153862221Y-139931945D01*
X153530037Y-139931655D01*
X153223028Y-140058508D01*
X152987934Y-140293193D01*
X152860545Y-140599979D01*
X152860255Y-140932163D01*
X152987108Y-141239172D01*
X153221793Y-141474266D01*
X153528579Y-141601655D01*
X153860763Y-141601945D01*
X154037788Y-141528800D01*
X156743670Y-141528800D01*
X156936710Y-141721840D01*
X156547160Y-141721840D01*
X156255556Y-141779843D01*
X156008345Y-141945024D01*
X155687460Y-142265910D01*
X155584500Y-142245060D01*
X155184500Y-142245060D01*
X154949183Y-142289338D01*
X154937521Y-142296842D01*
X154936390Y-142296069D01*
X154684500Y-142245060D01*
X154284500Y-142245060D01*
X154049183Y-142289338D01*
X153833059Y-142428410D01*
X153688069Y-142640610D01*
X153637060Y-142892500D01*
X153637060Y-143492500D01*
X153681338Y-143727817D01*
X153820410Y-143943941D01*
X154032610Y-144088931D01*
X154284500Y-144139940D01*
X154326152Y-144139940D01*
X155055262Y-144869050D01*
X154945106Y-144979206D01*
X154927902Y-145004954D01*
X154787683Y-145031338D01*
X154571559Y-145170410D01*
X154426569Y-145382610D01*
X154375560Y-145634500D01*
X154375560Y-146084500D01*
X154419838Y-146319817D01*
X154558910Y-146535941D01*
X154771110Y-146680931D01*
X155023000Y-146731940D01*
X155500560Y-146731940D01*
X155500560Y-146987060D01*
X155023000Y-146987060D01*
X154787683Y-147031338D01*
X154571559Y-147170410D01*
X154426569Y-147382610D01*
X154375560Y-147634500D01*
X154375560Y-148084500D01*
X154419838Y-148319817D01*
X154558910Y-148535941D01*
X154771110Y-148680931D01*
X155023000Y-148731940D01*
X155873000Y-148731940D01*
X155951555Y-148717159D01*
X156148000Y-148756940D01*
X157748000Y-148756940D01*
X157954541Y-148718077D01*
X158023000Y-148731940D01*
X158873000Y-148731940D01*
X159108317Y-148687662D01*
X159324441Y-148548590D01*
X159469431Y-148336390D01*
X159473990Y-148313878D01*
X159881753Y-148721641D01*
X159794745Y-148931179D01*
X159794455Y-149263363D01*
X159805461Y-149290000D01*
X152710000Y-149290000D01*
X152710000Y-133328333D01*
X162260980Y-125210000D01*
X163495323Y-125210000D01*
X163414994Y-125403453D01*
X163414994Y-125403453D01*
G37*
X163414994Y-125403453D02*
X163414426Y-126053694D01*
X163662738Y-126654655D01*
X164122127Y-127114846D01*
X164262298Y-127173050D01*
X164218009Y-127237870D01*
X164167000Y-127489760D01*
X164167000Y-128089760D01*
X164211278Y-128325077D01*
X164218782Y-128336739D01*
X164218009Y-128337870D01*
X164167000Y-128589760D01*
X164167000Y-129189760D01*
X164211278Y-129425077D01*
X164302440Y-129566747D01*
X164302440Y-132622677D01*
X164202209Y-132769370D01*
X164151200Y-133021260D01*
X164151200Y-133521260D01*
X164195478Y-133756577D01*
X164207755Y-133775656D01*
X164167800Y-133972960D01*
X164167800Y-134372960D01*
X164212078Y-134608277D01*
X164219582Y-134619939D01*
X164218809Y-134621070D01*
X164198103Y-134723320D01*
X163765040Y-134723320D01*
X163529723Y-134767598D01*
X163313599Y-134906670D01*
X163168609Y-135118870D01*
X163117600Y-135370760D01*
X163117600Y-135870760D01*
X163161878Y-136106077D01*
X163201987Y-136168408D01*
X163176400Y-136294760D01*
X163176400Y-136894760D01*
X163220678Y-137130077D01*
X163228182Y-137141739D01*
X163227409Y-137142870D01*
X163225146Y-137154047D01*
X163168546Y-137191866D01*
X162783546Y-137576866D01*
X162629377Y-137807595D01*
X162587015Y-138020565D01*
X162575240Y-138079760D01*
X162575240Y-139248372D01*
X162449369Y-139432590D01*
X162398360Y-139684480D01*
X162398360Y-140284480D01*
X162442638Y-140519797D01*
X162581710Y-140735921D01*
X162793910Y-140880911D01*
X163045800Y-140931920D01*
X163123012Y-140931920D01*
X163270056Y-141078965D01*
X163226569Y-141142610D01*
X163175560Y-141394500D01*
X163175560Y-141711500D01*
X163095338Y-141711500D01*
X163095425Y-141612357D01*
X162968572Y-141305348D01*
X162733887Y-141070254D01*
X162427101Y-140942865D01*
X162094917Y-140942575D01*
X161787908Y-141069428D01*
X161552814Y-141304113D01*
X161495443Y-141442277D01*
X161406021Y-141405145D01*
X161073837Y-141404855D01*
X160773866Y-141528800D01*
X160085988Y-141528800D01*
X158557200Y-140000012D01*
X158557200Y-133781361D01*
X158636600Y-133797440D01*
X160336600Y-133797440D01*
X160571917Y-133753162D01*
X160788041Y-133614090D01*
X160933031Y-133401890D01*
X160984040Y-133150000D01*
X160984040Y-132250000D01*
X160939762Y-132014683D01*
X160800690Y-131798559D01*
X160588490Y-131653569D01*
X160336600Y-131602560D01*
X158636600Y-131602560D01*
X158401283Y-131646838D01*
X158185159Y-131785910D01*
X158046530Y-131988800D01*
X157846000Y-131988800D01*
X157573836Y-132042937D01*
X157343106Y-132197106D01*
X157188937Y-132427836D01*
X157134800Y-132700000D01*
X157134800Y-140019818D01*
X157059300Y-140004800D01*
X154037675Y-140004800D01*
X153862221Y-139931945D01*
X153530037Y-139931655D01*
X153223028Y-140058508D01*
X152987934Y-140293193D01*
X152860545Y-140599979D01*
X152860255Y-140932163D01*
X152987108Y-141239172D01*
X153221793Y-141474266D01*
X153528579Y-141601655D01*
X153860763Y-141601945D01*
X154037788Y-141528800D01*
X156743670Y-141528800D01*
X156936710Y-141721840D01*
X156547160Y-141721840D01*
X156255556Y-141779843D01*
X156008345Y-141945024D01*
X155687460Y-142265910D01*
X155584500Y-142245060D01*
X155184500Y-142245060D01*
X154949183Y-142289338D01*
X154937521Y-142296842D01*
X154936390Y-142296069D01*
X154684500Y-142245060D01*
X154284500Y-142245060D01*
X154049183Y-142289338D01*
X153833059Y-142428410D01*
X153688069Y-142640610D01*
X153637060Y-142892500D01*
X153637060Y-143492500D01*
X153681338Y-143727817D01*
X153820410Y-143943941D01*
X154032610Y-144088931D01*
X154284500Y-144139940D01*
X154326152Y-144139940D01*
X155055262Y-144869050D01*
X154945106Y-144979206D01*
X154927902Y-145004954D01*
X154787683Y-145031338D01*
X154571559Y-145170410D01*
X154426569Y-145382610D01*
X154375560Y-145634500D01*
X154375560Y-146084500D01*
X154419838Y-146319817D01*
X154558910Y-146535941D01*
X154771110Y-146680931D01*
X155023000Y-146731940D01*
X155500560Y-146731940D01*
X155500560Y-146987060D01*
X155023000Y-146987060D01*
X154787683Y-147031338D01*
X154571559Y-147170410D01*
X154426569Y-147382610D01*
X154375560Y-147634500D01*
X154375560Y-148084500D01*
X154419838Y-148319817D01*
X154558910Y-148535941D01*
X154771110Y-148680931D01*
X155023000Y-148731940D01*
X155873000Y-148731940D01*
X155951555Y-148717159D01*
X156148000Y-148756940D01*
X157748000Y-148756940D01*
X157954541Y-148718077D01*
X158023000Y-148731940D01*
X158873000Y-148731940D01*
X159108317Y-148687662D01*
X159324441Y-148548590D01*
X159469431Y-148336390D01*
X159473990Y-148313878D01*
X159881753Y-148721641D01*
X159794745Y-148931179D01*
X159794455Y-149263363D01*
X159805461Y-149290000D01*
X152710000Y-149290000D01*
X152710000Y-133328333D01*
X162260980Y-125210000D01*
X163495323Y-125210000D01*
X163414994Y-125403453D01*
G36*
X163358910Y-143245941D02*
X163571110Y-143390931D01*
X163823000Y-143441940D01*
X164123000Y-143441940D01*
X164226671Y-143422433D01*
X164323000Y-143441940D01*
X164593596Y-143441940D01*
X164588337Y-143444113D01*
X164353243Y-143678798D01*
X164225854Y-143985584D01*
X164225617Y-144256581D01*
X163970106Y-144512092D01*
X163815937Y-144742821D01*
X163777223Y-144937451D01*
X163761800Y-145014986D01*
X163761800Y-145158576D01*
X163587683Y-145191338D01*
X163371559Y-145330410D01*
X163226569Y-145542610D01*
X163195621Y-145695435D01*
X163170090Y-145655759D01*
X162957890Y-145510769D01*
X162706000Y-145459760D01*
X161906000Y-145459760D01*
X161670683Y-145504038D01*
X161454559Y-145643110D01*
X161309569Y-145855310D01*
X161258560Y-146107200D01*
X161258560Y-146209761D01*
X160997417Y-145948618D01*
X161133866Y-145812407D01*
X161261255Y-145505621D01*
X161261545Y-145173437D01*
X161137600Y-144873466D01*
X161137600Y-144018000D01*
X161573500Y-144018000D01*
X161865105Y-143959996D01*
X162112315Y-143794815D01*
X162486191Y-143420940D01*
X162556000Y-143420940D01*
X162791317Y-143376662D01*
X163007441Y-143237590D01*
X163008869Y-143235500D01*
X163352191Y-143235500D01*
X163358910Y-143245941D01*
X163358910Y-143245941D01*
G37*
X163358910Y-143245941D02*
X163571110Y-143390931D01*
X163823000Y-143441940D01*
X164123000Y-143441940D01*
X164226671Y-143422433D01*
X164323000Y-143441940D01*
X164593596Y-143441940D01*
X164588337Y-143444113D01*
X164353243Y-143678798D01*
X164225854Y-143985584D01*
X164225617Y-144256581D01*
X163970106Y-144512092D01*
X163815937Y-144742821D01*
X163777223Y-144937451D01*
X163761800Y-145014986D01*
X163761800Y-145158576D01*
X163587683Y-145191338D01*
X163371559Y-145330410D01*
X163226569Y-145542610D01*
X163195621Y-145695435D01*
X163170090Y-145655759D01*
X162957890Y-145510769D01*
X162706000Y-145459760D01*
X161906000Y-145459760D01*
X161670683Y-145504038D01*
X161454559Y-145643110D01*
X161309569Y-145855310D01*
X161258560Y-146107200D01*
X161258560Y-146209761D01*
X160997417Y-145948618D01*
X161133866Y-145812407D01*
X161261255Y-145505621D01*
X161261545Y-145173437D01*
X161137600Y-144873466D01*
X161137600Y-144018000D01*
X161573500Y-144018000D01*
X161865105Y-143959996D01*
X162112315Y-143794815D01*
X162486191Y-143420940D01*
X162556000Y-143420940D01*
X162791317Y-143376662D01*
X163007441Y-143237590D01*
X163008869Y-143235500D01*
X163352191Y-143235500D01*
X163358910Y-143245941D01*
G36*
X169975500Y-143670440D02*
X170225500Y-143670440D01*
X170291207Y-143658076D01*
X170278060Y-143723000D01*
X170278060Y-143973000D01*
X170302444Y-144102589D01*
X170278060Y-144223000D01*
X170278060Y-144473000D01*
X170290424Y-144538707D01*
X170225500Y-144525560D01*
X169975500Y-144525560D01*
X169740183Y-144569838D01*
X169599773Y-144660190D01*
X169477390Y-144576569D01*
X169404938Y-144561897D01*
X169422940Y-144473000D01*
X169422940Y-144223000D01*
X169398556Y-144093411D01*
X169422940Y-143973000D01*
X169422940Y-143723000D01*
X169410576Y-143657293D01*
X169475500Y-143670440D01*
X169725500Y-143670440D01*
X169855089Y-143646056D01*
X169975500Y-143670440D01*
X169975500Y-143670440D01*
G37*
X169975500Y-143670440D02*
X170225500Y-143670440D01*
X170291207Y-143658076D01*
X170278060Y-143723000D01*
X170278060Y-143973000D01*
X170302444Y-144102589D01*
X170278060Y-144223000D01*
X170278060Y-144473000D01*
X170290424Y-144538707D01*
X170225500Y-144525560D01*
X169975500Y-144525560D01*
X169740183Y-144569838D01*
X169599773Y-144660190D01*
X169477390Y-144576569D01*
X169404938Y-144561897D01*
X169422940Y-144473000D01*
X169422940Y-144223000D01*
X169398556Y-144093411D01*
X169422940Y-143973000D01*
X169422940Y-143723000D01*
X169410576Y-143657293D01*
X169475500Y-143670440D01*
X169725500Y-143670440D01*
X169855089Y-143646056D01*
X169975500Y-143670440D01*
G36*
X174684492Y-143334775D02*
X174566997Y-143510618D01*
X174480600Y-143944964D01*
X174480600Y-143989436D01*
X174507053Y-144122426D01*
X174458538Y-144195034D01*
X174442418Y-144276075D01*
X174138330Y-144580163D01*
X174088692Y-144460028D01*
X173854007Y-144224934D01*
X173547221Y-144097545D01*
X173413440Y-144097428D01*
X173413440Y-143807000D01*
X173373012Y-143592142D01*
X173413440Y-143392500D01*
X173413440Y-142992500D01*
X173369162Y-142757183D01*
X173230090Y-142541059D01*
X173017890Y-142396069D01*
X172874343Y-142367000D01*
X173716718Y-142367000D01*
X174684492Y-143334775D01*
X174684492Y-143334775D01*
G37*
X174684492Y-143334775D02*
X174566997Y-143510618D01*
X174480600Y-143944964D01*
X174480600Y-143989436D01*
X174507053Y-144122426D01*
X174458538Y-144195034D01*
X174442418Y-144276075D01*
X174138330Y-144580163D01*
X174088692Y-144460028D01*
X173854007Y-144224934D01*
X173547221Y-144097545D01*
X173413440Y-144097428D01*
X173413440Y-143807000D01*
X173373012Y-143592142D01*
X173413440Y-143392500D01*
X173413440Y-142992500D01*
X173369162Y-142757183D01*
X173230090Y-142541059D01*
X173017890Y-142396069D01*
X172874343Y-142367000D01*
X173716718Y-142367000D01*
X174684492Y-143334775D01*
G36*
X177290000Y-133328333D02*
X177290000Y-138084211D01*
X171997440Y-132791652D01*
X171997440Y-132250000D01*
X171953162Y-132014683D01*
X171814090Y-131798559D01*
X171601890Y-131653569D01*
X171350000Y-131602560D01*
X169650000Y-131602560D01*
X169414683Y-131646838D01*
X169198559Y-131785910D01*
X169053569Y-131998110D01*
X169002560Y-132250000D01*
X169002560Y-133150000D01*
X169046838Y-133385317D01*
X169185910Y-133601441D01*
X169398110Y-133746431D01*
X169650000Y-133797440D01*
X170991652Y-133797440D01*
X176174400Y-138980189D01*
X176174400Y-142840869D01*
X176118494Y-142757199D01*
X174514200Y-141152906D01*
X174283471Y-140998737D01*
X174011306Y-140944600D01*
X170873215Y-140944600D01*
X170575421Y-140820945D01*
X170243237Y-140820655D01*
X169936228Y-140947508D01*
X169701134Y-141182193D01*
X169628889Y-141356177D01*
X169608672Y-141364531D01*
X169503153Y-141294025D01*
X169230988Y-141239888D01*
X167439648Y-141239888D01*
X167260167Y-141060094D01*
X167145120Y-141012322D01*
X167145120Y-139619710D01*
X167230351Y-139494970D01*
X167281360Y-139243080D01*
X167281360Y-138643080D01*
X167237082Y-138407763D01*
X167098010Y-138191639D01*
X166885810Y-138046649D01*
X166633920Y-137995640D01*
X166500665Y-137995640D01*
X166499934Y-137994546D01*
X166126000Y-137620612D01*
X166126000Y-137478960D01*
X166081722Y-137243643D01*
X166030843Y-137164575D01*
X166062680Y-137007360D01*
X166062680Y-136607360D01*
X166018402Y-136372043D01*
X166010898Y-136360381D01*
X166011671Y-136359250D01*
X166062680Y-136107360D01*
X166062680Y-135707360D01*
X166020311Y-135482186D01*
X166062680Y-135272960D01*
X166062680Y-134872960D01*
X166018402Y-134637643D01*
X166010898Y-134625981D01*
X166011671Y-134624850D01*
X166062680Y-134372960D01*
X166062680Y-133972960D01*
X166018402Y-133737643D01*
X166006125Y-133718564D01*
X166046080Y-133521260D01*
X166046080Y-133021260D01*
X166001802Y-132785943D01*
X165862730Y-132569819D01*
X165826440Y-132545023D01*
X165826440Y-129565219D01*
X165910871Y-129441650D01*
X165961880Y-129189760D01*
X165961880Y-128589760D01*
X165917602Y-128354443D01*
X165910098Y-128342781D01*
X165910871Y-128341650D01*
X165961880Y-128089760D01*
X165961880Y-127489760D01*
X165917602Y-127254443D01*
X165859278Y-127163804D01*
X165973855Y-127116462D01*
X166434046Y-126657073D01*
X166683406Y-126056547D01*
X166683974Y-125406306D01*
X166602862Y-125210000D01*
X167739021Y-125210000D01*
X177290000Y-133328333D01*
X177290000Y-133328333D01*
G37*
X177290000Y-133328333D02*
X177290000Y-138084211D01*
X171997440Y-132791652D01*
X171997440Y-132250000D01*
X171953162Y-132014683D01*
X171814090Y-131798559D01*
X171601890Y-131653569D01*
X171350000Y-131602560D01*
X169650000Y-131602560D01*
X169414683Y-131646838D01*
X169198559Y-131785910D01*
X169053569Y-131998110D01*
X169002560Y-132250000D01*
X169002560Y-133150000D01*
X169046838Y-133385317D01*
X169185910Y-133601441D01*
X169398110Y-133746431D01*
X169650000Y-133797440D01*
X170991652Y-133797440D01*
X176174400Y-138980189D01*
X176174400Y-142840869D01*
X176118494Y-142757199D01*
X174514200Y-141152906D01*
X174283471Y-140998737D01*
X174011306Y-140944600D01*
X170873215Y-140944600D01*
X170575421Y-140820945D01*
X170243237Y-140820655D01*
X169936228Y-140947508D01*
X169701134Y-141182193D01*
X169628889Y-141356177D01*
X169608672Y-141364531D01*
X169503153Y-141294025D01*
X169230988Y-141239888D01*
X167439648Y-141239888D01*
X167260167Y-141060094D01*
X167145120Y-141012322D01*
X167145120Y-139619710D01*
X167230351Y-139494970D01*
X167281360Y-139243080D01*
X167281360Y-138643080D01*
X167237082Y-138407763D01*
X167098010Y-138191639D01*
X166885810Y-138046649D01*
X166633920Y-137995640D01*
X166500665Y-137995640D01*
X166499934Y-137994546D01*
X166126000Y-137620612D01*
X166126000Y-137478960D01*
X166081722Y-137243643D01*
X166030843Y-137164575D01*
X166062680Y-137007360D01*
X166062680Y-136607360D01*
X166018402Y-136372043D01*
X166010898Y-136360381D01*
X166011671Y-136359250D01*
X166062680Y-136107360D01*
X166062680Y-135707360D01*
X166020311Y-135482186D01*
X166062680Y-135272960D01*
X166062680Y-134872960D01*
X166018402Y-134637643D01*
X166010898Y-134625981D01*
X166011671Y-134624850D01*
X166062680Y-134372960D01*
X166062680Y-133972960D01*
X166018402Y-133737643D01*
X166006125Y-133718564D01*
X166046080Y-133521260D01*
X166046080Y-133021260D01*
X166001802Y-132785943D01*
X165862730Y-132569819D01*
X165826440Y-132545023D01*
X165826440Y-129565219D01*
X165910871Y-129441650D01*
X165961880Y-129189760D01*
X165961880Y-128589760D01*
X165917602Y-128354443D01*
X165910098Y-128342781D01*
X165910871Y-128341650D01*
X165961880Y-128089760D01*
X165961880Y-127489760D01*
X165917602Y-127254443D01*
X165859278Y-127163804D01*
X165973855Y-127116462D01*
X166434046Y-126657073D01*
X166683406Y-126056547D01*
X166683974Y-125406306D01*
X166602862Y-125210000D01*
X167739021Y-125210000D01*
X177290000Y-133328333D01*
M02*
