G04 #@! TF.FileFunction,Copper,L2,Bot,Signal*
%FSLAX46Y46*%
G04 Gerber Fmt 4.6, Leading zero omitted, Abs format (unit mm)*
G04 Created by KiCad (PCBNEW 4.0.6-e0-6349~52~ubuntu16.10.1) date Thu Nov 30 13:26:54 2017*
%MOMM*%
%LPD*%
G01*
G04 APERTURE LIST*
%ADD10C,0.100000*%
%ADD11C,0.400000*%
%ADD12R,1.000000X1.000000*%
%ADD13O,1.000000X1.000000*%
%ADD14C,1.998980*%
%ADD15C,5.000000*%
%ADD16R,2.500000X5.100000*%
%ADD17C,0.254000*%
%ADD18C,0.152400*%
G04 APERTURE END LIST*
D10*
D11*
X173730920Y-142849600D03*
X161239200Y-144114520D03*
X163586160Y-144515840D03*
X163692840Y-143723360D03*
X159151320Y-148920200D03*
X157241240Y-148884640D03*
X155569920Y-149011640D03*
X154421840Y-148945600D03*
X153756360Y-148879560D03*
X152948640Y-148813520D03*
X152933400Y-147924520D03*
X153040080Y-146893280D03*
X152974040Y-145851880D03*
X152974040Y-144973040D03*
X152999440Y-144297400D03*
X153080720Y-143276320D03*
X153141680Y-142402560D03*
X156215080Y-141665960D03*
X155569920Y-141894560D03*
X154721560Y-141919960D03*
X170637200Y-131104640D03*
X159476440Y-131064000D03*
X158384240Y-131282440D03*
X155920440Y-132207000D03*
X156179520Y-133253480D03*
X154792680Y-133065520D03*
X154696160Y-134030720D03*
X153365200Y-134071360D03*
X152953720Y-133471920D03*
X153497280Y-133009640D03*
X154137360Y-132369560D03*
X154980640Y-131673600D03*
X155788360Y-130886200D03*
X156631640Y-130164840D03*
X174340520Y-133537960D03*
X173918880Y-132003800D03*
X173537880Y-132765800D03*
X175646080Y-133334760D03*
X174518320Y-132669280D03*
X173156880Y-131826000D03*
X172272960Y-131267200D03*
X172272960Y-132643880D03*
X173197520Y-133537960D03*
X173959520Y-134249160D03*
X174858680Y-134112000D03*
X175630840Y-134071360D03*
X176545240Y-134086600D03*
X177073560Y-133649720D03*
X176408080Y-132913120D03*
X175498760Y-132232400D03*
X174706280Y-131526280D03*
X174000160Y-130845560D03*
X173319440Y-130261360D03*
X172613320Y-129702560D03*
X168351200Y-133131560D03*
X168539160Y-132247640D03*
X167777160Y-131485640D03*
X166908480Y-131292600D03*
X167558720Y-130383280D03*
X168407080Y-130601720D03*
X166959280Y-129509520D03*
X167248840Y-128737360D03*
X168351200Y-129468880D03*
X167954960Y-128163320D03*
X167259000Y-127589280D03*
X167711120Y-126679960D03*
X168158160Y-127345440D03*
X169372280Y-127985520D03*
X170337480Y-127741680D03*
X169641520Y-127238760D03*
X168772840Y-126542800D03*
X167980360Y-125821440D03*
X161681160Y-134030720D03*
X161406840Y-133197600D03*
X161437320Y-132354320D03*
X162209480Y-133156960D03*
X162387280Y-133868160D03*
X163271200Y-133852920D03*
X163068000Y-133024880D03*
X162443160Y-132344160D03*
X163382960Y-132135880D03*
X163245800Y-131363720D03*
X162412680Y-131363720D03*
X161284920Y-131541520D03*
X161218880Y-130901440D03*
X162199320Y-130449320D03*
X163230560Y-130464560D03*
X162864800Y-129509520D03*
X161544000Y-129606040D03*
X162509200Y-128625600D03*
X163520120Y-128651000D03*
X162199320Y-126583440D03*
X161665920Y-127005080D03*
X160604200Y-127045720D03*
X161381440Y-126420880D03*
X162199320Y-125775720D03*
X162509200Y-127563880D03*
X161447480Y-127929640D03*
X160644840Y-127929640D03*
X159476440Y-127848360D03*
X169621200Y-136631680D03*
X169636440Y-135122920D03*
X168529000Y-135178800D03*
X168539160Y-136418320D03*
X168422320Y-137855960D03*
X168163240Y-138912600D03*
X169204640Y-138673840D03*
X169763440Y-138008360D03*
X170347640Y-137307320D03*
X171023280Y-135859520D03*
X171368720Y-137759440D03*
X172283120Y-137083800D03*
X171383960Y-139125960D03*
X172750480Y-138485880D03*
X172689520Y-139639040D03*
X169956480Y-139329160D03*
X168386760Y-140040360D03*
X169931080Y-140395960D03*
X170408600Y-140340080D03*
X171226480Y-140421360D03*
X172085000Y-140614400D03*
X173126400Y-140670280D03*
X175193960Y-141361160D03*
X176062640Y-142123160D03*
X175849280Y-141493240D03*
X174198280Y-140431520D03*
X173959520Y-139435840D03*
X173995080Y-138318240D03*
X173629320Y-137058400D03*
X172227240Y-135559800D03*
X171724320Y-134894320D03*
X170632120Y-134172960D03*
X169529760Y-134051040D03*
X168087040Y-134147560D03*
X167162480Y-134787640D03*
X161076640Y-139954000D03*
X160741360Y-139034520D03*
X160167320Y-138272520D03*
X160065720Y-137464800D03*
X161076640Y-137363200D03*
X160751520Y-136337040D03*
X159903160Y-136164320D03*
X159852360Y-135361680D03*
X160934400Y-135188960D03*
X160990280Y-134091680D03*
X159679640Y-134193280D03*
X159070040Y-134686040D03*
X158907480Y-136210040D03*
X158897320Y-137175240D03*
X158897320Y-138247120D03*
X159938720Y-140685520D03*
X158983680Y-139745720D03*
X159506920Y-139440920D03*
X160045400Y-139994640D03*
X160599120Y-140721080D03*
X156306520Y-134228840D03*
X156616400Y-134874000D03*
X156667200Y-136296400D03*
X156596080Y-137485120D03*
X155900120Y-139186920D03*
X156438600Y-139578080D03*
X162560000Y-134589520D03*
X162219640Y-134995920D03*
X162209480Y-135427720D03*
X162214560Y-135859520D03*
X162173920Y-136342120D03*
X162549840Y-136662160D03*
X167340280Y-125547120D03*
X167223440Y-126070360D03*
X167055800Y-126593600D03*
X166811960Y-127005080D03*
X162722560Y-125476000D03*
X162803840Y-126060200D03*
X162981640Y-126583440D03*
X163261040Y-127025400D03*
X163647120Y-127386080D03*
X166441120Y-127330200D03*
X163245800Y-125430280D03*
X163296600Y-125958600D03*
X163413440Y-126441200D03*
X163733480Y-126913640D03*
X166801800Y-125603000D03*
X166771320Y-126105920D03*
X166613840Y-126517400D03*
X166349680Y-126888240D03*
X169768520Y-140898880D03*
X169387520Y-141107160D03*
X168889680Y-141112240D03*
X168376600Y-141102080D03*
X167838120Y-141051280D03*
X167365680Y-140782040D03*
X167340280Y-140329920D03*
X167380920Y-139877800D03*
X167411400Y-139461240D03*
X167426640Y-138988800D03*
X167396160Y-138511280D03*
X167360600Y-138033760D03*
X167345360Y-137591800D03*
X167248840Y-136992360D03*
X166791640Y-136682480D03*
X166309040Y-136758680D03*
X166232840Y-136286240D03*
X166187120Y-135895080D03*
X166171880Y-135376920D03*
X166217600Y-134838440D03*
X166329360Y-134335520D03*
X166817040Y-134269480D03*
X167203120Y-133939280D03*
X167386000Y-133456680D03*
X167289480Y-132963920D03*
X167152320Y-132506720D03*
X166720520Y-132257800D03*
X166222680Y-132349240D03*
X166217600Y-131881880D03*
X166222680Y-131434840D03*
X166217600Y-130967480D03*
X166055040Y-130484880D03*
X166049960Y-130017520D03*
X166055040Y-129570480D03*
X166049960Y-129103120D03*
X165999160Y-128620520D03*
X165994080Y-128153160D03*
X165999160Y-127706120D03*
X165994080Y-127238760D03*
X164119560Y-128569720D03*
X164114480Y-128102360D03*
X164119560Y-127655320D03*
X164114480Y-127187960D03*
X164084000Y-130408680D03*
X164078920Y-129941320D03*
X164084000Y-129494280D03*
X164078920Y-129026920D03*
X164023040Y-132283200D03*
X164017960Y-131815840D03*
X164023040Y-131368800D03*
X164017960Y-130901440D03*
X164002720Y-133207760D03*
X163997640Y-132740400D03*
X163997640Y-133654800D03*
X164002720Y-134122160D03*
X163794440Y-134553960D03*
X163332160Y-134589520D03*
X162976560Y-134874000D03*
X161970720Y-137779760D03*
X162443160Y-137967720D03*
X163017200Y-136306560D03*
X163052760Y-136763760D03*
X162976560Y-137215880D03*
X162605720Y-137505440D03*
X161782760Y-138242040D03*
X161599880Y-138744960D03*
X161620200Y-139263120D03*
X161813240Y-139740640D03*
X162356800Y-140202920D03*
X161853880Y-140218160D03*
X161869120Y-140771880D03*
D12*
X174345600Y-143967200D03*
D13*
X175615600Y-143967200D03*
X176885600Y-143967200D03*
D14*
X165049200Y-125730000D03*
D15*
X165018400Y-137591800D03*
D16*
X153568400Y-137591800D03*
X176468400Y-137591800D03*
D11*
X162377120Y-140766800D03*
X175016160Y-148341080D03*
X162260280Y-141777720D03*
X166786560Y-141767560D03*
X153695400Y-140766800D03*
X172161200Y-149504400D03*
X175158400Y-148894800D03*
X160629600Y-149098000D03*
X169011600Y-147269200D03*
X160629600Y-149098000D03*
X160426400Y-145338800D03*
X162062160Y-138963400D03*
X162867058Y-148720179D03*
X160274000Y-149555200D03*
X161747200Y-147370800D03*
X164642800Y-148844000D03*
X171196000Y-148272500D03*
X167195500Y-149034500D03*
X169862500Y-149352000D03*
X165707278Y-147616703D03*
X161109010Y-147066000D03*
X172160225Y-148276500D03*
X167989088Y-145819427D03*
X158432500Y-143954500D03*
X158432500Y-145161000D03*
X165035723Y-145209616D03*
X165060709Y-144152405D03*
X161239200Y-142240000D03*
X170408600Y-141655800D03*
X171348400Y-145999200D03*
X172720000Y-145694400D03*
X173380400Y-144932400D03*
X176428400Y-145288000D03*
X166878000Y-147002500D03*
X166814500Y-143954500D03*
X167617426Y-146863316D03*
X167449500Y-143319390D03*
X174966386Y-145708030D03*
X170053000Y-142084410D03*
X167957500Y-142684500D03*
X174498000Y-146367500D03*
D17*
X175016160Y-148341080D02*
X177665001Y-145692239D01*
X177665001Y-145692239D02*
X177665001Y-141592401D01*
X177665001Y-141592401D02*
X176468400Y-140395800D01*
X176468400Y-140395800D02*
X176468400Y-137591800D01*
D18*
X166786560Y-141767560D02*
X162270440Y-141767560D01*
X162270440Y-141767560D02*
X162260280Y-141777720D01*
D17*
X153568400Y-137591800D02*
X153568400Y-140639800D01*
X153568400Y-140639800D02*
X153695400Y-140766800D01*
D18*
X175158400Y-148894800D02*
X174548800Y-149504400D01*
X174548800Y-149504400D02*
X172161200Y-149504400D01*
D17*
X160912442Y-149098000D02*
X160629600Y-149098000D01*
X168184687Y-148096113D02*
X164220603Y-148096113D01*
X169011600Y-147269200D02*
X168184687Y-148096113D01*
X163117127Y-149199589D02*
X161014031Y-149199589D01*
X164220603Y-148096113D02*
X163117127Y-149199589D01*
X161014031Y-149199589D02*
X160912442Y-149098000D01*
X160426400Y-145338800D02*
X160629600Y-145542000D01*
X160629600Y-145542000D02*
X160629600Y-149098000D01*
X164551040Y-140984920D02*
X164551040Y-139354560D01*
D18*
X164607240Y-130820160D02*
X164632640Y-130845560D01*
X164632640Y-130845560D02*
X164632640Y-136306560D01*
X164632640Y-136306560D02*
X164632640Y-139272960D01*
X164632640Y-139272960D02*
X164551040Y-139354560D01*
D17*
X161747200Y-147370800D02*
X162867058Y-148490658D01*
D18*
X160274000Y-149555200D02*
X163931600Y-149555200D01*
D17*
X162867058Y-148490658D02*
X162867058Y-148720179D01*
D18*
X163931600Y-149555200D02*
X164642800Y-148844000D01*
D17*
X164642800Y-148844000D02*
X167005000Y-148844000D01*
X167005000Y-148844000D02*
X167195500Y-149034500D01*
D18*
X171196000Y-148272500D02*
X170116500Y-149352000D01*
X170116500Y-149352000D02*
X169862500Y-149352000D01*
X169862500Y-149352000D02*
X169545000Y-149034500D01*
X169545000Y-149034500D02*
X167195500Y-149034500D01*
X165507279Y-147416704D02*
X165707278Y-147616703D01*
X164956576Y-146866001D02*
X165507279Y-147416704D01*
X161309009Y-146866001D02*
X164956576Y-146866001D01*
X161109010Y-147066000D02*
X161309009Y-146866001D01*
X158432500Y-145161000D02*
X158432500Y-143954500D01*
X171863836Y-147980111D02*
X172163835Y-148280110D01*
X169703152Y-145819427D02*
X171863836Y-147980111D01*
X167989088Y-145819427D02*
X169703152Y-145819427D01*
X165060709Y-144152405D02*
X165060709Y-145184630D01*
X165060709Y-145184630D02*
X165035723Y-145209616D01*
X165035723Y-144177391D02*
X165060709Y-144152405D01*
X161239200Y-142240000D02*
X169263080Y-142240000D01*
X169263080Y-142240000D02*
X169847271Y-141655809D01*
X169847271Y-141655809D02*
X170408591Y-141655809D01*
X170408591Y-141655809D02*
X170408600Y-141655800D01*
X176428400Y-145288000D02*
X175180686Y-145288000D01*
X175172115Y-145279429D02*
X173727429Y-145279429D01*
X175180686Y-145288000D02*
X175172115Y-145279429D01*
X173727429Y-145279429D02*
X173380400Y-144932400D01*
X172720000Y-145694400D02*
X171653200Y-145694400D01*
X171653200Y-145694400D02*
X171348400Y-145999200D01*
X166878000Y-144018000D02*
X166814500Y-143954500D01*
X166878000Y-147002500D02*
X166878000Y-144018000D01*
X167449500Y-143743654D02*
X167449500Y-143319390D01*
X167449500Y-146271126D02*
X167449500Y-143743654D01*
X167617426Y-146439052D02*
X167449500Y-146271126D01*
X167617426Y-146863316D02*
X167617426Y-146439052D01*
X174683544Y-145708030D02*
X174966386Y-145708030D01*
X173393778Y-145708030D02*
X174683544Y-145708030D01*
X170053000Y-142367252D02*
X173393778Y-145708030D01*
X170053000Y-142084410D02*
X170053000Y-142367252D01*
X168157499Y-142884499D02*
X167957500Y-142684500D01*
X168157499Y-143442631D02*
X168157499Y-142884499D01*
X171282367Y-146567499D02*
X168157499Y-143442631D01*
X174298001Y-146567499D02*
X171282367Y-146567499D01*
X174498000Y-146367500D02*
X174298001Y-146567499D01*
D17*
G36*
X171328798Y-148450862D02*
X171451933Y-148748872D01*
X171593792Y-148890978D01*
X171453734Y-149030793D01*
X171346102Y-149290000D01*
X164104346Y-149290000D01*
X164536234Y-148858113D01*
X168184687Y-148858113D01*
X168476292Y-148800109D01*
X168723502Y-148634928D01*
X169308390Y-148050041D01*
X169483972Y-147977492D01*
X169719066Y-147742807D01*
X169846455Y-147436021D01*
X169846745Y-147103837D01*
X169751667Y-146873731D01*
X171328798Y-148450862D01*
X171328798Y-148450862D01*
G37*
X171328798Y-148450862D02*
X171451933Y-148748872D01*
X171593792Y-148890978D01*
X171453734Y-149030793D01*
X171346102Y-149290000D01*
X164104346Y-149290000D01*
X164536234Y-148858113D01*
X168184687Y-148858113D01*
X168476292Y-148800109D01*
X168723502Y-148634928D01*
X169308390Y-148050041D01*
X169483972Y-147977492D01*
X169719066Y-147742807D01*
X169846455Y-147436021D01*
X169846745Y-147103837D01*
X169751667Y-146873731D01*
X171328798Y-148450862D01*
G36*
X163414994Y-125403453D02*
X163414426Y-126053694D01*
X163662738Y-126654655D01*
X164122127Y-127114846D01*
X164722653Y-127364206D01*
X165372894Y-127364774D01*
X165973855Y-127116462D01*
X166434046Y-126657073D01*
X166683406Y-126056547D01*
X166683974Y-125406306D01*
X166602862Y-125210000D01*
X167739021Y-125210000D01*
X177290000Y-133328333D01*
X177290000Y-134394360D01*
X175218400Y-134394360D01*
X174983083Y-134438638D01*
X174766959Y-134577710D01*
X174621969Y-134789910D01*
X174570960Y-135041800D01*
X174570960Y-140141800D01*
X174615238Y-140377117D01*
X174754310Y-140593241D01*
X174966510Y-140738231D01*
X175218400Y-140789240D01*
X175832448Y-140789240D01*
X175853439Y-140820655D01*
X175929585Y-140934615D01*
X176903001Y-141908032D01*
X176903001Y-142813425D01*
X176885600Y-142809964D01*
X176451254Y-142896361D01*
X176250600Y-143030434D01*
X176049946Y-142896361D01*
X175615600Y-142809964D01*
X175181254Y-142896361D01*
X174813034Y-143142398D01*
X174566997Y-143510618D01*
X174480600Y-143944964D01*
X174480600Y-143989436D01*
X174566997Y-144423782D01*
X174663514Y-144568229D01*
X174133400Y-144568229D01*
X174088692Y-144460028D01*
X173854007Y-144224934D01*
X173547221Y-144097545D01*
X173215037Y-144097255D01*
X172913418Y-144221881D01*
X170968376Y-142276840D01*
X171116066Y-142129407D01*
X171243455Y-141822621D01*
X171243745Y-141490437D01*
X171116892Y-141183428D01*
X170882207Y-140948334D01*
X170575421Y-140820945D01*
X170243237Y-140820655D01*
X169943244Y-140944609D01*
X169847271Y-140944609D01*
X169575106Y-140998746D01*
X169344377Y-141152915D01*
X168968492Y-141528800D01*
X167591378Y-141528800D01*
X167494852Y-141295188D01*
X167260167Y-141060094D01*
X166953381Y-140932705D01*
X166621197Y-140932415D01*
X166321226Y-141056360D01*
X162700427Y-141056360D01*
X162427101Y-140942865D01*
X162094917Y-140942575D01*
X161787908Y-141069428D01*
X161552814Y-141304113D01*
X161495443Y-141442277D01*
X161406021Y-141405145D01*
X161073837Y-141404855D01*
X160766828Y-141531708D01*
X160531734Y-141766393D01*
X160404345Y-142073179D01*
X160404055Y-142405363D01*
X160530908Y-142712372D01*
X160765593Y-142947466D01*
X161072379Y-143074855D01*
X161404563Y-143075145D01*
X161704534Y-142951200D01*
X166698261Y-142951200D01*
X166624150Y-143129680D01*
X166342128Y-143246208D01*
X166107034Y-143480893D01*
X165979645Y-143787679D01*
X165979355Y-144119863D01*
X166106208Y-144426872D01*
X166166800Y-144487570D01*
X166166800Y-146537885D01*
X166043145Y-146835679D01*
X166043131Y-146852036D01*
X165881132Y-146784768D01*
X165459470Y-146363107D01*
X165228741Y-146208938D01*
X164956576Y-146154801D01*
X161391600Y-146154801D01*
X161391600Y-145542000D01*
X161358378Y-145374979D01*
X164200578Y-145374979D01*
X164327431Y-145681988D01*
X164562116Y-145917082D01*
X164868902Y-146044471D01*
X165201086Y-146044761D01*
X165508095Y-145917908D01*
X165743189Y-145683223D01*
X165870578Y-145376437D01*
X165870868Y-145044253D01*
X165771909Y-144804753D01*
X165771909Y-144617020D01*
X165895564Y-144319226D01*
X165895854Y-143987042D01*
X165769001Y-143680033D01*
X165534316Y-143444939D01*
X165227530Y-143317550D01*
X164895346Y-143317260D01*
X164588337Y-143444113D01*
X164353243Y-143678798D01*
X164225854Y-143985584D01*
X164225564Y-144317768D01*
X164349509Y-144617739D01*
X164349509Y-144714794D01*
X164328257Y-144736009D01*
X164200868Y-145042795D01*
X164200578Y-145374979D01*
X161358378Y-145374979D01*
X161333596Y-145250395D01*
X161302973Y-145204565D01*
X161228117Y-145092534D01*
X161134692Y-144866428D01*
X160900007Y-144631334D01*
X160593221Y-144503945D01*
X160261037Y-144503655D01*
X159954028Y-144630508D01*
X159718934Y-144865193D01*
X159591545Y-145171979D01*
X159591255Y-145504163D01*
X159718108Y-145811172D01*
X159867600Y-145960925D01*
X159867600Y-148755725D01*
X159794745Y-148931179D01*
X159794455Y-149263363D01*
X159805461Y-149290000D01*
X152710000Y-149290000D01*
X152710000Y-144119863D01*
X157597355Y-144119863D01*
X157721300Y-144419834D01*
X157721300Y-144696385D01*
X157597645Y-144994179D01*
X157597355Y-145326363D01*
X157724208Y-145633372D01*
X157958893Y-145868466D01*
X158265679Y-145995855D01*
X158597863Y-145996145D01*
X158904872Y-145869292D01*
X159139966Y-145634607D01*
X159267355Y-145327821D01*
X159267645Y-144995637D01*
X159143700Y-144695666D01*
X159143700Y-144419115D01*
X159267355Y-144121321D01*
X159267645Y-143789137D01*
X159140792Y-143482128D01*
X158906107Y-143247034D01*
X158599321Y-143119645D01*
X158267137Y-143119355D01*
X157960128Y-143246208D01*
X157725034Y-143480893D01*
X157597645Y-143787679D01*
X157597355Y-144119863D01*
X152710000Y-144119863D01*
X152710000Y-140789240D01*
X152836126Y-140789240D01*
X152860274Y-140910641D01*
X152860255Y-140932163D01*
X152987108Y-141239172D01*
X153221793Y-141474266D01*
X153528579Y-141601655D01*
X153860763Y-141601945D01*
X154167772Y-141475092D01*
X154402866Y-141240407D01*
X154530255Y-140933621D01*
X154530381Y-140789240D01*
X154818400Y-140789240D01*
X155053717Y-140744962D01*
X155269841Y-140605890D01*
X155414831Y-140393690D01*
X155465840Y-140141800D01*
X155465840Y-135041800D01*
X155421562Y-134806483D01*
X155282490Y-134590359D01*
X155070290Y-134445369D01*
X154818400Y-134394360D01*
X152710000Y-134394360D01*
X152710000Y-133328333D01*
X162260980Y-125210000D01*
X163495323Y-125210000D01*
X163414994Y-125403453D01*
X163414994Y-125403453D01*
G37*
X163414994Y-125403453D02*
X163414426Y-126053694D01*
X163662738Y-126654655D01*
X164122127Y-127114846D01*
X164722653Y-127364206D01*
X165372894Y-127364774D01*
X165973855Y-127116462D01*
X166434046Y-126657073D01*
X166683406Y-126056547D01*
X166683974Y-125406306D01*
X166602862Y-125210000D01*
X167739021Y-125210000D01*
X177290000Y-133328333D01*
X177290000Y-134394360D01*
X175218400Y-134394360D01*
X174983083Y-134438638D01*
X174766959Y-134577710D01*
X174621969Y-134789910D01*
X174570960Y-135041800D01*
X174570960Y-140141800D01*
X174615238Y-140377117D01*
X174754310Y-140593241D01*
X174966510Y-140738231D01*
X175218400Y-140789240D01*
X175832448Y-140789240D01*
X175853439Y-140820655D01*
X175929585Y-140934615D01*
X176903001Y-141908032D01*
X176903001Y-142813425D01*
X176885600Y-142809964D01*
X176451254Y-142896361D01*
X176250600Y-143030434D01*
X176049946Y-142896361D01*
X175615600Y-142809964D01*
X175181254Y-142896361D01*
X174813034Y-143142398D01*
X174566997Y-143510618D01*
X174480600Y-143944964D01*
X174480600Y-143989436D01*
X174566997Y-144423782D01*
X174663514Y-144568229D01*
X174133400Y-144568229D01*
X174088692Y-144460028D01*
X173854007Y-144224934D01*
X173547221Y-144097545D01*
X173215037Y-144097255D01*
X172913418Y-144221881D01*
X170968376Y-142276840D01*
X171116066Y-142129407D01*
X171243455Y-141822621D01*
X171243745Y-141490437D01*
X171116892Y-141183428D01*
X170882207Y-140948334D01*
X170575421Y-140820945D01*
X170243237Y-140820655D01*
X169943244Y-140944609D01*
X169847271Y-140944609D01*
X169575106Y-140998746D01*
X169344377Y-141152915D01*
X168968492Y-141528800D01*
X167591378Y-141528800D01*
X167494852Y-141295188D01*
X167260167Y-141060094D01*
X166953381Y-140932705D01*
X166621197Y-140932415D01*
X166321226Y-141056360D01*
X162700427Y-141056360D01*
X162427101Y-140942865D01*
X162094917Y-140942575D01*
X161787908Y-141069428D01*
X161552814Y-141304113D01*
X161495443Y-141442277D01*
X161406021Y-141405145D01*
X161073837Y-141404855D01*
X160766828Y-141531708D01*
X160531734Y-141766393D01*
X160404345Y-142073179D01*
X160404055Y-142405363D01*
X160530908Y-142712372D01*
X160765593Y-142947466D01*
X161072379Y-143074855D01*
X161404563Y-143075145D01*
X161704534Y-142951200D01*
X166698261Y-142951200D01*
X166624150Y-143129680D01*
X166342128Y-143246208D01*
X166107034Y-143480893D01*
X165979645Y-143787679D01*
X165979355Y-144119863D01*
X166106208Y-144426872D01*
X166166800Y-144487570D01*
X166166800Y-146537885D01*
X166043145Y-146835679D01*
X166043131Y-146852036D01*
X165881132Y-146784768D01*
X165459470Y-146363107D01*
X165228741Y-146208938D01*
X164956576Y-146154801D01*
X161391600Y-146154801D01*
X161391600Y-145542000D01*
X161358378Y-145374979D01*
X164200578Y-145374979D01*
X164327431Y-145681988D01*
X164562116Y-145917082D01*
X164868902Y-146044471D01*
X165201086Y-146044761D01*
X165508095Y-145917908D01*
X165743189Y-145683223D01*
X165870578Y-145376437D01*
X165870868Y-145044253D01*
X165771909Y-144804753D01*
X165771909Y-144617020D01*
X165895564Y-144319226D01*
X165895854Y-143987042D01*
X165769001Y-143680033D01*
X165534316Y-143444939D01*
X165227530Y-143317550D01*
X164895346Y-143317260D01*
X164588337Y-143444113D01*
X164353243Y-143678798D01*
X164225854Y-143985584D01*
X164225564Y-144317768D01*
X164349509Y-144617739D01*
X164349509Y-144714794D01*
X164328257Y-144736009D01*
X164200868Y-145042795D01*
X164200578Y-145374979D01*
X161358378Y-145374979D01*
X161333596Y-145250395D01*
X161302973Y-145204565D01*
X161228117Y-145092534D01*
X161134692Y-144866428D01*
X160900007Y-144631334D01*
X160593221Y-144503945D01*
X160261037Y-144503655D01*
X159954028Y-144630508D01*
X159718934Y-144865193D01*
X159591545Y-145171979D01*
X159591255Y-145504163D01*
X159718108Y-145811172D01*
X159867600Y-145960925D01*
X159867600Y-148755725D01*
X159794745Y-148931179D01*
X159794455Y-149263363D01*
X159805461Y-149290000D01*
X152710000Y-149290000D01*
X152710000Y-144119863D01*
X157597355Y-144119863D01*
X157721300Y-144419834D01*
X157721300Y-144696385D01*
X157597645Y-144994179D01*
X157597355Y-145326363D01*
X157724208Y-145633372D01*
X157958893Y-145868466D01*
X158265679Y-145995855D01*
X158597863Y-145996145D01*
X158904872Y-145869292D01*
X159139966Y-145634607D01*
X159267355Y-145327821D01*
X159267645Y-144995637D01*
X159143700Y-144695666D01*
X159143700Y-144419115D01*
X159267355Y-144121321D01*
X159267645Y-143789137D01*
X159140792Y-143482128D01*
X158906107Y-143247034D01*
X158599321Y-143119645D01*
X158267137Y-143119355D01*
X157960128Y-143246208D01*
X157725034Y-143480893D01*
X157597645Y-143787679D01*
X157597355Y-144119863D01*
X152710000Y-144119863D01*
X152710000Y-140789240D01*
X152836126Y-140789240D01*
X152860274Y-140910641D01*
X152860255Y-140932163D01*
X152987108Y-141239172D01*
X153221793Y-141474266D01*
X153528579Y-141601655D01*
X153860763Y-141601945D01*
X154167772Y-141475092D01*
X154402866Y-141240407D01*
X154530255Y-140933621D01*
X154530381Y-140789240D01*
X154818400Y-140789240D01*
X155053717Y-140744962D01*
X155269841Y-140605890D01*
X155414831Y-140393690D01*
X155465840Y-140141800D01*
X155465840Y-135041800D01*
X155421562Y-134806483D01*
X155282490Y-134590359D01*
X155070290Y-134445369D01*
X154818400Y-134394360D01*
X152710000Y-134394360D01*
X152710000Y-133328333D01*
X162260980Y-125210000D01*
X163495323Y-125210000D01*
X163414994Y-125403453D01*
M02*
